<?xml version="1.0" encoding="UTF-8" standalone="no"?>
<!DOCTYPE svg PUBLIC "-//W3C//DTD SVG 1.1//EN" "http://www.w3.org/Graphics/SVG/1.1/DTD/svg11.dtd">
<svg xmlns="http://www.w3.org/2000/svg" version="1.1" viewBox="0.00 0.00 474.00 474.00">
<g stroke-width="5.00" fill="none" stroke-linecap="butt">
<path stroke="#3a686f" vector-effect="non-scaling-stroke" d="
  M 166.05 211.49
  C 167.63 227.31 168.11 241.91 166.73 256.87
  Q 165.44 270.88 165.13 285.77
  Q 164.95 294.49 166.41 303.52
  C 168.07 313.88 171.92 323.68 179.45 331.23
  C 193.66 345.50 214.64 349.95 234.67 349.99
  C 257.22 350.03 284.69 344.26 297.73 324.28
  Q 301.96 317.80 304.49 309.99
  C 308.95 296.24 309.82 281.31 309.27 266.60
  Q 308.78 253.40 307.96 240.56
  C 306.86 223.51 307.44 205.26 306.63 189.26
  Q 305.87 174.27 302.12 159.41
  Q 296.92 138.84 280.09 128.90
  Q 272.38 124.33 261.20 122.08
  Q 241.24 118.07 220.75 121.25
  C 198.03 124.77 177.82 133.19 169.60 156.63
  Q 166.10 166.61 165.26 177.61
  Q 164.14 192.43 166.05 211.49"
/>
<path stroke="#3a686f" vector-effect="non-scaling-stroke" d="
  M 313.53 143.76
  C 311.43 132.24 299.12 126.38 289.03 132.71
  A 0.50 0.50 0.0 0 0 288.93 133.47
  L 293.93 138.92
  A 0.84 0.83 -30.6 0 0 294.79 139.14
  C 299.26 137.71 303.01 141.71 301.93 145.95
  C 301.69 146.90 300.96 147.62 300.50 148.46
  Q 300.23 148.96 300.41 149.49
  L 303.52 158.55
  A 0.78 0.77 69.5 0 0 304.54 159.02
  C 310.74 156.51 314.74 150.33 313.53 143.76"
/>
<path stroke="#3a686f" vector-effect="non-scaling-stroke" d="
  M 163.59 135.80
  C 156.10 140.71 152.68 151.93 160.45 158.57
  Q 162.78 160.56 165.64 161.68
  A 0.70 0.70 0.0 0 0 166.56 161.25
  L 168.75 154.48
  Q 168.98 153.77 168.33 153.40
  Q 163.03 150.42 165.20 145.66
  C 166.82 142.09 170.23 141.74 173.43 143.35
  A 1.12 1.11 33.7 0 0 174.76 143.09
  L 180.70 136.42
  A 0.79 0.79 0.0 0 0 180.44 135.17
  Q 171.11 130.86 163.59 135.80"
/>
<path stroke="#7a6a55" vector-effect="non-scaling-stroke" d="
  M 318.94 243.34
  L 321.25 244.78
  A 0.66 0.66 0.0 0 0 322.26 244.28
  C 322.71 238.80 314.38 236.02 310.02 235.47
  A 0.71 0.70 1.7 0 0 309.23 236.21
  Q 309.42 240.24 309.64 244.27
  Q 309.73 245.80 311.36 246.86
  C 313.76 248.40 319.06 250.81 320.69 247.21
  Q 320.94 246.65 320.45 246.29
  L 318.70 245.01
  Q 318.24 244.67 318.25 244.09
  L 318.25 243.71
  A 0.45 0.45 0.0 0 1 318.94 243.34"
/>
<path stroke="#7a6a55" vector-effect="non-scaling-stroke" d="
  M 155.28 245.06
  Q 155.26 245.22 155.24 245.38
  Q 155.17 245.90 154.71 246.17
  Q 154.09 246.54 153.54 246.99
  A 1.51 1.51 0.0 0 0 153.99 249.57
  Q 157.02 250.67 160.03 248.87
  Q 162.61 247.33 165.28 245.97
  Q 165.89 245.66 165.90 244.97
  L 166.04 237.30
  Q 166.05 236.47 165.22 236.47
  C 159.96 236.48 152.85 238.63 151.18 244.17
  Q 150.83 245.35 151.97 245.79
  Q 152.42 245.96 152.83 245.69
  L 154.53 244.59
  A 0.49 0.49 0.0 0 1 155.28 245.06"
/>
<path stroke="#7a6a55" vector-effect="non-scaling-stroke" d="
  M 295.22 343.26
  Q 296.03 343.02 296.42 343.77
  L 299.02 348.91
  Q 299.50 349.86 300.13 349.00
  Q 300.74 348.16 300.88 347.15
  Q 301.14 345.28 300.38 343.59
  Q 298.02 338.32 292.19 334.16
  A 0.58 0.58 0.0 0 0 291.47 334.19
  Q 287.30 337.85 282.61 340.60
  A 0.60 0.60 0.0 0 0 282.54 341.58
  Q 285.70 344.08 288.00 347.34
  C 289.84 349.95 294.34 353.83 297.60 351.02
  Q 298.01 350.67 297.83 350.16
  Q 296.53 346.62 294.59 343.93
  A 0.36 0.35 -26.4 0 1 294.78 343.39
  L 295.22 343.26"
/>
<path stroke="#7a6a55" vector-effect="non-scaling-stroke" d="
  M 177.15 344.20
  A 0.84 0.82 39.2 0 1 177.26 345.16
  Q 175.89 347.58 174.53 349.76
  C 172.95 352.31 175.55 354.36 177.90 353.87
  Q 180.22 353.38 182.05 351.78
  Q 187.31 347.15 192.93 343.79
  A 0.34 0.34 0.0 0 0 192.91 343.19
  Q 187.00 340.21 181.91 335.99
  Q 181.49 335.64 181.03 335.92
  Q 176.04 338.85 172.59 342.80
  Q 169.55 346.29 171.45 350.15
  A 0.62 0.62 0.0 0 0 172.54 350.20
  L 176.34 344.04
  A 0.39 0.39 0.0 0 1 176.96 343.99
  L 177.15 344.20"
/>
<path stroke="#3a686f" vector-effect="non-scaling-stroke" d="
  M 284.3152 148.7708
  A 23.20 21.27 -8.5 0 0 258.2261 131.1636
  A 23.20 21.27 -8.5 0 0 238.4248 155.6292
  A 23.20 21.27 -8.5 0 0 264.5139 173.2364
  A 23.20 21.27 -8.5 0 0 284.3152 148.7708"
/>
<path stroke="#3a686f" vector-effect="non-scaling-stroke" d="
  M 228.8064 151.3263
  A 23.09 21.30 -7.8 0 0 203.0393 133.3571
  A 23.09 21.30 -7.8 0 0 183.0536 157.5937
  A 23.09 21.30 -7.8 0 0 208.8207 175.5629
  A 23.09 21.30 -7.8 0 0 228.8064 151.3263"
/>
<path stroke="#3a686f" vector-effect="non-scaling-stroke" d="
  M 235.43 200.71
  C 237.71 203.62 241.00 204.58 243.99 201.99
  Q 245.59 200.60 245.58 198.15
  Q 245.56 194.18 245.16 190.75
  Q 245.08 190.12 245.71 190.25
  Q 250.77 191.29 253.49 187.25
  C 257.50 181.29 250.27 176.50 245.89 174.06
  A 1.01 1.01 0.0 0 1 245.37 173.23
  C 244.90 166.17 235.63 165.81 230.76 167.63
  Q 226.70 169.14 225.53 173.67
  A 1.18 1.18 0.0 0 1 224.81 174.48
  Q 219.69 176.44 218.54 180.63
  Q 216.57 187.85 223.50 190.26
  Q 224.04 190.45 223.99 191.03
  Q 223.47 196.95 226.14 200.94
  C 228.45 204.39 232.34 203.46 234.59 200.70
  Q 235.01 200.18 235.43 200.71"
/>
<path stroke="#808080" vector-effect="non-scaling-stroke" d="
  M 282.7822 148.9499
  A 21.65 19.85 -8.5 0 0 258.4360 132.5180
  A 21.65 19.85 -8.5 0 0 239.9578 155.3501
  A 21.65 19.85 -8.5 0 0 264.3040 171.7820
  A 21.65 19.85 -8.5 0 0 282.7822 148.9499"
/>
<path stroke="#808080" vector-effect="non-scaling-stroke" d="
  M 250.3236 160.9591
  A 7.23 6.56 89.1 0 0 256.7692 153.6270
  A 7.23 6.56 89.1 0 0 250.0964 146.5009
  A 7.23 6.56 89.1 0 0 243.6508 153.8330
  A 7.23 6.56 89.1 0 0 250.3236 160.9591"
/>
<path stroke="#808080" vector-effect="non-scaling-stroke" d="
  M 227.4567 151.3641
  A 21.64 19.91 -8.6 0 0 203.0828 134.9139
  A 21.64 19.91 -8.6 0 0 184.6633 157.8359
  A 21.64 19.91 -8.6 0 0 209.0372 174.2861
  A 21.64 19.91 -8.6 0 0 227.4567 151.3641"
/>
<path stroke="#808080" vector-effect="non-scaling-stroke" d="
  M 194.9091 162.7593
  A 7.23 6.68 90.8 0 0 201.6893 155.6233
  A 7.23 6.68 90.8 0 0 195.1109 148.3007
  A 7.23 6.68 90.8 0 0 188.3307 155.4367
  A 7.23 6.68 90.8 0 0 194.9091 162.7593"
/>
<path stroke="#808080" vector-effect="non-scaling-stroke" d="
  M 253.1774 157.3288
  A 1.93 1.58 88.0 0 0 254.6890 155.3449
  A 1.93 1.58 88.0 0 0 253.0426 153.4712
  A 1.93 1.58 88.0 0 0 251.5310 155.4551
  A 1.93 1.58 88.0 0 0 253.1774 157.3288"
/>
<path stroke="#808080" vector-effect="non-scaling-stroke" d="
  M 198.0708 159.0883
  A 1.93 1.64 87.6 0 0 199.6286 157.0913
  A 1.93 1.64 87.6 0 0 197.9092 155.2317
  A 1.93 1.64 87.6 0 0 196.3514 157.2287
  A 1.93 1.64 87.6 0 0 198.0708 159.0883"
/>
<path stroke="#7a6a55" vector-effect="non-scaling-stroke" d="
  M 244.39 175.46
  C 240.23 179.56 230.32 180.20 226.15 176.00
  Q 225.80 175.64 225.32 175.79
  C 220.99 177.12 218.33 181.82 220.42 186.07
  C 222.68 190.69 228.02 188.18 231.42 187.02
  C 233.79 186.21 236.70 185.78 239.17 186.37
  C 243.62 187.43 248.60 191.83 252.50 186.61
  C 255.94 182.00 248.81 176.97 245.26 175.31
  Q 244.78 175.09 244.39 175.46"
/>
<path stroke="#808080" vector-effect="non-scaling-stroke" d="
  M 243.25 189.38
  C 241.17 188.48 239.30 187.67 237.07 187.46
  A 0.60 0.60 0.0 0 0 236.41 187.99
  Q 235.81 193.15 236.02 197.48
  Q 236.19 201.05 239.91 201.87
  Q 240.36 201.97 240.84 201.85
  Q 243.98 201.07 244.02 198.35
  Q 244.06 194.27 243.75 190.09
  Q 243.71 189.58 243.25 189.38"
/>
<path stroke="#808080" vector-effect="non-scaling-stroke" d="
  M 226.05 190.14
  Q 225.71 190.24 225.66 190.60
  Q 224.98 195.84 227.23 199.95
  C 228.15 201.62 229.81 202.20 231.49 201.17
  C 232.74 200.41 234.22 199.42 234.14 197.79
  Q 233.89 192.77 234.39 187.77
  A 0.20 0.20 0.0 0 0 234.13 187.56
  Q 230.16 188.92 226.05 190.14"
/>
</g>
<path fill="#000000" fill-opacity="0.996" d="
  M 310.53 134.79
  Q 310.76 134.83 310.92 135.02
  Q 314.29 139.05 314.96 143.66
  C 316.02 150.96 311.95 157.34 305.12 159.84
  A 1.37 1.36 -16.2 0 0 304.25 161.42
  Q 306.30 170.85 307.31 179.92
  Q 308.15 187.36 308.46 199.33
  Q 308.89 216.27 308.94 233.00
  A 1.14 1.14 0.0 0 0 310.04 234.14
  Q 318.64 234.52 322.86 240.23
  Q 324.24 242.11 324.08 244.28
  A 1.08 1.08 0.0 0 1 323.68 245.03
  Q 322.45 246.03 322.29 247.75
  Q 322.23 248.34 321.77 248.72
  C 318.05 251.73 314.14 250.20 310.57 247.95
  A 0.53 0.52 -76.3 0 0 309.77 248.44
  C 311.41 266.43 311.74 286.78 308.14 302.89
  Q 305.56 314.38 300.15 323.31
  Q 297.37 327.90 293.87 331.56
  A 1.25 1.25 0.0 0 0 294.06 333.45
  C 298.50 336.53 305.96 344.67 300.84 350.16
  C 300.30 350.74 299.47 351.04 299.14 351.69
  A 0.85 0.84 -72.8 0 1 298.29 352.14
  Q 297.80 352.09 297.60 352.57
  A 0.75 0.73 5.5 0 1 297.03 353.03
  C 295.10 353.36 293.06 353.59 291.33 352.36
  Q 289.05 350.74 287.57 348.75
  C 286.19 346.90 283.13 342.93 280.85 342.37
  Q 279.91 342.14 278.78 342.66
  Q 264.66 349.29 248.61 350.81
  Q 235.75 352.03 223.92 351.09
  Q 212.54 350.19 200.11 345.92
  C 197.48 345.02 194.67 344.47 192.20 345.83
  Q 190.71 346.65 189.29 347.68
  C 186.71 349.56 184.51 351.82 181.86 353.67
  C 179.83 355.08 175.49 356.27 173.70 353.92
  Q 173.16 353.20 172.38 352.69
  C 168.28 349.97 169.29 345.09 172.10 341.80
  Q 175.17 338.20 179.51 335.68
  A 1.22 1.22 0.0 0 0 179.80 333.80
  C 177.15 330.87 174.20 327.85 172.28 324.58
  Q 167.95 317.21 166.17 310.00
  C 163.43 298.84 163.20 286.81 163.96 275.43
  Q 164.88 261.76 165.92 248.50
  A 0.85 0.84 -15.9 0 0 164.58 247.76
  Q 160.84 250.48 156.67 251.02
  Q 154.20 251.35 152.36 249.98
  Q 151.87 249.63 151.79 249.03
  Q 151.58 247.35 150.37 246.17
  A 1.26 1.23 -66.9 0 1 150.00 245.21
  C 150.37 237.93 159.40 234.90 165.47 235.07
  A 0.54 0.54 0.0 0 0 166.02 234.50
  C 165.84 230.42 165.86 226.25 165.51 222.16
  Q 163.80 202.51 163.38 190.99
  Q 162.89 177.52 165.89 164.49
  A 1.56 1.56 0.0 0 0 164.94 162.69
  Q 159.04 160.39 155.86 154.77
  Q 154.20 151.83 154.89 147.27
  Q 155.90 140.51 161.29 135.93
  Q 165.38 132.45 170.82 131.86
  Q 176.09 131.29 181.65 134.33
  A 1.60 1.60 0.0 0 0 183.41 134.18
  Q 191.85 127.43 202.64 124.00
  Q 208.05 122.27 213.41 121.17
  Q 220.81 119.65 227.82 119.02
  Q 246.86 117.33 264.01 121.21
  Q 270.10 122.59 275.83 125.19
  Q 280.54 127.34 286.86 131.85
  Q 287.29 132.15 287.73 131.89
  Q 299.35 124.95 309.67 133.56
  Q 310.01 133.83 310.07 134.30
  Q 310.12 134.71 310.53 134.79
  Z
  M 166.05 211.49
  C 167.63 227.31 168.11 241.91 166.73 256.87
  Q 165.44 270.88 165.13 285.77
  Q 164.95 294.49 166.41 303.52
  C 168.07 313.88 171.92 323.68 179.45 331.23
  C 193.66 345.50 214.64 349.95 234.67 349.99
  C 257.22 350.03 284.69 344.26 297.73 324.28
  Q 301.96 317.80 304.49 309.99
  C 308.95 296.24 309.82 281.31 309.27 266.60
  Q 308.78 253.40 307.96 240.56
  C 306.86 223.51 307.44 205.26 306.63 189.26
  Q 305.87 174.27 302.12 159.41
  Q 296.92 138.84 280.09 128.90
  Q 272.38 124.33 261.20 122.08
  Q 241.24 118.07 220.75 121.25
  C 198.03 124.77 177.82 133.19 169.60 156.63
  Q 166.10 166.61 165.26 177.61
  Q 164.14 192.43 166.05 211.49
  Z
  M 313.53 143.76
  C 311.43 132.24 299.12 126.38 289.03 132.71
  A 0.50 0.50 0.0 0 0 288.93 133.47
  L 293.93 138.92
  A 0.84 0.83 -30.6 0 0 294.79 139.14
  C 299.26 137.71 303.01 141.71 301.93 145.95
  C 301.69 146.90 300.96 147.62 300.50 148.46
  Q 300.23 148.96 300.41 149.49
  L 303.52 158.55
  A 0.78 0.77 69.5 0 0 304.54 159.02
  C 310.74 156.51 314.74 150.33 313.53 143.76
  Z
  M 163.59 135.80
  C 156.10 140.71 152.68 151.93 160.45 158.57
  Q 162.78 160.56 165.64 161.68
  A 0.70 0.70 0.0 0 0 166.56 161.25
  L 168.75 154.48
  Q 168.98 153.77 168.33 153.40
  Q 163.03 150.42 165.20 145.66
  C 166.82 142.09 170.23 141.74 173.43 143.35
  A 1.12 1.11 33.7 0 0 174.76 143.09
  L 180.70 136.42
  A 0.79 0.79 0.0 0 0 180.44 135.17
  Q 171.11 130.86 163.59 135.80
  Z
  M 318.94 243.34
  L 321.25 244.78
  A 0.66 0.66 0.0 0 0 322.26 244.28
  C 322.71 238.80 314.38 236.02 310.02 235.47
  A 0.71 0.70 1.7 0 0 309.23 236.21
  Q 309.42 240.24 309.64 244.27
  Q 309.73 245.80 311.36 246.86
  C 313.76 248.40 319.06 250.81 320.69 247.21
  Q 320.94 246.65 320.45 246.29
  L 318.70 245.01
  Q 318.24 244.67 318.25 244.09
  L 318.25 243.71
  A 0.45 0.45 0.0 0 1 318.94 243.34
  Z
  M 155.28 245.06
  Q 155.26 245.22 155.24 245.38
  Q 155.17 245.90 154.71 246.17
  Q 154.09 246.54 153.54 246.99
  A 1.51 1.51 0.0 0 0 153.99 249.57
  Q 157.02 250.67 160.03 248.87
  Q 162.61 247.33 165.28 245.97
  Q 165.89 245.66 165.90 244.97
  L 166.04 237.30
  Q 166.05 236.47 165.22 236.47
  C 159.96 236.48 152.85 238.63 151.18 244.17
  Q 150.83 245.35 151.97 245.79
  Q 152.42 245.96 152.83 245.69
  L 154.53 244.59
  A 0.49 0.49 0.0 0 1 155.28 245.06
  Z
  M 295.22 343.26
  Q 296.03 343.02 296.42 343.77
  L 299.02 348.91
  Q 299.50 349.86 300.13 349.00
  Q 300.74 348.16 300.88 347.15
  Q 301.14 345.28 300.38 343.59
  Q 298.02 338.32 292.19 334.16
  A 0.58 0.58 0.0 0 0 291.47 334.19
  Q 287.30 337.85 282.61 340.60
  A 0.60 0.60 0.0 0 0 282.54 341.58
  Q 285.70 344.08 288.00 347.34
  C 289.84 349.95 294.34 353.83 297.60 351.02
  Q 298.01 350.67 297.83 350.16
  Q 296.53 346.62 294.59 343.93
  A 0.36 0.35 -26.4 0 1 294.78 343.39
  L 295.22 343.26
  Z
  M 177.15 344.20
  A 0.84 0.82 39.2 0 1 177.26 345.16
  Q 175.89 347.58 174.53 349.76
  C 172.95 352.31 175.55 354.36 177.90 353.87
  Q 180.22 353.38 182.05 351.78
  Q 187.31 347.15 192.93 343.79
  A 0.34 0.34 0.0 0 0 192.91 343.19
  Q 187.00 340.21 181.91 335.99
  Q 181.49 335.64 181.03 335.92
  Q 176.04 338.85 172.59 342.80
  Q 169.55 346.29 171.45 350.15
  A 0.62 0.62 0.0 0 0 172.54 350.20
  L 176.34 344.04
  A 0.39 0.39 0.0 0 1 176.96 343.99
  L 177.15 344.20
  Z"
/>
<path fill="#73cfde" d="
  M 166.05 211.49
  Q 164.14 192.43 165.26 177.61
  Q 166.10 166.61 169.60 156.63
  C 177.82 133.19 198.03 124.77 220.75 121.25
  Q 241.24 118.07 261.20 122.08
  Q 272.38 124.33 280.09 128.90
  Q 296.92 138.84 302.12 159.41
  Q 305.87 174.27 306.63 189.26
  C 307.44 205.26 306.86 223.51 307.96 240.56
  Q 308.78 253.40 309.27 266.60
  C 309.82 281.31 308.95 296.24 304.49 309.99
  Q 301.96 317.80 297.73 324.28
  C 284.69 344.26 257.22 350.03 234.67 349.99
  C 214.64 349.95 193.66 345.50 179.45 331.23
  C 171.92 323.68 168.07 313.88 166.41 303.52
  Q 164.95 294.49 165.13 285.77
  Q 165.44 270.88 166.73 256.87
  C 168.11 241.91 167.63 227.31 166.05 211.49
  Z
  M 284.3152 148.7708
  A 23.20 21.27 -8.5 0 0 258.2261 131.1636
  A 23.20 21.27 -8.5 0 0 238.4248 155.6292
  A 23.20 21.27 -8.5 0 0 264.5139 173.2364
  A 23.20 21.27 -8.5 0 0 284.3152 148.7708
  Z
  M 228.8064 151.3263
  A 23.09 21.30 -7.8 0 0 203.0393 133.3571
  A 23.09 21.30 -7.8 0 0 183.0536 157.5937
  A 23.09 21.30 -7.8 0 0 208.8207 175.5629
  A 23.09 21.30 -7.8 0 0 228.8064 151.3263
  Z
  M 235.43 200.71
  C 237.71 203.62 241.00 204.58 243.99 201.99
  Q 245.59 200.60 245.58 198.15
  Q 245.56 194.18 245.16 190.75
  Q 245.08 190.12 245.71 190.25
  Q 250.77 191.29 253.49 187.25
  C 257.50 181.29 250.27 176.50 245.89 174.06
  A 1.01 1.01 0.0 0 1 245.37 173.23
  C 244.90 166.17 235.63 165.81 230.76 167.63
  Q 226.70 169.14 225.53 173.67
  A 1.18 1.18 0.0 0 1 224.81 174.48
  Q 219.69 176.44 218.54 180.63
  Q 216.57 187.85 223.50 190.26
  Q 224.04 190.45 223.99 191.03
  Q 223.47 196.95 226.14 200.94
  C 228.45 204.39 232.34 203.46 234.59 200.70
  Q 235.01 200.18 235.43 200.71
  Z"
/>
<path fill="#73cfde" d="
  M 289.03 132.71
  C 299.12 126.38 311.43 132.24 313.53 143.76
  C 314.74 150.33 310.74 156.51 304.54 159.02
  A 0.78 0.77 69.5 0 1 303.52 158.55
  L 300.41 149.49
  Q 300.23 148.96 300.50 148.46
  C 300.96 147.62 301.69 146.90 301.93 145.95
  C 303.01 141.71 299.26 137.71 294.79 139.14
  A 0.84 0.83 -30.6 0 1 293.93 138.92
  L 288.93 133.47
  A 0.50 0.50 0.0 0 1 289.03 132.71
  Z"
/>
<path fill="#000000" fill-opacity="0.996" d="
  M 284.3152 148.7708
  A 23.20 21.27 -8.5 0 1 264.5139 173.2364
  A 23.20 21.27 -8.5 0 1 238.4248 155.6292
  A 23.20 21.27 -8.5 0 1 258.2261 131.1636
  A 23.20 21.27 -8.5 0 1 284.3152 148.7708
  Z
  M 282.7822 148.9499
  A 21.65 19.85 -8.5 0 0 258.4360 132.5180
  A 21.65 19.85 -8.5 0 0 239.9578 155.3501
  A 21.65 19.85 -8.5 0 0 264.3040 171.7820
  A 21.65 19.85 -8.5 0 0 282.7822 148.9499
  Z"
/>
<path fill="#ffffff" d="
  M 282.7822 148.9499
  A 21.65 19.85 -8.5 0 1 264.3040 171.7820
  A 21.65 19.85 -8.5 0 1 239.9578 155.3501
  A 21.65 19.85 -8.5 0 1 258.4360 132.5180
  A 21.65 19.85 -8.5 0 1 282.7822 148.9499
  Z
  M 250.3236 160.9591
  A 7.23 6.56 89.1 0 0 256.7692 153.6270
  A 7.23 6.56 89.1 0 0 250.0964 146.5009
  A 7.23 6.56 89.1 0 0 243.6508 153.8330
  A 7.23 6.56 89.1 0 0 250.3236 160.9591
  Z"
/>
<path fill="#73cfde" d="
  M 160.45 158.57
  C 152.68 151.93 156.10 140.71 163.59 135.80
  Q 171.11 130.86 180.44 135.17
  A 0.79 0.79 0.0 0 1 180.70 136.42
  L 174.76 143.09
  A 1.12 1.11 33.7 0 1 173.43 143.35
  C 170.23 141.74 166.82 142.09 165.20 145.66
  Q 163.03 150.42 168.33 153.40
  Q 168.98 153.77 168.75 154.48
  L 166.56 161.25
  A 0.70 0.70 0.0 0 1 165.64 161.68
  Q 162.78 160.56 160.45 158.57
  Z"
/>
<path fill="#000000" fill-opacity="0.996" d="
  M 228.8064 151.3263
  A 23.09 21.30 -7.8 0 1 208.8207 175.5629
  A 23.09 21.30 -7.8 0 1 183.0536 157.5937
  A 23.09 21.30 -7.8 0 1 203.0393 133.3571
  A 23.09 21.30 -7.8 0 1 228.8064 151.3263
  Z
  M 227.4567 151.3641
  A 21.64 19.91 -8.6 0 0 203.0828 134.9139
  A 21.64 19.91 -8.6 0 0 184.6633 157.8359
  A 21.64 19.91 -8.6 0 0 209.0372 174.2861
  A 21.64 19.91 -8.6 0 0 227.4567 151.3641
  Z"
/>
<path fill="#ffffff" d="
  M 227.4567 151.3641
  A 21.64 19.91 -8.6 0 1 209.0372 174.2861
  A 21.64 19.91 -8.6 0 1 184.6633 157.8359
  A 21.64 19.91 -8.6 0 1 203.0828 134.9139
  A 21.64 19.91 -8.6 0 1 227.4567 151.3641
  Z
  M 194.9091 162.7593
  A 7.23 6.68 90.8 0 0 201.6893 155.6233
  A 7.23 6.68 90.8 0 0 195.1109 148.3007
  A 7.23 6.68 90.8 0 0 188.3307 155.4367
  A 7.23 6.68 90.8 0 0 194.9091 162.7593
  Z"
/>
<path fill="#000000" fill-opacity="0.996" d="
  M 250.3236 160.9591
  A 7.23 6.56 89.1 0 1 243.6508 153.8330
  A 7.23 6.56 89.1 0 1 250.0964 146.5009
  A 7.23 6.56 89.1 0 1 256.7692 153.6270
  A 7.23 6.56 89.1 0 1 250.3236 160.9591
  Z
  M 253.1774 157.3288
  A 1.93 1.58 88.0 0 0 254.6890 155.3449
  A 1.93 1.58 88.0 0 0 253.0426 153.4712
  A 1.93 1.58 88.0 0 0 251.5310 155.4551
  A 1.93 1.58 88.0 0 0 253.1774 157.3288
  Z"
/>
<path fill="#000000" fill-opacity="0.996" d="
  M 194.9091 162.7593
  A 7.23 6.68 90.8 0 1 188.3307 155.4367
  A 7.23 6.68 90.8 0 1 195.1109 148.3007
  A 7.23 6.68 90.8 0 1 201.6893 155.6233
  A 7.23 6.68 90.8 0 1 194.9091 162.7593
  Z
  M 198.0708 159.0883
  A 1.93 1.64 87.6 0 0 199.6286 157.0913
  A 1.93 1.64 87.6 0 0 197.9092 155.2317
  A 1.93 1.64 87.6 0 0 196.3514 157.2287
  A 1.93 1.64 87.6 0 0 198.0708 159.0883
  Z"
/>
<ellipse fill="#ffffff" cx="0.00" cy="0.00" transform="translate(253.11,155.40) rotate(88.0)" rx="1.93" ry="1.58"/>
<ellipse fill="#ffffff" cx="0.00" cy="0.00" transform="translate(197.99,157.16) rotate(87.6)" rx="1.93" ry="1.64"/>
<path fill="#000000" fill-opacity="0.996" d="
  M 234.59 200.70
  C 232.34 203.46 228.45 204.39 226.14 200.94
  Q 223.47 196.95 223.99 191.03
  Q 224.04 190.45 223.50 190.26
  Q 216.57 187.85 218.54 180.63
  Q 219.69 176.44 224.81 174.48
  A 1.18 1.18 0.0 0 0 225.53 173.67
  Q 226.70 169.14 230.76 167.63
  C 235.63 165.81 244.90 166.17 245.37 173.23
  A 1.01 1.01 0.0 0 0 245.89 174.06
  C 250.27 176.50 257.50 181.29 253.49 187.25
  Q 250.77 191.29 245.71 190.25
  Q 245.08 190.12 245.16 190.75
  Q 245.56 194.18 245.58 198.15
  Q 245.59 200.60 243.99 201.99
  C 241.00 204.58 237.71 203.62 235.43 200.71
  Q 235.01 200.18 234.59 200.70
  Z
  M 244.39 175.46
  C 240.23 179.56 230.32 180.20 226.15 176.00
  Q 225.80 175.64 225.32 175.79
  C 220.99 177.12 218.33 181.82 220.42 186.07
  C 222.68 190.69 228.02 188.18 231.42 187.02
  C 233.79 186.21 236.70 185.78 239.17 186.37
  C 243.62 187.43 248.60 191.83 252.50 186.61
  C 255.94 182.00 248.81 176.97 245.26 175.31
  Q 244.78 175.09 244.39 175.46
  Z
  M 243.25 189.38
  C 241.17 188.48 239.30 187.67 237.07 187.46
  A 0.60 0.60 0.0 0 0 236.41 187.99
  Q 235.81 193.15 236.02 197.48
  Q 236.19 201.05 239.91 201.87
  Q 240.36 201.97 240.84 201.85
  Q 243.98 201.07 244.02 198.35
  Q 244.06 194.27 243.75 190.09
  Q 243.71 189.58 243.25 189.38
  Z
  M 226.05 190.14
  Q 225.71 190.24 225.66 190.60
  Q 224.98 195.84 227.23 199.95
  C 228.15 201.62 229.81 202.20 231.49 201.17
  C 232.74 200.41 234.22 199.42 234.14 197.79
  Q 233.89 192.77 234.39 187.77
  A 0.20 0.20 0.0 0 0 234.13 187.56
  Q 230.16 188.92 226.05 190.14
  Z"
/>
<path fill="#f4d4aa" d="
  M 226.15 176.00
  C 230.32 180.20 240.23 179.56 244.39 175.46
  Q 244.78 175.09 245.26 175.31
  C 248.81 176.97 255.94 182.00 252.50 186.61
  C 248.60 191.83 243.62 187.43 239.17 186.37
  C 236.70 185.78 233.79 186.21 231.42 187.02
  C 228.02 188.18 222.68 190.69 220.42 186.07
  C 218.33 181.82 220.99 177.12 225.32 175.79
  Q 225.80 175.64 226.15 176.00
  Z"
/>
<path fill="#ffffff" d="
  M 237.07 187.46
  C 239.30 187.67 241.17 188.48 243.25 189.38
  Q 243.71 189.58 243.75 190.09
  Q 244.06 194.27 244.02 198.35
  Q 243.98 201.07 240.84 201.85
  Q 240.36 201.97 239.91 201.87
  Q 236.19 201.05 236.02 197.48
  Q 235.81 193.15 236.41 187.99
  A 0.60 0.60 0.0 0 1 237.07 187.46
  Z"
/>
<path fill="#ffffff" d="
  M 226.05 190.14
  Q 230.16 188.92 234.13 187.56
  A 0.20 0.20 0.0 0 1 234.39 187.77
  Q 233.89 192.77 234.14 197.79
  C 234.22 199.42 232.74 200.41 231.49 201.17
  C 229.81 202.20 228.15 201.62 227.23 199.95
  Q 224.98 195.84 225.66 190.60
  Q 225.71 190.24 226.05 190.14
  Z"
/>
<path fill="#f4d4aa" d="
  M 318.94 243.34
  A 0.45 0.45 0.0 0 0 318.25 243.71
  L 318.25 244.09
  Q 318.24 244.67 318.70 245.01
  L 320.45 246.29
  Q 320.94 246.65 320.69 247.21
  C 319.06 250.81 313.76 248.40 311.36 246.86
  Q 309.73 245.80 309.64 244.27
  Q 309.42 240.24 309.23 236.21
  A 0.71 0.70 1.7 0 1 310.02 235.47
  C 314.38 236.02 322.71 238.80 322.26 244.28
  A 0.66 0.66 0.0 0 1 321.25 244.78
  L 318.94 243.34
  Z"
/>
<path fill="#f4d4aa" d="
  M 154.53 244.59
  L 152.83 245.69
  Q 152.42 245.96 151.97 245.79
  Q 150.83 245.35 151.18 244.17
  C 152.85 238.63 159.96 236.48 165.22 236.47
  Q 166.05 236.47 166.04 237.30
  L 165.90 244.97
  Q 165.89 245.66 165.28 245.97
  Q 162.61 247.33 160.03 248.87
  Q 157.02 250.67 153.99 249.57
  A 1.51 1.51 0.0 0 1 153.54 246.99
  Q 154.09 246.54 154.71 246.17
  Q 155.17 245.90 155.24 245.38
  Q 155.26 245.22 155.28 245.06
  A 0.49 0.49 0.0 0 0 154.53 244.59
  Z"
/>
<path fill="#f4d4aa" d="
  M 295.22 343.26
  L 294.78 343.39
  A 0.36 0.35 -26.4 0 0 294.59 343.93
  Q 296.53 346.62 297.83 350.16
  Q 298.01 350.67 297.60 351.02
  C 294.34 353.83 289.84 349.95 288.00 347.34
  Q 285.70 344.08 282.54 341.58
  A 0.60 0.60 0.0 0 1 282.61 340.60
  Q 287.30 337.85 291.47 334.19
  A 0.58 0.58 0.0 0 1 292.19 334.16
  Q 298.02 338.32 300.38 343.59
  Q 301.14 345.28 300.88 347.15
  Q 300.74 348.16 300.13 349.00
  Q 299.50 349.86 299.02 348.91
  L 296.42 343.77
  Q 296.03 343.02 295.22 343.26
  Z"
/>
<path fill="#f4d4aa" d="
  M 177.15 344.20
  L 176.96 343.99
  A 0.39 0.39 0.0 0 0 176.34 344.04
  L 172.54 350.20
  A 0.62 0.62 0.0 0 1 171.45 350.15
  Q 169.55 346.29 172.59 342.80
  Q 176.04 338.85 181.03 335.92
  Q 181.49 335.64 181.91 335.99
  Q 187.00 340.21 192.91 343.19
  A 0.34 0.34 0.0 0 1 192.93 343.79
  Q 187.31 347.15 182.05 351.78
  Q 180.22 353.38 177.90 353.87
  C 175.55 354.36 172.95 352.31 174.53 349.76
  Q 175.89 347.58 177.26 345.16
  A 0.84 0.82 39.2 0 0 177.15 344.20
  Z"
/>
</svg>
