<?xml version="1.0" encoding="UTF-8" standalone="no"?>
<!DOCTYPE svg PUBLIC "-//W3C//DTD SVG 1.1//EN" "http://www.w3.org/Graphics/SVG/1.1/DTD/svg11.dtd">
<svg xmlns="http://www.w3.org/2000/svg" version="1.1" viewBox="0.00 0.00 474.00 474.00">
<g stroke-width="5.00" fill="none" stroke-linecap="butt">
<path stroke="#928740" vector-effect="non-scaling-stroke" d="
  M 364.51 347.84
  Q 373.08 351.46 380.75 356.19
  C 386.79 359.93 391.17 365.64 391.71 373.08
  C 392.99 390.80 375.56 397.17 361.13 397.05
  C 341.48 396.88 327.93 386.72 318.21 370.64
  A 0.72 0.71 59.0 0 0 317.24 370.39
  L 282.23 390.67
  A 0.79 0.78 -28.9 0 0 281.92 391.72
  C 293.09 412.63 311.42 427.10 334.15 432.88
  C 376.41 443.62 434.55 431.02 436.21 376.80
  Q 436.54 366.10 434.21 356.33
  C 426.72 325.02 394.52 311.71 367.80 300.64
  Q 358.72 296.87 350.82 292.35
  Q 341.57 287.04 339.50 278.84
  C 336.40 266.58 343.31 255.97 355.79 254.21
  C 371.35 252.03 381.23 259.67 388.44 272.45
  A 0.44 0.44 0.0 0 0 389.07 272.61
  L 422.45 251.17
  A 1.01 1.00 -31.4 0 0 422.78 249.82
  C 413.49 233.55 399.83 221.68 381.35 217.39
  Q 367.69 214.22 352.60 215.43
  C 330.43 217.21 310.44 228.04 300.63 248.21
  C 294.62 260.59 293.77 274.95 296.24 288.32
  C 302.71 323.30 335.44 335.54 364.51 347.84"
/>
<path stroke="#928740" vector-effect="non-scaling-stroke" d="
  M 215.23 433.27
  C 244.69 424.88 257.40 400.07 257.45 371.11
  Q 257.53 327.29 257.49 218.23
  Q 257.49 217.69 256.94 217.69
  L 213.96 217.63
  A 0.99 0.99 0.0 0 0 212.97 218.62
  Q 213.05 291.05 212.97 370.45
  C 212.95 385.31 207.73 396.07 191.24 396.70
  C 174.92 397.34 168.04 387.27 161.00 374.52
  A 0.74 0.74 0.0 0 0 159.97 374.25
  L 124.96 395.45
  A 0.80 0.79 -28.9 0 0 124.66 396.48
  Q 143.10 433.36 184.91 436.24
  Q 200.95 437.34 215.23 433.27"
/>
</g>
<path fill="#f0db4e" d="
  M 0.00 0.00
  L 474.00 0.00
  L 474.00 474.00
  L 0.00 474.00
  L 0.00 0.00
  Z
  M 364.51 347.84
  Q 373.08 351.46 380.75 356.19
  C 386.79 359.93 391.17 365.64 391.71 373.08
  C 392.99 390.80 375.56 397.17 361.13 397.05
  C 341.48 396.88 327.93 386.72 318.21 370.64
  A 0.72 0.71 59.0 0 0 317.24 370.39
  L 282.23 390.67
  A 0.79 0.78 -28.9 0 0 281.92 391.72
  C 293.09 412.63 311.42 427.10 334.15 432.88
  C 376.41 443.62 434.55 431.02 436.21 376.80
  Q 436.54 366.10 434.21 356.33
  C 426.72 325.02 394.52 311.71 367.80 300.64
  Q 358.72 296.87 350.82 292.35
  Q 341.57 287.04 339.50 278.84
  C 336.40 266.58 343.31 255.97 355.79 254.21
  C 371.35 252.03 381.23 259.67 388.44 272.45
  A 0.44 0.44 0.0 0 0 389.07 272.61
  L 422.45 251.17
  A 1.01 1.00 -31.4 0 0 422.78 249.82
  C 413.49 233.55 399.83 221.68 381.35 217.39
  Q 367.69 214.22 352.60 215.43
  C 330.43 217.21 310.44 228.04 300.63 248.21
  C 294.62 260.59 293.77 274.95 296.24 288.32
  C 302.71 323.30 335.44 335.54 364.51 347.84
  Z
  M 215.23 433.27
  C 244.69 424.88 257.40 400.07 257.45 371.11
  Q 257.53 327.29 257.49 218.23
  Q 257.49 217.69 256.94 217.69
  L 213.96 217.63
  A 0.99 0.99 0.0 0 0 212.97 218.62
  Q 213.05 291.05 212.97 370.45
  C 212.95 385.31 207.73 396.07 191.24 396.70
  C 174.92 397.34 168.04 387.27 161.00 374.52
  A 0.74 0.74 0.0 0 0 159.97 374.25
  L 124.96 395.45
  A 0.80 0.79 -28.9 0 0 124.66 396.48
  Q 143.10 433.36 184.91 436.24
  Q 200.95 437.34 215.23 433.27
  Z"
/>
<path fill="#333331" d="
  M 364.51 347.84
  C 335.44 335.54 302.71 323.30 296.24 288.32
  C 293.77 274.95 294.62 260.59 300.63 248.21
  C 310.44 228.04 330.43 217.21 352.60 215.43
  Q 367.69 214.22 381.35 217.39
  C 399.83 221.68 413.49 233.55 422.78 249.82
  A 1.01 1.00 -31.4 0 1 422.45 251.17
  L 389.07 272.61
  A 0.44 0.44 0.0 0 1 388.44 272.45
  C 381.23 259.67 371.35 252.03 355.79 254.21
  C 343.31 255.97 336.40 266.58 339.50 278.84
  Q 341.57 287.04 350.82 292.35
  Q 358.72 296.87 367.80 300.64
  C 394.52 311.71 426.72 325.02 434.21 356.33
  Q 436.54 366.10 436.21 376.80
  C 434.55 431.02 376.41 443.62 334.15 432.88
  C 311.42 427.10 293.09 412.63 281.92 391.72
  A 0.79 0.78 -28.9 0 1 282.23 390.67
  L 317.24 370.39
  A 0.72 0.71 59.0 0 1 318.21 370.64
  C 327.93 386.72 341.48 396.88 361.13 397.05
  C 375.56 397.17 392.99 390.80 391.71 373.08
  C 391.17 365.64 386.79 359.93 380.75 356.19
  Q 373.08 351.46 364.51 347.84
  Z"
/>
<path fill="#333331" d="
  M 257.45 371.11
  C 257.40 400.07 244.69 424.88 215.23 433.27
  Q 200.95 437.34 184.91 436.24
  Q 143.10 433.36 124.66 396.48
  A 0.80 0.79 -28.9 0 1 124.96 395.45
  L 159.97 374.25
  A 0.74 0.74 0.0 0 1 161.00 374.52
  C 168.04 387.27 174.92 397.34 191.24 396.70
  C 207.73 396.07 212.95 385.31 212.97 370.45
  Q 213.05 291.05 212.97 218.62
  A 0.99 0.99 0.0 0 1 213.96 217.63
  L 256.94 217.69
  Q 257.49 217.69 257.49 218.23
  Q 257.53 327.29 257.45 371.11
  Z"
/>
</svg>
