<?xml version="1.0" encoding="UTF-8" standalone="no"?>
<!DOCTYPE svg PUBLIC "-//W3C//DTD SVG 1.1//EN" "http://www.w3.org/Graphics/SVG/1.1/DTD/svg11.dtd">
<svg xmlns="http://www.w3.org/2000/svg" version="1.1" viewBox="0.00 0.00 474.00 474.00">
<g stroke-width="5.00" fill="none" stroke-linecap="butt">
<path stroke="#8f8f8f" vector-effect="non-scaling-stroke" d="
  M 244.41 126.97
  A 0.16 0.15 8.6 0 0 244.63 126.81
  C 243.80 121.49 244.81 115.74 248.36 111.70
  C 253.09 106.35 258.72 110.25 260.72 115.52
  C 262.65 120.61 263.01 129.43 257.95 133.11
  Q 257.26 133.62 258.06 133.94
  L 267.10 137.50
  Q 267.72 137.74 268.08 137.18
  Q 277.30 122.97 271.15 107.09
  C 265.24 91.88 246.92 88.73 238.17 103.68
  Q 233.19 112.19 234.33 122.95
  A 1.01 1.01 0.0 0 0 235.13 123.83
  Q 239.56 124.73 244.41 126.97"
/>
<path stroke="#8f8f8f" vector-effect="non-scaling-stroke" d="
  M 203.26 133.48
  C 198.86 129.30 198.50 121.47 200.37 116.21
  C 202.26 110.94 207.39 110.99 209.93 115.73
  Q 212.76 121.01 212.11 127.04
  A 0.19 0.19 0.0 0 0 212.39 127.22
  Q 215.95 125.02 219.63 123.82
  A 0.78 0.77 -8.3 0 0 220.16 123.12
  C 220.47 114.63 218.35 105.13 211.58 99.98
  C 204.53 94.62 197.06 99.43 194.07 106.33
  C 189.77 116.25 191.00 129.18 197.97 137.39
  Q 198.80 138.38 199.81 137.57
  L 203.20 134.89
  Q 204.04 134.22 203.26 133.48"
/>
<path stroke="#907610" vector-effect="non-scaling-stroke" d="
  M 252.98 135.16
  C 249.34 133.81 246.21 131.58 242.76 129.71
  C 232.72 124.24 220.47 123.49 211.36 131.47
  Q 202.60 139.14 194.76 144.77
  C 186.00 151.07 194.09 160.66 200.72 164.70
  Q 206.35 168.13 211.13 172.71
  Q 221.01 182.18 235.18 178.21
  C 242.63 176.13 248.36 170.58 255.27 167.96
  Q 260.17 166.11 263.83 163.94
  C 275.19 157.24 278.70 144.27 263.47 138.93
  Q 258.21 137.09 252.98 135.16"
/>
<path stroke="#8f8f8f" vector-effect="non-scaling-stroke" d="
  M 145.40 297.27
  Q 149.89 308.02 158.61 313.65
  C 171.33 321.85 183.35 329.88 192.50 341.98
  C 196.03 346.65 199.92 354.43 197.87 360.30
  C 196.12 365.28 190.50 367.45 185.46 367.44
  A 0.35 0.34 -19.7 0 0 185.19 368.00
  Q 190.38 374.19 194.92 380.85
  C 196.14 382.64 197.76 383.93 199.65 385.03
  C 227.15 400.92 258.69 395.43 284.10 377.62
  Q 284.58 377.28 284.76 376.74
  C 287.70 367.73 289.88 359.53 290.20 350.81
  Q 290.53 341.68 291.71 332.33
  C 293.07 321.57 296.42 310.45 306.01 304.66
  C 307.13 303.98 308.37 303.54 309.49 302.88
  Q 309.94 302.61 309.99 302.09
  C 312.01 278.55 341.24 292.93 351.11 299.85
  C 355.46 302.89 358.33 307.18 357.06 312.71
  Q 356.87 313.54 357.73 313.53
  L 359.48 313.50
  Q 360.21 313.48 360.39 312.77
  C 362.35 304.60 357.83 298.73 351.66 294.58
  Q 345.13 290.20 337.00 286.46"
/>
<path stroke="#8f8f8f" vector-effect="non-scaling-stroke" d="
  M 328.84 283.56
  L 321.02 282.62
  Q 320.53 282.56 320.43 282.08
  C 317.11 265.33 311.32 250.07 303.36 234.81
  Q 284.95 199.53 273.74 159.57
  Q 273.53 158.83 273.05 159.43
  Q 267.50 166.46 257.83 169.87
  C 252.89 171.61 248.76 174.48 244.39 177.13
  C 232.88 184.11 219.43 184.35 209.26 174.74
  Q 203.92 169.69 197.18 165.62
  Q 196.72 165.34 196.68 165.87
  Q 195.45 180.50 190.21 196.03
  C 184.65 212.51 177.39 228.55 169.76 244.61
  C 161.67 261.65 156.36 279.80 155.68 298.39
  Q 155.66 299.02 155.09 298.75
  Q 154.16 298.31 153.19 296.92"
/>
<path stroke="#907610" vector-effect="non-scaling-stroke" d="
  M 307.23 429.40
  C 320.45 430.63 333.59 423.22 342.65 413.80
  C 345.89 410.43 348.79 406.75 352.33 403.66
  C 362.62 394.65 376.39 389.89 388.16 382.98
  Q 391.25 381.16 393.42 378.48
  C 399.31 371.23 389.10 359.79 384.66 354.55
  C 377.53 346.14 379.41 334.19 373.64 325.25
  C 369.42 318.71 362.31 318.10 355.07 318.54
  A 3.39 3.39 0.0 0 0 352.87 319.54
  Q 345.16 327.30 334.41 330.64
  C 318.99 335.43 310.91 322.12 309.75 309.10
  A 0.53 0.53 0.0 0 0 308.96 308.69
  Q 303.03 312.08 300.42 318.45
  C 296.08 329.05 295.63 342.29 294.96 354.05
  C 294.75 357.71 294.26 361.50 293.33 365.07
  Q 290.79 374.83 287.73 384.95
  C 284.77 394.74 282.12 407.65 287.57 416.73
  Q 294.45 428.21 307.23 429.40"
/>
<path stroke="#907610" vector-effect="non-scaling-stroke" d="
  M 86.20 404.74
  Q 92.37 406.99 99.11 407.62
  C 110.54 408.70 123.31 409.77 133.69 414.22
  C 141.12 417.40 147.84 421.03 155.94 423.16
  C 171.75 427.33 193.01 425.94 197.06 406.26
  Q 198.54 399.04 195.36 392.11
  Q 192.25 385.35 188.59 380.53
  Q 181.23 370.84 173.59 361.17
  C 171.24 358.20 168.86 355.05 167.03 351.63
  Q 159.26 337.11 151.94 324.14
  C 145.31 312.37 130.42 302.05 119.30 315.52
  Q 115.88 319.66 112.38 324.60
  C 107.56 331.42 101.51 333.99 93.97 336.34
  C 86.65 338.63 80.73 343.56 80.85 351.72
  Q 80.93 357.48 82.15 364.56
  C 82.85 368.57 83.39 373.43 82.43 377.23
  C 80.26 385.73 73.72 400.18 86.20 404.74"
/>
<path stroke="#907610" vector-effect="non-scaling-stroke" d="
  M 222.5896 132.5716
  A 3.81 1.48 -17.7 0 0 218.5100 132.3201
  A 3.81 1.48 -17.7 0 0 215.3304 134.8884
  A 3.81 1.48 -17.7 0 0 219.4100 135.1399
  A 3.81 1.48 -17.7 0 0 222.5896 132.5716"
/>
<path stroke="#907610" vector-effect="non-scaling-stroke" d="
  M 239.3125 134.9003
  A 3.88 1.48 17.4 0 0 236.0526 132.3277
  A 3.88 1.48 17.4 0 0 231.9075 132.5797
  A 3.88 1.48 17.4 0 0 235.1674 135.1523
  A 3.88 1.48 17.4 0 0 239.3125 134.9003"
/>
<path stroke="#907610" vector-effect="non-scaling-stroke" d="
  M 259.31 149.75
  C 250.92 156.67 240.23 163.20 229.56 165.15
  C 217.02 167.44 205.20 159.56 197.79 149.90
  Q 196.07 147.66 195.80 150.47
  Q 195.65 152.07 196.96 153.40
  C 208.62 165.20 221.24 171.79 237.95 165.17
  Q 253.12 159.16 262.91 149.97
  Q 264.17 148.78 264.56 147.28
  Q 264.72 146.65 263.62 146.25
  A 1.03 1.02 -49.6 0 0 262.77 146.32
  Q 261.22 147.17 260.13 148.84
  A 4.00 3.94 87.5 0 1 259.31 149.75"
/>
</g>
<path fill="#202020" d="
  M 280.56 412.61
  A 2.03 2.02 -7.4 0 0 278.85 411.30
  C 275.23 410.96 271.71 411.09 268.07 410.63
  Q 255.75 409.10 243.55 408.13
  Q 237.18 407.62 225.77 409.33
  Q 217.12 410.62 205.92 412.74
  C 203.44 413.20 200.55 412.40 198.99 415.05
  C 192.22 426.60 179.54 431.00 166.63 429.75
  Q 154.83 428.60 145.44 424.40
  C 134.44 419.49 125.94 415.44 114.73 414.09
  Q 105.19 412.94 96.01 411.64
  Q 91.58 411.01 87.05 409.76
  C 74.20 406.21 72.21 396.54 75.37 384.73
  C 76.24 381.50 77.86 377.38 77.84 374.01
  C 77.81 367.93 76.86 361.64 76.14 355.68
  Q 74.15 339.36 88.94 333.24
  Q 94.48 330.94 99.84 328.77
  Q 104.56 326.86 108.45 321.60
  Q 112.63 315.93 117.21 310.28
  Q 118.04 309.26 117.90 308.07
  C 115.62 288.81 120.88 271.12 129.05 253.67
  Q 139.79 230.76 154.15 211.36
  C 160.64 202.60 168.33 194.22 173.79 185.25
  Q 183.02 170.08 184.85 154.93
  C 185.62 148.56 185.84 142.21 185.52 135.52
  Q 184.89 122.58 184.45 109.46
  C 183.91 93.34 185.94 77.28 193.92 63.88
  C 204.62 45.92 226.61 39.40 247.15 39.90
  C 267.37 40.38 283.47 48.42 293.04 66.87
  C 299.65 79.62 302.04 95.43 302.97 110.04
  Q 303.70 121.35 303.40 132.91
  Q 303.02 147.42 304.00 152.99
  Q 306.25 165.75 313.88 176.64
  C 321.52 187.56 329.70 197.19 337.75 207.33
  C 352.74 226.22 365.20 248.12 370.22 271.57
  C 373.09 285.00 372.26 300.13 368.39 313.61
  A 1.93 1.92 -70.0 0 0 369.45 315.89
  C 384.67 322.79 379.71 340.97 388.91 352.07
  C 393.66 357.79 399.06 363.98 399.75 371.34
  Q 400.40 378.17 396.16 382.32
  Q 392.28 386.11 387.13 388.88
  Q 378.34 393.60 368.94 398.42
  C 364.10 400.91 358.16 404.54 354.22 408.49
  Q 350.72 411.99 347.15 415.88
  C 338.79 424.98 327.27 432.52 314.89 433.86
  Q 292.98 436.22 282.64 417.82
  C 281.69 416.12 281.22 414.39 280.56 412.61
  Z
  M 244.41 126.97
  A 0.16 0.15 8.6 0 0 244.63 126.81
  C 243.80 121.49 244.81 115.74 248.36 111.70
  C 253.09 106.35 258.72 110.25 260.72 115.52
  C 262.65 120.61 263.01 129.43 257.95 133.11
  Q 257.26 133.62 258.06 133.94
  L 267.10 137.50
  Q 267.72 137.74 268.08 137.18
  Q 277.30 122.97 271.15 107.09
  C 265.24 91.88 246.92 88.73 238.17 103.68
  Q 233.19 112.19 234.33 122.95
  A 1.01 1.01 0.0 0 0 235.13 123.83
  Q 239.56 124.73 244.41 126.97
  Z
  M 203.26 133.48
  C 198.86 129.30 198.50 121.47 200.37 116.21
  C 202.26 110.94 207.39 110.99 209.93 115.73
  Q 212.76 121.01 212.11 127.04
  A 0.19 0.19 0.0 0 0 212.39 127.22
  Q 215.95 125.02 219.63 123.82
  A 0.78 0.77 -8.3 0 0 220.16 123.12
  C 220.47 114.63 218.35 105.13 211.58 99.98
  C 204.53 94.62 197.06 99.43 194.07 106.33
  C 189.77 116.25 191.00 129.18 197.97 137.39
  Q 198.80 138.38 199.81 137.57
  L 203.20 134.89
  Q 204.04 134.22 203.26 133.48
  Z
  M 252.98 135.16
  C 249.34 133.81 246.21 131.58 242.76 129.71
  C 232.72 124.24 220.47 123.49 211.36 131.47
  Q 202.60 139.14 194.76 144.77
  C 186.00 151.07 194.09 160.66 200.72 164.70
  Q 206.35 168.13 211.13 172.71
  Q 221.01 182.18 235.18 178.21
  C 242.63 176.13 248.36 170.58 255.27 167.96
  Q 260.17 166.11 263.83 163.94
  C 275.19 157.24 278.70 144.27 263.47 138.93
  Q 258.21 137.09 252.98 135.16
  Z
  M 153.19 296.92
  Q 145.55 282.64 147.77 268.24
  C 150.25 252.23 156.11 240.49 164.22 224.91
  C 164.68 224.05 165.03 222.38 165.32 221.34
  Q 166.05 218.67 163.96 220.48
  C 163.04 221.27 162.43 222.57 161.77 223.57
  Q 151.06 239.78 145.33 256.49
  Q 139.59 273.20 142.98 290.81
  Q 143.27 292.32 144.07 294.07
  Q 144.85 295.75 145.40 297.27
  Q 149.89 308.02 158.61 313.65
  C 171.33 321.85 183.35 329.88 192.50 341.98
  C 196.03 346.65 199.92 354.43 197.87 360.30
  C 196.12 365.28 190.50 367.45 185.46 367.44
  A 0.35 0.34 -19.7 0 0 185.19 368.00
  Q 190.38 374.19 194.92 380.85
  C 196.14 382.64 197.76 383.93 199.65 385.03
  C 227.15 400.92 258.69 395.43 284.10 377.62
  Q 284.58 377.28 284.76 376.74
  C 287.70 367.73 289.88 359.53 290.20 350.81
  Q 290.53 341.68 291.71 332.33
  C 293.07 321.57 296.42 310.45 306.01 304.66
  C 307.13 303.98 308.37 303.54 309.49 302.88
  Q 309.94 302.61 309.99 302.09
  C 312.01 278.55 341.24 292.93 351.11 299.85
  C 355.46 302.89 358.33 307.18 357.06 312.71
  Q 356.87 313.54 357.73 313.53
  L 359.48 313.50
  Q 360.21 313.48 360.39 312.77
  C 362.35 304.60 357.83 298.73 351.66 294.58
  Q 345.13 290.20 337.00 286.46
  Q 339.19 273.93 337.37 261.76
  C 335.31 248.03 328.47 235.41 320.22 224.35
  Q 314.64 216.89 309.23 212.84
  A 1.27 1.26 50.5 0 0 307.94 212.71
  Q 307.26 213.03 307.30 213.57
  Q 307.43 215.20 308.54 216.36
  Q 317.97 226.19 324.81 240.94
  Q 330.16 252.46 330.94 264.76
  Q 331.55 274.30 328.84 283.56
  L 321.02 282.62
  Q 320.53 282.56 320.43 282.08
  C 317.11 265.33 311.32 250.07 303.36 234.81
  Q 284.95 199.53 273.74 159.57
  Q 273.53 158.83 273.05 159.43
  Q 267.50 166.46 257.83 169.87
  C 252.89 171.61 248.76 174.48 244.39 177.13
  C 232.88 184.11 219.43 184.35 209.26 174.74
  Q 203.92 169.69 197.18 165.62
  Q 196.72 165.34 196.68 165.87
  Q 195.45 180.50 190.21 196.03
  C 184.65 212.51 177.39 228.55 169.76 244.61
  C 161.67 261.65 156.36 279.80 155.68 298.39
  Q 155.66 299.02 155.09 298.75
  Q 154.16 298.31 153.19 296.92
  Z
  M 307.23 429.40
  C 320.45 430.63 333.59 423.22 342.65 413.80
  C 345.89 410.43 348.79 406.75 352.33 403.66
  C 362.62 394.65 376.39 389.89 388.16 382.98
  Q 391.25 381.16 393.42 378.48
  C 399.31 371.23 389.10 359.79 384.66 354.55
  C 377.53 346.14 379.41 334.19 373.64 325.25
  C 369.42 318.71 362.31 318.10 355.07 318.54
  A 3.39 3.39 0.0 0 0 352.87 319.54
  Q 345.16 327.30 334.41 330.64
  C 318.99 335.43 310.91 322.12 309.75 309.10
  A 0.53 0.53 0.0 0 0 308.96 308.69
  Q 303.03 312.08 300.42 318.45
  C 296.08 329.05 295.63 342.29 294.96 354.05
  C 294.75 357.71 294.26 361.50 293.33 365.07
  Q 290.79 374.83 287.73 384.95
  C 284.77 394.74 282.12 407.65 287.57 416.73
  Q 294.45 428.21 307.23 429.40
  Z
  M 86.20 404.74
  Q 92.37 406.99 99.11 407.62
  C 110.54 408.70 123.31 409.77 133.69 414.22
  C 141.12 417.40 147.84 421.03 155.94 423.16
  C 171.75 427.33 193.01 425.94 197.06 406.26
  Q 198.54 399.04 195.36 392.11
  Q 192.25 385.35 188.59 380.53
  Q 181.23 370.84 173.59 361.17
  C 171.24 358.20 168.86 355.05 167.03 351.63
  Q 159.26 337.11 151.94 324.14
  C 145.31 312.37 130.42 302.05 119.30 315.52
  Q 115.88 319.66 112.38 324.60
  C 107.56 331.42 101.51 333.99 93.97 336.34
  C 86.65 338.63 80.73 343.56 80.85 351.72
  Q 80.93 357.48 82.15 364.56
  C 82.85 368.57 83.39 373.43 82.43 377.23
  C 80.26 385.73 73.72 400.18 86.20 404.74
  Z"
/>
<path fill="#fefefe" d="
  M 244.41 126.97
  Q 239.56 124.73 235.13 123.83
  A 1.01 1.01 0.0 0 1 234.33 122.95
  Q 233.19 112.19 238.17 103.68
  C 246.92 88.73 265.24 91.88 271.15 107.09
  Q 277.30 122.97 268.08 137.18
  Q 267.72 137.74 267.10 137.50
  L 258.06 133.94
  Q 257.26 133.62 257.95 133.11
  C 263.01 129.43 262.65 120.61 260.72 115.52
  C 258.72 110.25 253.09 106.35 248.36 111.70
  C 244.81 115.74 243.80 121.49 244.63 126.81
  A 0.16 0.15 8.6 0 1 244.41 126.97
  Z"
/>
<path fill="#fefefe" d="
  M 200.37 116.21
  C 198.50 121.47 198.86 129.30 203.26 133.48
  Q 204.04 134.22 203.20 134.89
  L 199.81 137.57
  Q 198.80 138.38 197.97 137.39
  C 191.00 129.18 189.77 116.25 194.07 106.33
  C 197.06 99.43 204.53 94.62 211.58 99.98
  C 218.35 105.13 220.47 114.63 220.16 123.12
  A 0.78 0.77 -8.3 0 1 219.63 123.82
  Q 215.95 125.02 212.39 127.22
  A 0.19 0.19 0.0 0 1 212.11 127.04
  Q 212.76 121.01 209.93 115.73
  C 207.39 110.99 202.26 110.94 200.37 116.21
  Z"
/>
<path fill="#ffcc00" d="
  M 252.98 135.16
  Q 258.21 137.09 263.47 138.93
  C 278.70 144.27 275.19 157.24 263.83 163.94
  Q 260.17 166.11 255.27 167.96
  C 248.36 170.58 242.63 176.13 235.18 178.21
  Q 221.01 182.18 211.13 172.71
  Q 206.35 168.13 200.72 164.70
  C 194.09 160.66 186.00 151.07 194.76 144.77
  Q 202.60 139.14 211.36 131.47
  C 220.47 123.49 232.72 124.24 242.76 129.71
  C 246.21 131.58 249.34 133.81 252.98 135.16
  Z
  M 222.5896 132.5716
  A 3.81 1.48 -17.7 0 0 218.5100 132.3201
  A 3.81 1.48 -17.7 0 0 215.3304 134.8884
  A 3.81 1.48 -17.7 0 0 219.4100 135.1399
  A 3.81 1.48 -17.7 0 0 222.5896 132.5716
  Z
  M 239.3125 134.9003
  A 3.88 1.48 17.4 0 0 236.0526 132.3277
  A 3.88 1.48 17.4 0 0 231.9075 132.5797
  A 3.88 1.48 17.4 0 0 235.1674 135.1523
  A 3.88 1.48 17.4 0 0 239.3125 134.9003
  Z
  M 259.31 149.75
  C 250.92 156.67 240.23 163.20 229.56 165.15
  C 217.02 167.44 205.20 159.56 197.79 149.90
  Q 196.07 147.66 195.80 150.47
  Q 195.65 152.07 196.96 153.40
  C 208.62 165.20 221.24 171.79 237.95 165.17
  Q 253.12 159.16 262.91 149.97
  Q 264.17 148.78 264.56 147.28
  Q 264.72 146.65 263.62 146.25
  A 1.03 1.02 -49.6 0 0 262.77 146.32
  Q 261.22 147.17 260.13 148.84
  A 4.00 3.94 87.5 0 1 259.31 149.75
  Z"
/>
<ellipse fill="#202020" cx="0.00" cy="0.00" transform="translate(218.96,133.73) rotate(-17.7)" rx="3.81" ry="1.48"/>
<ellipse fill="#202020" cx="0.00" cy="0.00" transform="translate(235.61,133.74) rotate(17.4)" rx="3.88" ry="1.48"/>
<path fill="#202020" d="
  M 229.56 165.15
  C 240.23 163.20 250.92 156.67 259.31 149.75
  A 4.00 3.94 87.5 0 0 260.13 148.84
  Q 261.22 147.17 262.77 146.32
  A 1.03 1.02 -49.6 0 1 263.62 146.25
  Q 264.72 146.65 264.56 147.28
  Q 264.17 148.78 262.91 149.97
  Q 253.12 159.16 237.95 165.17
  C 221.24 171.79 208.62 165.20 196.96 153.40
  Q 195.65 152.07 195.80 150.47
  Q 196.07 147.66 197.79 149.90
  C 205.20 159.56 217.02 167.44 229.56 165.15
  Z"
/>
<path fill="#fefefe" d="
  M 328.84 283.56
  Q 332.91 285.93 337.00 286.46
  Q 345.13 290.20 351.66 294.58
  C 357.83 298.73 362.35 304.60 360.39 312.77
  Q 360.21 313.48 359.48 313.50
  L 357.73 313.53
  Q 356.87 313.54 357.06 312.71
  C 358.33 307.18 355.46 302.89 351.11 299.85
  C 341.24 292.93 312.01 278.55 309.99 302.09
  Q 309.94 302.61 309.49 302.88
  C 308.37 303.54 307.13 303.98 306.01 304.66
  C 296.42 310.45 293.07 321.57 291.71 332.33
  Q 290.53 341.68 290.20 350.81
  C 289.88 359.53 287.70 367.73 284.76 376.74
  Q 284.58 377.28 284.10 377.62
  C 258.69 395.43 227.15 400.92 199.65 385.03
  C 197.76 383.93 196.14 382.64 194.92 380.85
  Q 190.38 374.19 185.19 368.00
  A 0.35 0.34 -19.7 0 1 185.46 367.44
  C 190.50 367.45 196.12 365.28 197.87 360.30
  C 199.92 354.43 196.03 346.65 192.50 341.98
  C 183.35 329.88 171.33 321.85 158.61 313.65
  Q 149.89 308.02 145.40 297.27
  Q 150.20 299.90 153.19 296.92
  Q 154.16 298.31 155.09 298.75
  Q 155.66 299.02 155.68 298.39
  C 156.36 279.80 161.67 261.65 169.76 244.61
  C 177.39 228.55 184.65 212.51 190.21 196.03
  Q 195.45 180.50 196.68 165.87
  Q 196.72 165.34 197.18 165.62
  Q 203.92 169.69 209.26 174.74
  C 219.43 184.35 232.88 184.11 244.39 177.13
  C 248.76 174.48 252.89 171.61 257.83 169.87
  Q 267.50 166.46 273.05 159.43
  Q 273.53 158.83 273.74 159.57
  Q 284.95 199.53 303.36 234.81
  C 311.32 250.07 317.11 265.33 320.43 282.08
  Q 320.53 282.56 321.02 282.62
  L 328.84 283.56
  Z"
/>
<path fill="#ffcc00" d="
  M 307.23 429.40
  Q 294.45 428.21 287.57 416.73
  C 282.12 407.65 284.77 394.74 287.73 384.95
  Q 290.79 374.83 293.33 365.07
  C 294.26 361.50 294.75 357.71 294.96 354.05
  C 295.63 342.29 296.08 329.05 300.42 318.45
  Q 303.03 312.08 308.96 308.69
  A 0.53 0.53 0.0 0 1 309.75 309.10
  C 310.91 322.12 318.99 335.43 334.41 330.64
  Q 345.16 327.30 352.87 319.54
  A 3.39 3.39 0.0 0 1 355.07 318.54
  C 362.31 318.10 369.42 318.71 373.64 325.25
  C 379.41 334.19 377.53 346.14 384.66 354.55
  C 389.10 359.79 399.31 371.23 393.42 378.48
  Q 391.25 381.16 388.16 382.98
  C 376.39 389.89 362.62 394.65 352.33 403.66
  C 348.79 406.75 345.89 410.43 342.65 413.80
  C 333.59 423.22 320.45 430.63 307.23 429.40
  Z"
/>
<path fill="#ffcc00" d="
  M 86.20 404.74
  C 73.72 400.18 80.26 385.73 82.43 377.23
  C 83.39 373.43 82.85 368.57 82.15 364.56
  Q 80.93 357.48 80.85 351.72
  C 80.73 343.56 86.65 338.63 93.97 336.34
  C 101.51 333.99 107.56 331.42 112.38 324.60
  Q 115.88 319.66 119.30 315.52
  C 130.42 302.05 145.31 312.37 151.94 324.14
  Q 159.26 337.11 167.03 351.63
  C 168.86 355.05 171.24 358.20 173.59 361.17
  Q 181.23 370.84 188.59 380.53
  Q 192.25 385.35 195.36 392.11
  Q 198.54 399.04 197.06 406.26
  C 193.01 425.94 171.75 427.33 155.94 423.16
  C 147.84 421.03 141.12 417.40 133.69 414.22
  C 123.31 409.77 110.54 408.70 99.11 407.62
  Q 92.37 406.99 86.20 404.74
  Z"
/>
</svg>
