<?xml version="1.0" encoding="UTF-8" standalone="no"?>
<!DOCTYPE svg PUBLIC "-//W3C//DTD SVG 1.1//EN" "http://www.w3.org/Graphics/SVG/1.1/DTD/svg11.dtd">
<svg xmlns="http://www.w3.org/2000/svg" version="1.1" viewBox="0.00 0.00 500.00 500.00">
<g stroke-width="5.00" fill="none" stroke-linecap="butt">
<path stroke="#8f89a0" vector-effect="non-scaling-stroke" d="
  M 374.41 135.04
  Q 284.54 135.00 195.25 134.93
  Q 185.31 134.92 179.35 136.34
  Q 168.17 139.00 158.79 148.48
  C 156.96 150.33 155.97 152.61 154.49 154.63
  C 146.40 165.69 146.70 181.59 152.26 193.54
  C 153.28 195.72 154.89 197.48 156.17 199.47
  C 159.73 205.01 166.90 209.45 172.67 210.88
  Q 192.07 215.69 204.55 200.61
  Q 212.64 190.82 211.88 177.92
  Q 211.84 177.32 211.25 177.33
  L 193.22 177.35
  Q 192.64 177.35 192.47 177.90
  Q 190.28 184.76 184.39 186.37
  C 182.12 186.99 179.34 186.99 177.42 185.44
  Q 169.06 178.69 174.74 168.71
  C 179.18 160.91 187.79 158.84 196.37 158.83
  Q 217.84 158.82 238.77 158.80
  A 0.31 0.30 -90.0 0 1 239.07 159.11
  Q 239.07 246.33 239.07 333.57
  C 239.07 339.71 238.77 347.65 240.11 352.49
  Q 242.02 359.35 246.31 364.19
  Q 258.86 378.38 278.82 376.62"
/>
<path stroke="#844275" vector-effect="non-scaling-stroke" d="
  M 278.82 376.62
  Q 278.89 376.62 279.03 376.78
  Q 279.13 376.90 279.13 377.07
  L 278.99 389.31
  A 0.23 0.22 -7.5 0 0 279.28 389.53
  L 285.73 387.69
  A 0.36 0.36 0.0 0 0 286.00 387.33
  L 286.00 340.03
  Q 286.00 339.66 286.36 339.64
  Q 306.02 338.63 324.90 334.69"
/>
<path stroke="#452b74" vector-effect="non-scaling-stroke" d="
  M 324.90 334.69
  Q 334.46 336.76 334.40 345.16
  C 334.33 353.40 326.66 355.43 320.04 356.40
  Q 314.33 357.24 309.37 357.63
  A 0.43 0.42 87.8 0 0 308.98 358.06
  L 309.06 379.70
  A 0.35 0.34 -10.1 0 0 309.53 380.02
  C 318.90 376.62 326.67 371.31 335.05 365.70
  C 343.75 359.87 350.77 352.69 357.98 345.29
  Q 362.25 340.90 366.73 334.61
  Q 373.33 325.31 377.11 319.10
  Q 383.75 308.19 388.01 293.43"
/>
<path stroke="#503077" vector-effect="non-scaling-stroke" d="
  M 388.01 293.43
  Q 395.99 269.59 394.84 244.23"
/>
<path stroke="#5e3678" vector-effect="non-scaling-stroke" d="
  M 394.84 244.23
  Q 394.36 229.72 389.49 212.26
  Q 383.83 191.96 375.89 178.98
  Q 375.45 178.26 374.85 177.75
  Q 374.28 177.27 373.45 177.27
  Q 329.39 177.21 285.97 177.27"
/>
<path stroke="#844275" vector-effect="non-scaling-stroke" d="
  M 285.97 177.27
  L 279.43 177.28
  A 0.44 0.43 90.0 0 0 279.00 177.72
  L 278.99 352.74
  A 0.68 0.68 0.0 0 1 278.78 353.23
  Q 278.66 353.34 278.52 353.45"
/>
<path stroke="#8f89a0" vector-effect="non-scaling-stroke" d="
  M 278.52 353.45
  Q 267.79 351.30 264.30 342.79
  Q 262.69 338.85 262.69 331.90
  Q 262.80 242.48 262.67 159.21
  Q 262.67 158.82 263.06 158.82
  L 373.96 158.71"
/>
<path stroke="#8f53ae" vector-effect="non-scaling-stroke" d="
  M 394.84 244.23
  Q 394.69 245.29 394.58 246.47
  Q 394.50 247.24 394.18 246.56
  Q 394.13 246.44 393.97 246.39
  Q 393.84 246.35 393.71 246.38
  Q 393.35 246.45 393.42 246.71
  Q 393.58 247.23 393.12 246.94
  Q 392.53 246.56 391.77 246.90
  A 1.66 1.64 -52.5 0 1 390.90 247.02
  Q 387.14 246.52 383.18 246.64
  C 380.90 246.71 378.75 246.26 376.55 245.82
  Q 374.56 245.42 372.35 245.73
  Q 370.18 246.04 368.08 246.36"
/>
<path stroke="#5e3678" vector-effect="non-scaling-stroke" d="
  M 368.08 246.36
  Q 366.02 245.15 363.47 245.56"
/>
<path stroke="#8f53ae" vector-effect="non-scaling-stroke" d="
  M 363.47 245.56
  Q 362.69 245.38 361.71 245.57
  Q 361.20 245.66 361.06 245.16
  Q 360.75 244.11 359.55 243.83
  Q 358.99 243.69 358.47 244.08
  Q 357.84 244.55 357.64 245.24
  Q 357.49 245.76 356.95 245.73
  Q 348.97 245.24 341.16 246.49
  Q 340.03 246.67 338.86 246.57
  Q 337.64 246.46 336.49 246.52
  C 333.79 246.66 331.35 246.44 328.67 246.10
  Q 328.29 246.05 327.95 246.20
  Q 327.50 246.40 327.01 246.34
  Q 323.79 245.91 320.56 245.72
  Q 317.88 245.55 315.62 245.00
  Q 313.00 244.36 310.77 244.91
  Q 310.68 244.94 310.67 244.84
  Q 310.65 244.68 310.53 244.55
  A 0.23 0.22 22.3 0 0 310.14 244.71
  Q 310.15 244.92 309.97 245.04
  Q 309.35 245.46 309.41 244.71
  Q 309.49 243.83 309.03 243.44"
/>
<path stroke="#5e3678" vector-effect="non-scaling-stroke" d="
  M 309.03 243.44
  L 309.14 192.86
  A 1.23 1.23 0.0 0 0 307.92 191.63
  L 286.42 191.46"
/>
<path stroke="#c365ac" vector-effect="non-scaling-stroke" d="
  M 285.97 177.27
  Q 286.28 182.59 285.90 187.98
  C 285.81 189.20 286.34 190.23 286.42 191.46"
/>
<path stroke="#844275" vector-effect="non-scaling-stroke" d="
  M 286.42 191.46
  L 286.19 191.77
  Q 285.99 192.04 285.99 192.38
  L 286.28 276.48"
/>
<path stroke="#b55fab" vector-effect="non-scaling-stroke" d="
  M 286.28 276.48
  Q 285.91 276.83 285.91 277.25
  Q 285.94 280.78 285.95 284.55
  A 0.77 0.76 -2.7 0 0 286.79 285.31
  Q 304.46 283.44 320.58 279.56
  C 323.50 278.86 326.84 279.78 328.21 282.59
  Q 330.01 286.27 327.68 291.51"
/>
<path stroke="#844275" vector-effect="non-scaling-stroke" d="
  M 327.68 291.51
  Q 323.03 294.00 320.51 294.52
  Q 303.56 298.05 286.42 299.34
  A 0.44 0.44 0.0 0 0 286.01 299.78
  L 286.03 316.46"
/>
<path stroke="#aa5aa8" vector-effect="non-scaling-stroke" d="
  M 286.03 316.46
  L 286.07 324.87
  Q 286.07 325.52 286.71 325.47
  Q 302.19 324.32 320.21 321.13
  C 329.62 319.46 331.77 329.75 324.90 334.69"
/>
<path stroke="#f4b8d4" vector-effect="non-scaling-stroke" d="
  M 278.52 353.45
  L 278.82 376.62"
/>
<path stroke="#503077" vector-effect="non-scaling-stroke" d="
  M 363.47 245.56
  Q 357.99 247.44 358.64 252.54
  C 359.67 260.69 371.64 259.47 370.86 251.16
  Q 370.58 248.22 368.08 246.36"
/>
<path stroke="#7648aa" vector-effect="non-scaling-stroke" d="
  M 388.01 293.43
  Q 384.31 293.03 381.01 292.21
  C 380.18 292.01 379.77 292.20 379.00 292.43
  Q 378.50 292.57 378.00 292.47
  Q 373.65 291.60 368.94 292.75
  Q 368.53 292.85 368.13 292.72
  C 366.89 292.33 365.74 292.93 364.48 292.87
  Q 362.76 292.79 361.21 292.44
  A 1.17 1.17 0.0 0 0 360.27 292.62
  Q 358.75 293.66 358.57 291.81"
/>
<path stroke="#503077" vector-effect="non-scaling-stroke" d="
  M 358.57 291.81
  C 358.39 286.75 355.58 282.60 350.73 281.16
  Q 348.12 280.39 345.62 279.71
  A 1.25 1.24 -76.9 0 0 344.08 280.67
  C 342.83 287.05 333.26 290.39 327.68 291.51"
/>
<path stroke="#503077" vector-effect="non-scaling-stroke" d="
  M 309.03 243.44
  L 309.07 270.96
  Q 309.07 271.79 308.26 271.99
  Q 298.11 274.49 287.50 275.71
  Q 286.78 275.79 286.28 276.48"
/>
<path stroke="#452b74" vector-effect="non-scaling-stroke" d="
  M 358.57 291.81
  Q 358.18 298.66 352.75 301.80
  C 347.60 304.78 340.40 307.55 334.13 309.36
  Q 310.68 316.14 286.03 316.46"
/>
<path stroke="#844275" vector-effect="non-scaling-stroke" d="
  M 301.61 115.23
  Q 296.90 114.00 290.47 112.05
  Q 259.96 102.79 228.71 107.96
  C 218.35 109.67 208.87 112.59 198.95 115.62
  Q 196.68 116.31 199.05 116.31
  L 301.48 116.26
  Q 305.57 116.26 301.61 115.23"
/>
<path stroke="#503077" vector-effect="non-scaling-stroke" d="
  M 106.87 252.52
  Q 107.05 267.27 110.46 280.97
  Q 112.69 289.90 115.27 298.74
  Q 115.96 301.09 117.15 303.31"
/>
<path stroke="#452b74" vector-effect="non-scaling-stroke" d="
  M 117.15 303.31
  Q 121.73 314.43 125.55 320.25
  C 130.53 327.86 136.07 337.32 142.56 344.09
  Q 149.20 351.02 156.17 357.66
  C 162.57 363.75 170.92 368.58 178.36 373.29
  Q 185.55 377.85 199.42 383.44
  Q 202.53 384.70 206.18 385.61
  C 212.08 387.07 218.01 388.97 223.80 389.98
  Q 237.53 392.39 250.31 392.21
  Q 252.56 392.18 250.46 391.38
  C 235.70 385.75 225.03 372.17 221.95 356.89
  C 220.85 351.43 220.90 345.39 220.76 339.63"
/>
<path stroke="#844275" vector-effect="non-scaling-stroke" d="
  M 220.76 339.63
  L 220.83 325.80"
/>
<path stroke="#452b74" vector-effect="non-scaling-stroke" d="
  M 220.83 325.80
  L 220.83 299.09"
/>
<path stroke="#844275" vector-effect="non-scaling-stroke" d="
  M 220.83 299.09
  L 220.91 285.72"
/>
<path stroke="#503077" vector-effect="non-scaling-stroke" d="
  M 220.91 285.72
  L 220.88 244.20"
/>
<path stroke="#5e3678" vector-effect="non-scaling-stroke" d="
  M 220.88 244.20
  L 220.81 212.90
  Q 220.81 211.17 219.93 212.66
  C 218.58 214.93 217.21 216.77 215.06 218.43
  C 212.23 220.61 209.57 222.95 206.49 224.71
  Q 184.47 237.32 159.76 227.05
  Q 156.87 225.85 151.17 221.75
  Q 141.55 214.85 136.81 206.01
  C 135.62 203.78 134.85 201.44 133.79 199.14
  C 130.04 191.02 129.08 181.37 130.06 172.39
  Q 130.29 170.24 129.17 172.09
  Q 122.65 182.85 118.11 193.09
  Q 115.41 199.15 113.22 207.06
  Q 110.90 215.44 109.54 221.75
  Q 106.37 236.43 106.87 252.52"
/>
<path stroke="#8f53ae" vector-effect="non-scaling-stroke" d="
  M 220.88 244.20
  L 220.51 247.35
  Q 220.43 248.07 219.95 247.51
  Q 219.69 247.21 219.15 247.23
  Q 218.60 247.26 218.59 247.82
  Q 218.59 247.95 218.63 248.09
  Q 218.82 248.72 218.16 248.70
  Q 215.92 248.63 213.89 249.29
  Q 212.08 249.87 209.92 249.87
  Q 201.35 249.83 192.51 250.20
  Q 191.24 250.26 187.29 250.88
  Q 187.13 250.91 187.02 250.79
  C 186.93 250.68 186.72 250.59 186.58 250.61
  Q 179.55 251.42 172.25 251.79
  Q 171.50 251.83 169.07 251.53
  Q 167.44 251.34 165.88 251.45
  Q 161.94 251.72 158.17 251.50
  Q 156.67 251.42 155.34 251.70
  Q 153.85 252.02 152.58 251.74
  Q 150.71 251.33 148.74 251.40
  Q 146.43 251.48 144.53 250.83
  Q 144.02 250.66 143.75 251.12
  Q 143.60 251.38 143.50 251.67
  Q 143.31 252.23 142.90 251.81
  L 142.60 251.50"
/>
<path stroke="#5e3678" vector-effect="non-scaling-stroke" d="
  M 142.60 251.50
  Q 140.68 243.33 133.25 246.24
  Q 130.96 247.13 130.32 250.17"
/>
<path stroke="#8f53ae" vector-effect="non-scaling-stroke" d="
  M 130.32 250.17
  Q 126.33 251.25 125.25 251.31
  Q 123.02 251.44 116.75 251.18
  Q 114.09 251.08 111.78 251.50
  Q 109.21 251.97 106.87 252.52"
/>
<path stroke="#b55fab" vector-effect="non-scaling-stroke" d="
  M 220.91 285.72
  Q 201.70 284.01 182.81 280.09
  Q 178.66 279.23 176.87 279.84
  C 172.84 281.22 171.76 284.60 172.99 288.37
  Q 173.46 289.83 173.84 291.30"
/>
<path stroke="#503077" vector-effect="non-scaling-stroke" d="
  M 173.84 291.30
  C 167.17 289.89 159.65 286.93 156.81 280.29
  Q 156.50 279.56 155.75 279.80
  C 152.59 280.82 149.03 281.25 146.60 283.63
  Q 140.58 289.51 145.08 298.18"
/>
<path stroke="#7648aa" vector-effect="non-scaling-stroke" d="
  M 145.08 298.18
  Q 143.25 299.76 141.29 299.67
  Q 136.74 299.46 134.86 301.30
  A 1.61 1.60 -69.6 0 1 133.88 301.75
  L 117.15 303.31"
/>
<path stroke="#503077" vector-effect="non-scaling-stroke" d="
  M 130.32 250.17
  C 128.67 260.68 142.82 260.62 142.60 251.50"
/>
<path stroke="#aa5aa8" vector-effect="non-scaling-stroke" d="
  M 220.83 299.09
  L 215.87 299.22"
/>
<path stroke="#844275" vector-effect="non-scaling-stroke" d="
  M 215.87 299.22
  Q 197.84 297.93 181.50 294.48
  Q 177.55 293.65 173.84 291.30"
/>
<path stroke="#aa5aa8" vector-effect="non-scaling-stroke" d="
  M 220.83 325.80
  Q 200.03 324.35 179.75 321.02
  Q 177.63 320.67 175.50 321.86
  Q 173.64 322.90 173.02 325.02
  Q 171.37 330.67 176.95 334.75"
/>
<path stroke="#452b74" vector-effect="non-scaling-stroke" d="
  M 176.95 334.75
  Q 169.93 336.11 167.92 341.57
  C 165.82 347.27 169.06 352.82 174.63 354.73
  Q 178.77 356.15 184.72 356.79
  Q 200.59 358.49 215.05 359.29
  A 0.57 0.57 0.0 0 0 215.65 358.73
  L 215.77 339.66"
/>
<path stroke="#aa5aa8" vector-effect="non-scaling-stroke" d="
  M 215.77 339.66
  L 220.76 339.63"
/>
<path stroke="#452b74" vector-effect="non-scaling-stroke" d="
  M 215.87 299.22
  L 215.67 315.47
  A 0.88 0.88 0.0 0 1 214.79 316.33
  C 192.73 316.20 169.47 311.96 150.08 302.43
  Q 147.53 301.18 145.08 298.18"
/>
<path stroke="#844275" vector-effect="non-scaling-stroke" d="
  M 215.77 339.66
  Q 208.78 338.97 201.25 338.49
  Q 193.48 337.99 176.95 334.75"
/>
</g>
<path fill="#1f1341" d="
  M 374.41 135.04
  Q 284.54 135.00 195.25 134.93
  Q 185.31 134.92 179.35 136.34
  Q 168.17 139.00 158.79 148.48
  C 156.96 150.33 155.97 152.61 154.49 154.63
  C 146.40 165.69 146.70 181.59 152.26 193.54
  C 153.28 195.72 154.89 197.48 156.17 199.47
  C 159.73 205.01 166.90 209.45 172.67 210.88
  Q 192.07 215.69 204.55 200.61
  Q 212.64 190.82 211.88 177.92
  Q 211.84 177.32 211.25 177.33
  L 193.22 177.35
  Q 192.64 177.35 192.47 177.90
  Q 190.28 184.76 184.39 186.37
  C 182.12 186.99 179.34 186.99 177.42 185.44
  Q 169.06 178.69 174.74 168.71
  C 179.18 160.91 187.79 158.84 196.37 158.83
  Q 217.84 158.82 238.77 158.80
  A 0.31 0.30 -90.0 0 1 239.07 159.11
  Q 239.07 246.33 239.07 333.57
  C 239.07 339.71 238.77 347.65 240.11 352.49
  Q 242.02 359.35 246.31 364.19
  Q 258.86 378.38 278.82 376.62
  Q 278.89 376.62 279.03 376.78
  Q 279.13 376.90 279.13 377.07
  L 278.99 389.31
  A 0.23 0.22 -7.5 0 0 279.28 389.53
  L 285.73 387.69
  A 0.36 0.36 0.0 0 0 286.00 387.33
  L 286.00 340.03
  Q 286.00 339.66 286.36 339.64
  Q 306.02 338.63 324.90 334.69
  Q 334.46 336.76 334.40 345.16
  C 334.33 353.40 326.66 355.43 320.04 356.40
  Q 314.33 357.24 309.37 357.63
  A 0.43 0.42 87.8 0 0 308.98 358.06
  L 309.06 379.70
  A 0.35 0.34 -10.1 0 0 309.53 380.02
  C 318.90 376.62 326.67 371.31 335.05 365.70
  C 343.75 359.87 350.77 352.69 357.98 345.29
  Q 362.25 340.90 366.73 334.61
  Q 373.33 325.31 377.11 319.10
  Q 383.75 308.19 388.01 293.43
  Q 395.99 269.59 394.84 244.23
  Q 394.36 229.72 389.49 212.26
  Q 383.83 191.96 375.89 178.98
  Q 375.45 178.26 374.85 177.75
  Q 374.28 177.27 373.45 177.27
  Q 329.39 177.21 285.97 177.27
  L 279.43 177.28
  A 0.44 0.43 90.0 0 0 279.00 177.72
  L 278.99 352.74
  A 0.68 0.68 0.0 0 1 278.78 353.23
  Q 278.66 353.34 278.52 353.45
  Q 267.79 351.30 264.30 342.79
  Q 262.69 338.85 262.69 331.90
  Q 262.80 242.48 262.67 159.21
  Q 262.67 158.82 263.06 158.82
  L 373.96 158.71
  Q 374.05 158.87 374.18 159.00
  Q 374.35 159.15 374.58 159.15
  L 383.58 159.30
  Q 384.19 159.31 384.53 159.81
  Q 396.29 177.06 403.58 196.86
  C 406.07 203.64 407.66 210.97 409.19 218.07
  Q 415.30 246.54 410.34 275.22
  Q 409.05 282.68 407.01 291.31
  Q 405.04 299.65 402.12 307.09
  Q 396.71 320.85 389.01 333.02
  C 386.90 336.37 384.96 339.95 382.56 343.18
  Q 369.80 360.31 355.53 372.24
  Q 350.74 376.25 345.43 380.20
  Q 341.07 383.45 336.76 386.01
  Q 332.33 388.64 327.88 391.09
  Q 309.96 400.95 292.24 405.22
  Q 265.11 411.76 240.14 410.10
  Q 217.86 408.62 199.75 402.66
  C 188.70 399.03 177.18 393.56 166.57 387.12
  Q 158.40 382.16 152.79 377.92
  Q 136.19 365.38 123.85 349.41
  C 121.12 345.88 118.29 342.47 115.91 338.71
  Q 108.89 327.60 104.55 318.69
  C 99.96 309.28 95.55 298.31 93.54 287.64
  C 92.73 283.36 91.71 279.24 91.06 274.90
  Q 87.42 250.70 90.87 225.97
  Q 91.51 221.38 92.52 217.01
  C 93.42 213.16 93.95 209.12 95.07 205.35
  Q 99.54 190.38 104.69 180.24
  Q 109.07 171.63 116.28 159.84
  C 117.98 157.08 120.03 154.62 121.95 151.99
  Q 136.07 132.62 154.89 118.69
  C 159.96 114.93 165.54 111.86 170.96 108.81
  Q 183.57 101.72 199.39 96.25
  Q 204.26 94.56 210.63 93.17
  C 215.64 92.07 220.80 90.78 225.94 90.00
  Q 252.26 86.01 277.20 90.17
  Q 284.13 91.33 292.91 93.48
  Q 300.46 95.34 308.00 98.36
  Q 325.28 105.30 339.94 114.46
  C 341.87 115.67 344.02 116.77 346.36 116.75
  Q 359.08 116.64 372.62 116.53
  A 1.63 1.63 0.0 0 1 374.26 118.14
  L 374.41 135.04
  Z
  M 301.61 115.23
  Q 296.90 114.00 290.47 112.05
  Q 259.96 102.79 228.71 107.96
  C 218.35 109.67 208.87 112.59 198.95 115.62
  Q 196.68 116.31 199.05 116.31
  L 301.48 116.26
  Q 305.57 116.26 301.61 115.23
  Z
  M 106.87 252.52
  Q 107.05 267.27 110.46 280.97
  Q 112.69 289.90 115.27 298.74
  Q 115.96 301.09 117.15 303.31
  Q 121.73 314.43 125.55 320.25
  C 130.53 327.86 136.07 337.32 142.56 344.09
  Q 149.20 351.02 156.17 357.66
  C 162.57 363.75 170.92 368.58 178.36 373.29
  Q 185.55 377.85 199.42 383.44
  Q 202.53 384.70 206.18 385.61
  C 212.08 387.07 218.01 388.97 223.80 389.98
  Q 237.53 392.39 250.31 392.21
  Q 252.56 392.18 250.46 391.38
  C 235.70 385.75 225.03 372.17 221.95 356.89
  C 220.85 351.43 220.90 345.39 220.76 339.63
  L 220.83 325.80
  L 220.83 299.09
  L 220.91 285.72
  L 220.88 244.20
  L 220.81 212.90
  Q 220.81 211.17 219.93 212.66
  C 218.58 214.93 217.21 216.77 215.06 218.43
  C 212.23 220.61 209.57 222.95 206.49 224.71
  Q 184.47 237.32 159.76 227.05
  Q 156.87 225.85 151.17 221.75
  Q 141.55 214.85 136.81 206.01
  C 135.62 203.78 134.85 201.44 133.79 199.14
  C 130.04 191.02 129.08 181.37 130.06 172.39
  Q 130.29 170.24 129.17 172.09
  Q 122.65 182.85 118.11 193.09
  Q 115.41 199.15 113.22 207.06
  Q 110.90 215.44 109.54 221.75
  Q 106.37 236.43 106.87 252.52
  Z"
/>
<path fill="#e971a9" d="
  M 301.61 115.23
  Q 305.57 116.26 301.48 116.26
  L 199.05 116.31
  Q 196.68 116.31 198.95 115.62
  C 208.87 112.59 218.35 109.67 228.71 107.96
  Q 259.96 102.79 290.47 112.05
  Q 296.90 114.00 301.61 115.23
  Z"
/>
<path fill="#ffffff" d="
  M 374.41 135.04
  Q 373.83 145.94 374.49 156.75
  Q 374.56 157.78 373.96 158.71
  L 263.06 158.82
  Q 262.67 158.82 262.67 159.21
  Q 262.80 242.48 262.69 331.90
  Q 262.69 338.85 264.30 342.79
  Q 267.79 351.30 278.52 353.45
  L 278.82 376.62
  Q 258.86 378.38 246.31 364.19
  Q 242.02 359.35 240.11 352.49
  C 238.77 347.65 239.07 339.71 239.07 333.57
  Q 239.07 246.33 239.07 159.11
  A 0.31 0.30 90.0 0 0 238.77 158.80
  Q 217.84 158.82 196.37 158.83
  C 187.79 158.84 179.18 160.91 174.74 168.71
  Q 169.06 178.69 177.42 185.44
  C 179.34 186.99 182.12 186.99 184.39 186.37
  Q 190.28 184.76 192.47 177.90
  Q 192.64 177.35 193.22 177.35
  L 211.25 177.33
  Q 211.84 177.32 211.88 177.92
  Q 212.64 190.82 204.55 200.61
  Q 192.07 215.69 172.67 210.88
  C 166.90 209.45 159.73 205.01 156.17 199.47
  C 154.89 197.48 153.28 195.72 152.26 193.54
  C 146.70 181.59 146.40 165.69 154.49 154.63
  C 155.97 152.61 156.96 150.33 158.79 148.48
  Q 168.17 139.00 179.35 136.34
  Q 185.31 134.92 195.25 134.93
  Q 284.54 135.00 374.41 135.04
  Z"
/>
<path fill="#9d58af" d="
  M 220.88 244.20
  L 220.51 247.35
  Q 220.43 248.07 219.95 247.51
  Q 219.69 247.21 219.15 247.23
  Q 218.60 247.26 218.59 247.82
  Q 218.59 247.95 218.63 248.09
  Q 218.82 248.72 218.16 248.70
  Q 215.92 248.63 213.89 249.29
  Q 212.08 249.87 209.92 249.87
  Q 201.35 249.83 192.51 250.20
  Q 191.24 250.26 187.29 250.88
  Q 187.13 250.91 187.02 250.79
  C 186.93 250.68 186.72 250.59 186.58 250.61
  Q 179.55 251.42 172.25 251.79
  Q 171.50 251.83 169.07 251.53
  Q 167.44 251.34 165.88 251.45
  Q 161.94 251.72 158.17 251.50
  Q 156.67 251.42 155.34 251.70
  Q 153.85 252.02 152.58 251.74
  Q 150.71 251.33 148.74 251.40
  Q 146.43 251.48 144.53 250.83
  Q 144.02 250.66 143.75 251.12
  Q 143.60 251.38 143.50 251.67
  Q 143.31 252.23 142.90 251.81
  L 142.60 251.50
  Q 140.68 243.33 133.25 246.24
  Q 130.96 247.13 130.32 250.17
  Q 126.33 251.25 125.25 251.31
  Q 123.02 251.44 116.75 251.18
  Q 114.09 251.08 111.78 251.50
  Q 109.21 251.97 106.87 252.52
  Q 106.37 236.43 109.54 221.75
  Q 110.90 215.44 113.22 207.06
  Q 115.41 199.15 118.11 193.09
  Q 122.65 182.85 129.17 172.09
  Q 130.29 170.24 130.06 172.39
  C 129.08 181.37 130.04 191.02 133.79 199.14
  C 134.85 201.44 135.62 203.78 136.81 206.01
  Q 141.55 214.85 151.17 221.75
  Q 156.87 225.85 159.76 227.05
  Q 184.47 237.32 206.49 224.71
  C 209.57 222.95 212.23 220.61 215.06 218.43
  C 217.21 216.77 218.58 214.93 219.93 212.66
  Q 220.81 211.17 220.81 212.90
  L 220.88 244.20
  Z"
/>
<path fill="#e971a9" d="
  M 285.97 177.27
  Q 286.28 182.59 285.90 187.98
  C 285.81 189.20 286.34 190.23 286.42 191.46
  L 286.19 191.77
  Q 285.99 192.04 285.99 192.38
  L 286.28 276.48
  Q 285.91 276.83 285.91 277.25
  Q 285.94 280.78 285.95 284.55
  A 0.77 0.76 -2.7 0 0 286.79 285.31
  Q 304.46 283.44 320.58 279.56
  C 323.50 278.86 326.84 279.78 328.21 282.59
  Q 330.01 286.27 327.68 291.51
  Q 323.03 294.00 320.51 294.52
  Q 303.56 298.05 286.42 299.34
  A 0.44 0.44 0.0 0 0 286.01 299.78
  L 286.03 316.46
  L 286.07 324.87
  Q 286.07 325.52 286.71 325.47
  Q 302.19 324.32 320.21 321.13
  C 329.62 319.46 331.77 329.75 324.90 334.69
  Q 306.02 338.63 286.36 339.64
  Q 286.00 339.66 286.00 340.03
  L 286.00 387.33
  A 0.36 0.36 0.0 0 1 285.73 387.69
  L 279.28 389.53
  A 0.23 0.22 -7.5 0 1 278.99 389.31
  L 279.13 377.07
  Q 279.13 376.90 279.03 376.78
  Q 278.89 376.62 278.82 376.62
  L 278.52 353.45
  Q 278.66 353.34 278.78 353.23
  A 0.68 0.68 0.0 0 0 278.99 352.74
  L 279.00 177.72
  A 0.44 0.43 90.0 0 1 279.43 177.28
  L 285.97 177.27
  Z"
/>
<path fill="#9d58af" d="
  M 285.97 177.27
  Q 329.39 177.21 373.45 177.27
  Q 374.28 177.27 374.85 177.75
  Q 375.45 178.26 375.89 178.98
  Q 383.83 191.96 389.49 212.26
  Q 394.36 229.72 394.84 244.23
  Q 394.69 245.29 394.58 246.47
  Q 394.50 247.24 394.18 246.56
  Q 394.13 246.44 393.97 246.39
  Q 393.84 246.35 393.71 246.38
  Q 393.35 246.45 393.42 246.71
  Q 393.58 247.23 393.12 246.94
  Q 392.53 246.56 391.77 246.90
  A 1.66 1.64 -52.5 0 1 390.90 247.02
  Q 387.14 246.52 383.18 246.64
  C 380.90 246.71 378.75 246.26 376.55 245.82
  Q 374.56 245.42 372.35 245.73
  Q 370.18 246.04 368.08 246.36
  Q 366.02 245.15 363.47 245.56
  Q 362.69 245.38 361.71 245.57
  Q 361.20 245.66 361.06 245.16
  Q 360.75 244.11 359.55 243.83
  Q 358.99 243.69 358.47 244.08
  Q 357.84 244.55 357.64 245.24
  Q 357.49 245.76 356.95 245.73
  Q 348.97 245.24 341.16 246.49
  Q 340.03 246.67 338.86 246.57
  Q 337.64 246.46 336.49 246.52
  C 333.79 246.66 331.35 246.44 328.67 246.10
  Q 328.29 246.05 327.95 246.20
  Q 327.50 246.40 327.01 246.34
  Q 323.79 245.91 320.56 245.72
  Q 317.88 245.55 315.62 245.00
  Q 313.00 244.36 310.77 244.91
  Q 310.68 244.94 310.67 244.84
  Q 310.65 244.68 310.53 244.55
  A 0.23 0.22 22.3 0 0 310.14 244.71
  Q 310.15 244.92 309.97 245.04
  Q 309.35 245.46 309.41 244.71
  Q 309.49 243.83 309.03 243.44
  L 309.14 192.86
  A 1.23 1.23 0.0 0 0 307.92 191.63
  L 286.42 191.46
  C 286.34 190.23 285.81 189.20 285.90 187.98
  Q 286.28 182.59 285.97 177.27
  Z"
/>
<path fill="#1f1341" d="
  M 286.42 191.46
  L 307.92 191.63
  A 1.23 1.23 0.0 0 1 309.14 192.86
  L 309.03 243.44
  L 309.07 270.96
  Q 309.07 271.79 308.26 271.99
  Q 298.11 274.49 287.50 275.71
  Q 286.78 275.79 286.28 276.48
  L 285.99 192.38
  Q 285.99 192.04 286.19 191.77
  L 286.42 191.46
  Z"
/>
<path fill="#804dac" d="
  M 309.03 243.44
  Q 309.49 243.83 309.41 244.71
  Q 309.35 245.46 309.97 245.04
  Q 310.15 244.92 310.14 244.71
  A 0.23 0.22 22.3 0 1 310.53 244.55
  Q 310.65 244.68 310.67 244.84
  Q 310.68 244.94 310.77 244.91
  Q 313.00 244.36 315.62 245.00
  Q 317.88 245.55 320.56 245.72
  Q 323.79 245.91 327.01 246.34
  Q 327.50 246.40 327.95 246.20
  Q 328.29 246.05 328.67 246.10
  C 331.35 246.44 333.79 246.66 336.49 246.52
  Q 337.64 246.46 338.86 246.57
  Q 340.03 246.67 341.16 246.49
  Q 348.97 245.24 356.95 245.73
  Q 357.49 245.76 357.64 245.24
  Q 357.84 244.55 358.47 244.08
  Q 358.99 243.69 359.55 243.83
  Q 360.75 244.11 361.06 245.16
  Q 361.20 245.66 361.71 245.57
  Q 362.69 245.38 363.47 245.56
  Q 357.99 247.44 358.64 252.54
  C 359.67 260.69 371.64 259.47 370.86 251.16
  Q 370.58 248.22 368.08 246.36
  Q 370.18 246.04 372.35 245.73
  Q 374.56 245.42 376.55 245.82
  C 378.75 246.26 380.90 246.71 383.18 246.64
  Q 387.14 246.52 390.90 247.02
  A 1.66 1.64 -52.5 0 0 391.77 246.90
  Q 392.53 246.56 393.12 246.94
  Q 393.58 247.23 393.42 246.71
  Q 393.35 246.45 393.71 246.38
  Q 393.84 246.35 393.97 246.39
  Q 394.13 246.44 394.18 246.56
  Q 394.50 247.24 394.58 246.47
  Q 394.69 245.29 394.84 244.23
  Q 395.99 269.59 388.01 293.43
  Q 384.31 293.03 381.01 292.21
  C 380.18 292.01 379.77 292.20 379.00 292.43
  Q 378.50 292.57 378.00 292.47
  Q 373.65 291.60 368.94 292.75
  Q 368.53 292.85 368.13 292.72
  C 366.89 292.33 365.74 292.93 364.48 292.87
  Q 362.76 292.79 361.21 292.44
  A 1.17 1.17 0.0 0 0 360.27 292.62
  Q 358.75 293.66 358.57 291.81
  C 358.39 286.75 355.58 282.60 350.73 281.16
  Q 348.12 280.39 345.62 279.71
  A 1.25 1.24 -76.9 0 0 344.08 280.67
  C 342.83 287.05 333.26 290.39 327.68 291.51
  Q 330.01 286.27 328.21 282.59
  C 326.84 279.78 323.50 278.86 320.58 279.56
  Q 304.46 283.44 286.79 285.31
  A 0.77 0.76 -2.7 0 1 285.95 284.55
  Q 285.94 280.78 285.91 277.25
  Q 285.91 276.83 286.28 276.48
  Q 286.78 275.79 287.50 275.71
  Q 298.11 274.49 308.26 271.99
  Q 309.07 271.79 309.07 270.96
  L 309.03 243.44
  Z"
/>
<path fill="#804dac" d="
  M 220.88 244.20
  L 220.91 285.72
  Q 201.70 284.01 182.81 280.09
  Q 178.66 279.23 176.87 279.84
  C 172.84 281.22 171.76 284.60 172.99 288.37
  Q 173.46 289.83 173.84 291.30
  C 167.17 289.89 159.65 286.93 156.81 280.29
  Q 156.50 279.56 155.75 279.80
  C 152.59 280.82 149.03 281.25 146.60 283.63
  Q 140.58 289.51 145.08 298.18
  Q 143.25 299.76 141.29 299.67
  Q 136.74 299.46 134.86 301.30
  A 1.61 1.60 -69.6 0 1 133.88 301.75
  L 117.15 303.31
  Q 115.96 301.09 115.27 298.74
  Q 112.69 289.90 110.46 280.97
  Q 107.05 267.27 106.87 252.52
  Q 109.21 251.97 111.78 251.50
  Q 114.09 251.08 116.75 251.18
  Q 123.02 251.44 125.25 251.31
  Q 126.33 251.25 130.32 250.17
  C 128.67 260.68 142.82 260.62 142.60 251.50
  L 142.90 251.81
  Q 143.31 252.23 143.50 251.67
  Q 143.60 251.38 143.75 251.12
  Q 144.02 250.66 144.53 250.83
  Q 146.43 251.48 148.74 251.40
  Q 150.71 251.33 152.58 251.74
  Q 153.85 252.02 155.34 251.70
  Q 156.67 251.42 158.17 251.50
  Q 161.94 251.72 165.88 251.45
  Q 167.44 251.34 169.07 251.53
  Q 171.50 251.83 172.25 251.79
  Q 179.55 251.42 186.58 250.61
  C 186.72 250.59 186.93 250.68 187.02 250.79
  Q 187.13 250.91 187.29 250.88
  Q 191.24 250.26 192.51 250.20
  Q 201.35 249.83 209.92 249.87
  Q 212.08 249.87 213.89 249.29
  Q 215.92 248.63 218.16 248.70
  Q 218.82 248.72 218.63 248.09
  Q 218.59 247.95 218.59 247.82
  Q 218.60 247.26 219.15 247.23
  Q 219.69 247.21 219.95 247.51
  Q 220.43 248.07 220.51 247.35
  L 220.88 244.20
  Z"
/>
<path fill="#1f1341" d="
  M 142.60 251.50
  C 142.82 260.62 128.67 260.68 130.32 250.17
  Q 130.96 247.13 133.25 246.24
  Q 140.68 243.33 142.60 251.50
  Z"
/>
<path fill="#1f1341" d="
  M 363.47 245.56
  Q 366.02 245.15 368.08 246.36
  Q 370.58 248.22 370.86 251.16
  C 371.64 259.47 359.67 260.69 358.64 252.54
  Q 357.99 247.44 363.47 245.56
  Z"
/>
<path fill="#e971a9" d="
  M 220.91 285.72
  L 220.83 299.09
  L 215.87 299.22
  Q 197.84 297.93 181.50 294.48
  Q 177.55 293.65 173.84 291.30
  Q 173.46 289.83 172.99 288.37
  C 171.76 284.60 172.84 281.22 176.87 279.84
  Q 178.66 279.23 182.81 280.09
  Q 201.70 284.01 220.91 285.72
  Z"
/>
<path fill="#1f1341" d="
  M 173.84 291.30
  Q 177.55 293.65 181.50 294.48
  Q 197.84 297.93 215.87 299.22
  L 215.67 315.47
  A 0.88 0.88 0.0 0 1 214.79 316.33
  C 192.73 316.20 169.47 311.96 150.08 302.43
  Q 147.53 301.18 145.08 298.18
  Q 140.58 289.51 146.60 283.63
  C 149.03 281.25 152.59 280.82 155.75 279.80
  Q 156.50 279.56 156.81 280.29
  C 159.65 286.93 167.17 289.89 173.84 291.30
  Z"
/>
<path fill="#1f1341" d="
  M 358.57 291.81
  Q 358.18 298.66 352.75 301.80
  C 347.60 304.78 340.40 307.55 334.13 309.36
  Q 310.68 316.14 286.03 316.46
  L 286.01 299.78
  A 0.44 0.44 0.0 0 1 286.42 299.34
  Q 303.56 298.05 320.51 294.52
  Q 323.03 294.00 327.68 291.51
  C 333.26 290.39 342.83 287.05 344.08 280.67
  A 1.25 1.24 -76.9 0 1 345.62 279.71
  Q 348.12 280.39 350.73 281.16
  C 355.58 282.60 358.39 286.75 358.57 291.81
  Z"
/>
<path fill="#6b43a7" d="
  M 358.57 291.81
  Q 358.75 293.66 360.27 292.62
  A 1.17 1.17 0.0 0 1 361.21 292.44
  Q 362.76 292.79 364.48 292.87
  C 365.74 292.93 366.89 292.33 368.13 292.72
  Q 368.53 292.85 368.94 292.75
  Q 373.65 291.60 378.00 292.47
  Q 378.50 292.57 379.00 292.43
  C 379.77 292.20 380.18 292.01 381.01 292.21
  Q 384.31 293.03 388.01 293.43
  Q 383.75 308.19 377.11 319.10
  Q 373.33 325.31 366.73 334.61
  Q 362.25 340.90 357.98 345.29
  C 350.77 352.69 343.75 359.87 335.05 365.70
  C 326.67 371.31 318.90 376.62 309.53 380.02
  A 0.35 0.34 -10.1 0 1 309.06 379.70
  L 308.98 358.06
  A 0.43 0.42 87.8 0 1 309.37 357.63
  Q 314.33 357.24 320.04 356.40
  C 326.66 355.43 334.33 353.40 334.40 345.16
  Q 334.46 336.76 324.90 334.69
  C 331.77 329.75 329.62 319.46 320.21 321.13
  Q 302.19 324.32 286.71 325.47
  Q 286.07 325.52 286.07 324.87
  L 286.03 316.46
  Q 310.68 316.14 334.13 309.36
  C 340.40 307.55 347.60 304.78 352.75 301.80
  Q 358.18 298.66 358.57 291.81
  Z"
/>
<path fill="#6b43a7" d="
  M 145.08 298.18
  Q 147.53 301.18 150.08 302.43
  C 169.47 311.96 192.73 316.20 214.79 316.33
  A 0.88 0.88 0.0 0 0 215.67 315.47
  L 215.87 299.22
  L 220.83 299.09
  L 220.83 325.80
  Q 200.03 324.35 179.75 321.02
  Q 177.63 320.67 175.50 321.86
  Q 173.64 322.90 173.02 325.02
  Q 171.37 330.67 176.95 334.75
  Q 169.93 336.11 167.92 341.57
  C 165.82 347.27 169.06 352.82 174.63 354.73
  Q 178.77 356.15 184.72 356.79
  Q 200.59 358.49 215.05 359.29
  A 0.57 0.57 0.0 0 0 215.65 358.73
  L 215.77 339.66
  L 220.76 339.63
  C 220.90 345.39 220.85 351.43 221.95 356.89
  C 225.03 372.17 235.70 385.75 250.46 391.38
  Q 252.56 392.18 250.31 392.21
  Q 237.53 392.39 223.80 389.98
  C 218.01 388.97 212.08 387.07 206.18 385.61
  Q 202.53 384.70 199.42 383.44
  Q 185.55 377.85 178.36 373.29
  C 170.92 368.58 162.57 363.75 156.17 357.66
  Q 149.20 351.02 142.56 344.09
  C 136.07 337.32 130.53 327.86 125.55 320.25
  Q 121.73 314.43 117.15 303.31
  L 133.88 301.75
  A 1.61 1.60 -69.6 0 0 134.86 301.30
  Q 136.74 299.46 141.29 299.67
  Q 143.25 299.76 145.08 298.18
  Z"
/>
<path fill="#e971a9" d="
  M 220.83 325.80
  L 220.76 339.63
  L 215.77 339.66
  Q 208.78 338.97 201.25 338.49
  Q 193.48 337.99 176.95 334.75
  Q 171.37 330.67 173.02 325.02
  Q 173.64 322.90 175.50 321.86
  Q 177.63 320.67 179.75 321.02
  Q 200.03 324.35 220.83 325.80
  Z"
/>
<path fill="#1f1341" d="
  M 176.95 334.75
  Q 193.48 337.99 201.25 338.49
  Q 208.78 338.97 215.77 339.66
  L 215.65 358.73
  A 0.57 0.57 0.0 0 1 215.05 359.29
  Q 200.59 358.49 184.72 356.79
  Q 178.77 356.15 174.63 354.73
  C 169.06 352.82 165.82 347.27 167.92 341.57
  Q 169.93 336.11 176.95 334.75
  Z"
/>
</svg>
