<?xml version="1.0" encoding="UTF-8" standalone="no"?>
<!DOCTYPE svg PUBLIC "-//W3C//DTD SVG 1.1//EN" "http://www.w3.org/Graphics/SVG/1.1/DTD/svg11.dtd">
<svg xmlns="http://www.w3.org/2000/svg" version="1.1" viewBox="0.00 0.00 500.00 500.00">
<g stroke-width="5.00" fill="none" stroke-linecap="butt">
<path stroke="#3772a4" vector-effect="non-scaling-stroke" d="
  M 346.92 21.39
  Q 346.55 21.58 346.51 21.86
  Q 346.45 22.21 346.15 22.01
  Q 345.92 21.86 345.89 21.58
  Q 345.84 21.09 345.41 21.34
  Q 344.15 22.09 344.83 23.28
  Q 344.90 23.40 344.76 23.41
  Q 344.70 23.41 344.66 23.38
  Q 344.62 23.35 344.61 23.31
  Q 344.45 22.74 344.37 22.16
  Q 344.29 21.51 343.85 21.99
  Q 341.91 24.09 341.27 26.70
  Q 341.12 27.33 340.79 27.85
  Q 340.33 28.57 339.85 29.31
  Q 339.57 29.73 339.10 29.94
  Q 337.59 30.62 338.01 32.08
  Q 338.10 32.38 337.79 32.46
  L 336.79 32.70
  Q 336.19 32.84 336.10 33.46
  L 335.47 38.06
  Q 335.40 38.54 334.98 38.79
  Q 333.41 39.71 332.53 41.44
  C 331.82 42.86 330.64 44.04 329.50 45.10
  Q 329.12 45.47 328.97 45.97
  Q 328.48 47.72 326.49 47.90
  Q 324.76 48.06 323.19 48.33
  Q 322.61 48.43 322.41 48.98
  Q 321.93 50.33 320.85 51.20
  Q 320.39 51.58 320.28 52.18
  L 319.48 56.68
  Q 319.43 56.99 319.13 57.03
  Q 318.91 57.06 318.73 57.16
  Q 318.38 57.37 318.21 57.73
  Q 316.91 60.43 314.44 62.24
  Q 313.99 62.56 313.44 62.52
  Q 313.29 62.51 313.15 62.49
  Q 312.60 62.41 312.54 62.96
  L 312.44 63.83
  Q 312.39 64.34 311.88 64.24
  Q 309.22 63.69 307.65 65.16
  Q 304.34 68.26 303.64 72.15
  Q 303.54 72.74 303.15 73.18
  L 298.08 79.00
  Q 297.71 79.42 297.16 79.54
  L 292.40 80.56
  A 0.71 0.70 -72.0 0 0 292.13 80.70
  Q 288.09 84.27 287.53 88.91
  Q 287.51 89.06 287.37 89.10
  Q 287.25 89.14 287.13 89.18
  Q 286.72 89.34 286.47 89.70
  Q 285.08 91.82 283.12 93.44
  Q 282.88 93.64 282.57 93.72
  Q 282.24 93.81 281.89 93.74
  Q 281.10 93.59 281.23 94.38
  Q 281.26 94.56 281.30 94.74
  Q 281.45 95.41 280.78 95.58
  L 276.55 96.64
  A 1.24 1.23 -82.3 0 0 275.78 97.23
  Q 274.43 99.53 272.49 101.18
  Q 272.14 101.48 272.11 101.94
  Q 272.09 102.31 271.84 102.62
  A 0.53 0.51 -75.6 0 1 271.57 102.79
  L 269.85 103.17
  Q 269.31 103.29 269.03 103.78
  C 268.49 104.70 267.61 104.61 266.98 105.37
  Q 265.87 106.71 265.22 108.25
  Q 265.02 108.72 264.57 108.97
  Q 263.48 109.56 263.78 110.67
  Q 263.89 111.09 263.47 111.18
  L 261.59 111.60
  Q 261.13 111.71 260.80 112.04
  Q 259.03 113.78 256.56 114.53
  Q 256.46 114.56 256.37 114.52
  Q 256.33 114.50 256.30 114.46
  Q 256.04 114.11 255.71 114.41
  Q 255.16 114.90 254.83 115.51
  Q 254.56 116.00 254.00 115.94
  Q 253.22 115.86 252.46 116.27
  Q 252.14 116.44 252.12 116.80
  Q 252.07 117.61 252.31 118.34
  Q 252.37 118.49 252.27 118.61
  Q 252.18 118.74 252.08 118.85
  Q 251.91 119.04 251.89 118.79
  Q 251.67 116.71 252.19 114.70
  Q 252.29 114.31 251.92 114.46
  Q 251.35 114.69 251.45 114.31"
/>
<path stroke="#3772a4" vector-effect="non-scaling-stroke" d="
  M 22.02 343.97
  L 30.57 340.44
  Q 31.10 340.22 31.30 340.76
  Q 31.43 341.10 31.40 341.51
  Q 31.33 342.29 31.73 341.61
  Q 32.05 341.05 31.79 340.46
  Q 31.58 340.01 31.81 339.56
  Q 32.00 339.19 32.37 339.13
  Q 32.74 339.07 32.69 338.71
  Q 32.53 337.56 33.18 336.42
  Q 33.44 335.97 33.95 335.93
  L 38.76 335.57
  Q 39.36 335.53 39.63 334.99
  Q 41.23 331.75 43.24 329.38
  Q 44.81 327.53 47.05 327.54
  Q 47.57 327.54 47.69 327.03
  L 48.40 323.98
  Q 48.51 323.51 48.94 323.28
  Q 50.62 322.42 51.79 320.93
  A 1.75 1.74 -74.8 0 1 52.90 320.29
  C 54.64 320.05 57.08 319.98 57.85 318.07
  Q 58.07 317.54 58.51 317.17
  Q 60.53 315.47 62.29 313.50
  Q 62.37 313.41 62.42 313.31
  Q 62.49 313.16 62.46 312.98
  A 0.44 0.43 84.5 0 1 62.88 312.46
  Q 63.09 312.46 63.30 312.52
  Q 63.54 312.58 63.59 312.34
  L 64.29 309.34
  Q 64.41 308.82 64.79 308.44
  L 68.43 304.84
  Q 68.80 304.46 69.34 304.42
  Q 71.19 304.26 73.10 303.33
  Q 73.57 303.10 73.75 302.60
  Q 74.06 301.73 74.74 301.14
  Q 76.59 299.52 77.87 297.47
  A 1.03 1.00 89.0 0 1 78.15 297.17
  L 79.14 296.54
  A 1.14 1.10 -11.8 0 0 79.62 295.83
  L 80.13 293.04
  A 0.68 0.65 -11.8 0 1 80.44 292.59
  Q 80.97 292.27 80.79 291.67
  A 0.52 0.51 -30.4 0 1 80.93 291.15
  L 83.34 288.86
  Q 83.68 288.54 84.14 288.45
  L 88.71 287.65
  A 1.12 1.10 -75.4 0 0 89.41 287.23
  Q 91.65 284.34 93.64 281.46
  Q 93.95 281.02 94.48 280.94
  L 94.97 280.87
  Q 95.50 280.79 95.62 280.27
  L 96.32 277.23
  Q 96.41 276.83 96.79 276.66
  Q 96.92 276.60 97.07 276.63
  Q 97.53 276.71 97.84 276.36
  Q 99.60 274.37 101.71 272.81
  C 102.80 272.01 104.13 271.86 105.41 271.52
  Q 105.97 271.37 106.09 270.80
  Q 106.51 268.77 108.28 267.28
  Q 108.71 266.92 108.81 266.37
  Q 109.27 263.82 112.17 261.87
  Q 112.52 261.63 112.96 261.60
  Q 113.43 261.58 113.84 261.74
  Q 114.26 261.90 114.53 261.54
  L 116.36 259.06
  Q 116.54 258.81 116.82 258.67
  Q 118.16 257.98 119.38 257.12
  Q 121.51 255.62 124.03 255.00
  Q 124.62 254.85 124.84 254.28
  Q 124.94 254.04 124.93 253.78
  Q 124.91 253.24 125.25 252.81
  Q 126.92 250.73 126.74 248.02
  A 1.28 1.28 0.0 0 1 127.09 247.07
  Q 127.78 246.32 128.15 245.47
  Q 128.38 244.94 128.92 245.11
  Q 130.81 245.70 132.11 244.01
  Q 134.28 241.20 136.98 239.01
  Q 137.89 238.28 138.62 237.31
  Q 139.42 236.25 140.23 235.28
  Q 140.86 234.52 141.17 233.70
  Q 141.54 232.72 142.70 232.35
  A 1.28 1.26 -2.5 0 0 143.56 231.42
  Q 143.94 229.76 144.28 227.94
  Q 144.45 227.02 145.00 226.28
  Q 145.53 225.57 146.09 224.94
  A 1.49 1.47 -75.0 0 1 146.91 224.46
  L 150.95 223.65
  Q 151.50 223.54 151.75 223.04
  Q 152.86 220.81 154.94 218.93
  Q 155.34 218.57 155.90 218.70
  Q 156.14 218.75 156.14 218.51
  L 156.14 217.96
  Q 156.14 217.45 156.49 217.09
  Q 157.74 215.80 159.26 215.09
  Q 159.74 214.86 159.85 214.35
  L 160.37 211.89
  Q 160.49 211.32 160.95 210.98
  Q 161.82 210.32 161.98 209.15
  Q 162.08 208.38 162.86 208.28
  L 168.23 207.59
  A 1.66 1.65 16.1 0 0 169.31 207.00
  Q 170.49 205.57 172.05 204.64
  A 1.88 1.82 -3.0 0 0 172.76 203.88
  Q 173.59 202.28 175.08 201.25
  Q 175.52 200.94 175.58 200.40
  Q 176.02 196.50 179.43 193.31
  Q 180.66 192.16 182.35 192.09
  Q 184.14 192.01 185.50 191.16
  Q 187.37 189.99 187.53 188.03
  Q 187.60 187.26 188.34 187.50
  Q 188.46 187.54 188.60 187.54
  Q 189.04 187.53 189.27 187.15
  Q 190.03 185.87 191.13 185.08
  A 1.25 1.23 74.6 0 0 191.63 184.19
  Q 191.92 180.84 194.58 178.27
  Q 195.14 177.73 195.59 177.12
  Q 196.09 176.45 196.90 176.41
  C 198.02 176.37 198.94 175.95 200.05 175.77
  Q 201.00 175.61 201.79 174.91
  Q 204.50 172.51 205.95 169.55
  Q 206.17 169.11 206.62 168.90
  Q 206.83 168.79 207.02 168.64
  Q 207.41 168.32 207.56 167.77
  Q 207.90 166.52 208.30 165.30
  Q 208.46 164.80 208.91 164.53
  Q 210.91 163.29 211.37 161.12
  A 1.05 1.04 86.9 0 1 212.04 160.37
  L 214.09 159.65
  Q 214.63 159.46 214.74 158.90
  Q 215.32 156.07 218.09 156.10
  Q 218.64 156.11 218.64 155.56
  L 218.64 154.45
  Q 218.64 153.91 219.02 153.54
  Q 220.73 151.84 222.03 149.76
  Q 222.33 149.28 222.91 149.35
  Q 223.46 149.42 223.56 148.88
  L 224.27 144.98
  A 0.93 0.92 -0.1 0 1 225.03 144.23
  L 228.98 143.59
  Q 229.46 143.51 229.62 143.05
  Q 229.93 142.15 229.26 141.56
  A 1.23 1.20 18.5 0 1 228.87 140.80
  Q 228.65 138.97 229.51 138.89
  Q 230.11 138.84 230.10 138.24
  Q 230.01 134.35 234.65 134.02
  Q 237.48 133.81 239.51 131.71
  Q 239.88 131.32 239.43 131.04
  Q 238.77 130.63 238.10 130.69
  Q 238.05 130.70 238.00 130.67
  Q 237.95 130.64 237.97 130.58
  Q 238.00 130.48 238.10 130.47
  Q 239.00 130.37 239.84 130.37
  Q 239.89 130.37 239.93 130.37
  Q 240.01 130.37 239.95 130.32
  Q 239.91 130.29 239.86 130.30
  Q 239.60 130.36 239.29 130.25
  Q 238.87 130.12 239.31 130.06
  Q 240.48 129.91 241.68 130.02
  Q 241.72 130.02 241.73 130.06
  Q 241.77 130.24 241.64 130.27
  Q 241.11 130.43 241.55 130.36
  Q 241.95 130.30 242.30 130.07
  Q 242.41 129.99 242.43 130.12
  Q 242.44 130.19 242.41 130.25
  Q 242.30 130.53 242.58 130.43
  Q 245.51 129.37 248.64 130.32
  Q 249.13 130.47 249.53 130.14
  L 249.96 129.76"
/>
<path stroke="#ffd343" vector-effect="non-scaling-stroke" d="
  M 486.63 167.03
  Q 485.18 167.49 484.49 166.75
  Q 484.25 166.50 484.09 166.81
  Q 484.02 166.95 484.06 167.07
  Q 484.39 167.99 483.42 167.74
  Q 482.93 167.62 482.84 168.15
  A 0.26 0.26 0.0 0 1 482.45 168.34
  Q 482.33 168.27 482.23 168.18
  Q 481.81 167.80 481.52 168.29
  L 480.50 169.96
  Q 480.16 170.52 479.51 170.55
  Q 477.94 170.61 477.83 172.17
  A 1.06 1.04 84.7 0 1 477.05 173.12
  L 472.81 174.24
  Q 472.19 174.40 472.17 175.04
  Q 472.16 175.25 472.11 175.46
  Q 471.97 175.98 471.43 176.05
  L 468.52 176.40
  Q 467.99 176.47 467.78 176.96
  C 467.52 177.60 467.33 178.14 466.74 178.56
  Q 460.85 182.83 455.04 187.21
  C 453.76 188.17 451.49 190.40 451.34 192.13
  Q 451.27 192.94 450.61 193.43
  Q 449.08 194.54 447.12 195.21
  Q 446.56 195.40 446.27 195.91
  Q 445.86 196.60 445.11 196.85
  Q 444.53 197.04 444.26 197.59
  Q 443.89 198.35 443.11 198.58
  Q 442.60 198.74 442.17 199.06
  L 440.50 200.34
  Q 440.08 200.65 440.14 201.18
  Q 440.34 202.72 438.86 203.13
  Q 438.32 203.29 438.02 203.77
  Q 437.83 204.08 437.69 204.42
  Q 437.48 204.90 437.58 204.38
  Q 437.61 204.24 437.59 204.09
  Q 437.53 203.54 437.23 204.01
  Q 436.88 204.56 436.20 204.91
  C 435.13 205.45 434.79 206.68 435.04 207.76
  Q 435.15 208.23 434.90 208.65
  Q 433.84 210.42 432.20 211.46
  Q 431.01 212.21 429.93 213.34
  Q 428.17 215.19 426.64 216.87
  Q 426.31 217.23 426.23 217.71
  Q 425.79 220.34 424.33 222.62
  Q 423.79 223.47 422.99 223.69
  Q 422.05 223.96 421.06 224.13
  Q 420.56 224.21 420.25 224.63
  L 416.48 229.77
  Q 416.21 230.15 416.12 230.60
  L 415.44 234.17
  Q 415.35 234.60 414.95 234.80
  Q 411.79 236.30 409.90 238.97
  A 1.47 1.46 -78.4 0 1 409.01 239.56
  L 404.73 240.44
  A 1.36 1.34 13.2 0 0 403.96 240.91
  Q 402.65 242.55 400.74 243.69
  A 1.17 1.15 79.1 0 0 400.19 244.52
  L 399.37 250.22
  Q 399.33 250.54 399.03 250.63
  L 396.85 251.27
  Q 396.24 251.45 395.91 252.00
  Q 395.53 252.64 394.77 252.91
  Q 394.13 253.13 393.92 253.78
  L 393.58 254.86
  Q 393.42 255.37 392.89 255.47
  L 388.25 256.30
  A 1.06 1.05 4.2 0 0 387.44 256.99
  Q 386.70 259.14 384.76 260.18
  Q 384.26 260.44 384.18 261.00
  L 383.43 266.06
  Q 383.36 266.54 382.88 266.65
  Q 379.33 267.46 378.04 271.08
  Q 377.90 271.45 377.52 271.50
  C 376.11 271.67 374.63 271.97 373.61 273.03
  Q 371.49 275.23 369.42 277.16
  Q 369.19 277.38 368.89 277.52
  Q 368.27 277.81 368.17 278.51
  Q 367.85 280.74 367.54 282.92
  Q 367.46 283.47 367.02 283.81
  Q 365.60 284.90 364.56 286.42
  Q 364.29 286.83 363.81 286.97
  Q 362.22 287.46 360.47 287.93
  Q 358.61 288.44 357.38 289.47
  Q 354.14 292.19 352.45 295.05
  Q 351.48 296.69 351.38 298.69
  Q 351.36 299.14 351.00 299.41
  Q 349.52 300.52 348.29 301.87
  Q 347.93 302.26 347.41 302.44
  C 346.38 302.81 345.52 303.00 344.61 303.69
  Q 343.86 304.25 342.91 304.45
  Q 342.02 304.64 341.17 305.16
  Q 336.92 307.77 335.65 312.15
  Q 335.00 314.37 334.07 315.81
  A 0.84 0.83 -71.5 0 1 333.30 316.20
  Q 332.02 316.11 331.75 317.39
  Q 331.66 317.83 331.26 318.03
  Q 330.00 318.67 328.64 319.54
  Q 327.35 320.36 326.32 321.41
  Q 324.61 323.16 322.65 324.81
  Q 322.28 325.12 321.80 325.21
  Q 321.17 325.31 320.76 325.84
  Q 319.72 327.21 319.09 328.67
  Q 319.06 328.74 319.10 328.80
  Q 319.16 328.92 319.29 328.98
  Q 319.38 329.03 319.35 329.13
  Q 318.66 331.77 316.71 333.29
  Q 316.19 333.70 316.53 334.27
  Q 316.68 334.52 316.69 334.81
  Q 316.73 335.59 315.94 335.62
  Q 314.66 335.65 313.82 336.61
  Q 313.56 336.90 313.18 336.91
  Q 311.06 336.97 309.76 339.04
  C 309.17 339.98 309.51 340.93 309.05 341.98
  Q 308.82 342.51 309.02 343.05
  Q 309.46 344.25 308.76 345.32
  Q 307.05 347.97 304.71 349.88
  A 1.37 1.34 74.3 0 0 304.21 350.80
  L 304.12 351.53
  Q 304.05 352.18 303.39 352.18
  C 301.45 352.16 301.21 354.00 299.89 354.91
  Q 299.47 355.21 299.24 355.66
  Q 298.94 356.26 298.76 356.92
  Q 298.62 357.41 298.21 357.71
  Q 295.46 359.73 292.42 361.49
  Q 289.38 363.24 286.57 365.83
  A 1.23 1.22 25.1 0 1 285.67 366.15
  Q 285.05 366.11 284.49 366.26
  Q 284.09 366.37 284.20 366.77
  Q 284.50 367.76 283.54 368.39
  Q 283.26 368.57 283.32 368.24
  Q 283.37 367.99 283.12 367.96
  Q 282.96 367.95 282.81 368.02
  Q 281.06 368.80 281.18 369.54"
/>
<path stroke="#ffd343" vector-effect="non-scaling-stroke" d="
  M 265.45 386.82
  Q 267.59 387.35 269.95 387.10
  Q 270.18 387.08 270.03 387.26
  Q 269.88 387.45 269.62 387.39
  Q 268.72 387.18 267.92 387.53
  A 0.84 0.84 0.0 0 1 267.01 387.39
  Q 266.51 386.95 266.10 387.41
  Q 265.80 387.75 265.36 387.65
  Q 264.88 387.56 264.40 387.67
  Q 263.84 387.80 264.13 388.30
  Q 264.25 388.50 264.47 388.59
  Q 264.91 388.76 265.04 388.31
  Q 265.14 387.98 265.56 388.08
  Q 265.82 388.14 265.60 388.27
  Q 265.36 388.42 265.50 388.45
  Q 266.28 388.60 265.50 388.72
  Q 264.11 388.93 262.77 388.98
  Q 262.09 389.01 262.18 389.68
  Q 262.42 391.65 260.60 392.97
  Q 260.20 393.26 260.05 393.73
  L 259.14 396.72
  A 1.62 1.61 4.3 0 1 257.83 397.84
  Q 256.48 398.04 256.01 399.27
  Q 255.81 399.77 255.30 399.90
  Q 253.70 400.30 252.33 401.47
  A 1.44 1.41 -13.8 0 0 251.89 402.18
  Q 251.67 402.99 250.81 403.31
  Q 250.16 403.55 250.35 402.89
  Q 250.56 402.19 249.99 401.77
  Q 249.46 401.39 249.14 401.96
  Q 248.56 403.02 249.41 403.88
  Q 249.95 404.42 249.23 404.68
  Q 248.86 404.81 248.59 405.13
  Q 248.28 405.50 248.12 405.96
  Q 247.66 407.31 246.56 408.23
  Q 246.14 408.57 245.98 409.08
  L 245.54 410.51
  Q 245.37 411.05 244.83 410.90
  Q 244.48 410.81 244.12 410.95
  C 243.22 411.32 242.80 412.27 242.20 412.99
  Q 241.76 413.52 241.49 414.17
  Q 240.84 415.78 239.01 415.85
  A 1.12 1.12 0.0 0 0 237.94 416.80
  L 237.61 419.05
  Q 237.51 419.68 236.87 419.63
  Q 235.57 419.52 235.46 420.88
  A 0.79 0.79 0.0 0 1 234.70 421.60
  Q 231.72 421.70 231.66 424.66
  A 0.91 0.91 0.0 0 1 231.00 425.51
  L 228.98 426.11
  Q 228.11 426.36 227.95 427.25
  Q 227.80 428.02 227.01 428.12
  Q 226.27 428.21 226.11 428.94
  L 225.62 431.16
  Q 225.53 431.58 225.10 431.69
  L 222.83 432.25
  A 0.83 0.82 -2.3 0 0 222.21 432.91
  L 221.85 435.02
  Q 221.73 435.67 221.07 435.68
  Q 219.80 435.68 219.66 436.96
  Q 219.62 437.33 219.26 437.43
  L 216.64 438.17
  Q 216.19 438.29 216.03 438.73
  Q 215.65 439.77 215.65 440.91
  Q 215.65 441.49 215.08 441.59
  L 212.75 441.98
  Q 211.89 442.13 211.88 443.01
  L 211.88 443.28
  A 0.61 0.61 0.0 0 1 211.14 443.88
  Q 210.73 443.80 210.42 444.07
  Q 209.97 444.46 209.87 445.04
  Q 209.71 445.98 209.63 446.99
  Q 209.59 447.52 209.07 447.60
  L 205.12 448.27
  Q 204.63 448.35 204.35 448.75
  Q 202.72 451.08 201.05 453.49
  C 199.94 455.11 199.88 456.67 199.67 458.51
  Q 199.61 459.09 199.03 459.18
  Q 196.21 459.62 194.69 461.89
  Q 193.36 463.86 191.01 464.13
  A 1.07 1.07 0.0 0 0 190.08 465.39
  Q 190.31 466.66 190.02 467.69
  Q 189.87 468.22 189.33 468.36
  L 187.89 468.76
  Q 187.41 468.89 187.41 469.38
  L 187.41 472.12
  A 2.67 2.67 0.0 0 1 185.63 474.64
  L 184.30 475.11
  Q 183.68 475.33 183.46 475.96
  Q 183.14 476.88 182.49 477.54
  Q 180.09 479.98 177.08 482.13
  Q 175.79 483.05 175.58 484.39
  Q 175.50 484.86 175.04 484.95
  L 173.75 485.21
  Q 173.31 485.29 173.18 485.73
  L 172.77 487.09"
/>
</g>
<path fill="#3775a9" d="
  M 239.38 0.00
  L 258.50 0.00
  Q 265.02 0.33 271.50 0.67
  Q 296.92 1.97 321.25 9.31
  Q 334.53 13.31 346.92 21.39
  Q 346.55 21.58 346.51 21.86
  Q 346.45 22.21 346.15 22.01
  Q 345.92 21.86 345.89 21.58
  Q 345.84 21.09 345.41 21.34
  Q 344.15 22.09 344.83 23.28
  Q 344.90 23.40 344.76 23.41
  Q 344.70 23.41 344.66 23.38
  Q 344.62 23.35 344.61 23.31
  Q 344.45 22.74 344.37 22.16
  Q 344.29 21.51 343.85 21.99
  Q 341.91 24.09 341.27 26.70
  Q 341.12 27.33 340.79 27.85
  Q 340.33 28.57 339.85 29.31
  Q 339.57 29.73 339.10 29.94
  Q 337.59 30.62 338.01 32.08
  Q 338.10 32.38 337.79 32.46
  L 336.79 32.70
  Q 336.19 32.84 336.10 33.46
  L 335.47 38.06
  Q 335.40 38.54 334.98 38.79
  Q 333.41 39.71 332.53 41.44
  C 331.82 42.86 330.64 44.04 329.50 45.10
  Q 329.12 45.47 328.97 45.97
  Q 328.48 47.72 326.49 47.90
  Q 324.76 48.06 323.19 48.33
  Q 322.61 48.43 322.41 48.98
  Q 321.93 50.33 320.85 51.20
  Q 320.39 51.58 320.28 52.18
  L 319.48 56.68
  Q 319.43 56.99 319.13 57.03
  Q 318.91 57.06 318.73 57.16
  Q 318.38 57.37 318.21 57.73
  Q 316.91 60.43 314.44 62.24
  Q 313.99 62.56 313.44 62.52
  Q 313.29 62.51 313.15 62.49
  Q 312.60 62.41 312.54 62.96
  L 312.44 63.83
  Q 312.39 64.34 311.88 64.24
  Q 309.22 63.69 307.65 65.16
  Q 304.34 68.26 303.64 72.15
  Q 303.54 72.74 303.15 73.18
  L 298.08 79.00
  Q 297.71 79.42 297.16 79.54
  L 292.40 80.56
  A 0.71 0.70 -72.0 0 0 292.13 80.70
  Q 288.09 84.27 287.53 88.91
  Q 287.51 89.06 287.37 89.10
  Q 287.25 89.14 287.13 89.18
  Q 286.72 89.34 286.47 89.70
  Q 285.08 91.82 283.12 93.44
  Q 282.88 93.64 282.57 93.72
  Q 282.24 93.81 281.89 93.74
  Q 281.10 93.59 281.23 94.38
  Q 281.26 94.56 281.30 94.74
  Q 281.45 95.41 280.78 95.58
  L 276.55 96.64
  A 1.24 1.23 -82.3 0 0 275.78 97.23
  Q 274.43 99.53 272.49 101.18
  Q 272.14 101.48 272.11 101.94
  Q 272.09 102.31 271.84 102.62
  A 0.53 0.51 -75.6 0 1 271.57 102.79
  L 269.85 103.17
  Q 269.31 103.29 269.03 103.78
  C 268.49 104.70 267.61 104.61 266.98 105.37
  Q 265.87 106.71 265.22 108.25
  Q 265.02 108.72 264.57 108.97
  Q 263.48 109.56 263.78 110.67
  Q 263.89 111.09 263.47 111.18
  L 261.59 111.60
  Q 261.13 111.71 260.80 112.04
  Q 259.03 113.78 256.56 114.53
  Q 256.46 114.56 256.37 114.52
  Q 256.33 114.50 256.30 114.46
  Q 256.04 114.11 255.71 114.41
  Q 255.16 114.90 254.83 115.51
  Q 254.56 116.00 254.00 115.94
  Q 253.22 115.86 252.46 116.27
  Q 252.14 116.44 252.12 116.80
  Q 252.07 117.61 252.31 118.34
  Q 252.37 118.49 252.27 118.61
  Q 252.18 118.74 252.08 118.85
  Q 251.91 119.04 251.89 118.79
  Q 251.67 116.71 252.19 114.70
  Q 252.29 114.31 251.92 114.46
  Q 251.35 114.69 251.45 114.31
  Q 251.60 113.56 251.43 112.99
  A 0.69 0.69 0.0 0 0 250.77 112.50
  L 130.28 112.50
  A 0.42 0.42 0.0 0 1 129.86 112.08
  Q 129.74 82.12 129.73 52.70
  Q 129.73 45.69 133.46 38.67
  C 145.36 16.24 175.71 7.13 199.26 3.61
  Q 219.18 0.64 239.38 0.00
  Z
  M 203.99 60.37
  A 21.90 21.90 0.0 0 0 182.09 38.47
  A 21.90 21.90 0.0 0 0 160.19 60.37
  A 21.90 21.90 0.0 0 0 182.09 82.27
  A 21.90 21.90 0.0 0 0 203.99 60.37
  Z"
/>
<path fill="#376f9f" d="
  M 346.92 21.39
  C 361.72 30.97 372.60 46.80 372.13 64.68
  Q 372.06 67.41 372.06 69.83
  Q 372.00 124.94 371.96 179.25
  Q 371.95 187.55 369.43 197.27
  C 362.67 223.36 340.53 237.50 314.56 241.32
  Q 307.86 242.31 295.80 242.27
  Q 236.82 242.07 181.68 242.24
  Q 163.18 242.29 148.12 249.82
  C 128.31 259.72 117.26 280.40 114.43 302.04
  Q 113.48 309.25 113.54 318.58
  Q 113.72 345.38 113.62 372.63
  Q 113.61 373.08 113.17 373.07
  Q 95.56 372.84 77.67 373.10
  Q 67.03 373.25 60.33 371.74
  Q 51.57 369.77 43.90 365.10
  Q 30.64 357.03 22.02 343.97
  L 30.57 340.44
  Q 31.10 340.22 31.30 340.76
  Q 31.43 341.10 31.40 341.51
  Q 31.33 342.29 31.73 341.61
  Q 32.05 341.05 31.79 340.46
  Q 31.58 340.01 31.81 339.56
  Q 32.00 339.19 32.37 339.13
  Q 32.74 339.07 32.69 338.71
  Q 32.53 337.56 33.18 336.42
  Q 33.44 335.97 33.95 335.93
  L 38.76 335.57
  Q 39.36 335.53 39.63 334.99
  Q 41.23 331.75 43.24 329.38
  Q 44.81 327.53 47.05 327.54
  Q 47.57 327.54 47.69 327.03
  L 48.40 323.98
  Q 48.51 323.51 48.94 323.28
  Q 50.62 322.42 51.79 320.93
  A 1.75 1.74 -74.8 0 1 52.90 320.29
  C 54.64 320.05 57.08 319.98 57.85 318.07
  Q 58.07 317.54 58.51 317.17
  Q 60.53 315.47 62.29 313.50
  Q 62.37 313.41 62.42 313.31
  Q 62.49 313.16 62.46 312.98
  A 0.44 0.43 84.5 0 1 62.88 312.46
  Q 63.09 312.46 63.30 312.52
  Q 63.54 312.58 63.59 312.34
  L 64.29 309.34
  Q 64.41 308.82 64.79 308.44
  L 68.43 304.84
  Q 68.80 304.46 69.34 304.42
  Q 71.19 304.26 73.10 303.33
  Q 73.57 303.10 73.75 302.60
  Q 74.06 301.73 74.74 301.14
  Q 76.59 299.52 77.87 297.47
  A 1.03 1.00 89.0 0 1 78.15 297.17
  L 79.14 296.54
  A 1.14 1.10 -11.8 0 0 79.62 295.83
  L 80.13 293.04
  A 0.68 0.65 -11.8 0 1 80.44 292.59
  Q 80.97 292.27 80.79 291.67
  A 0.52 0.51 -30.4 0 1 80.93 291.15
  L 83.34 288.86
  Q 83.68 288.54 84.14 288.45
  L 88.71 287.65
  A 1.12 1.10 -75.4 0 0 89.41 287.23
  Q 91.65 284.34 93.64 281.46
  Q 93.95 281.02 94.48 280.94
  L 94.97 280.87
  Q 95.50 280.79 95.62 280.27
  L 96.32 277.23
  Q 96.41 276.83 96.79 276.66
  Q 96.92 276.60 97.07 276.63
  Q 97.53 276.71 97.84 276.36
  Q 99.60 274.37 101.71 272.81
  C 102.80 272.01 104.13 271.86 105.41 271.52
  Q 105.97 271.37 106.09 270.80
  Q 106.51 268.77 108.28 267.28
  Q 108.71 266.92 108.81 266.37
  Q 109.27 263.82 112.17 261.87
  Q 112.52 261.63 112.96 261.60
  Q 113.43 261.58 113.84 261.74
  Q 114.26 261.90 114.53 261.54
  L 116.36 259.06
  Q 116.54 258.81 116.82 258.67
  Q 118.16 257.98 119.38 257.12
  Q 121.51 255.62 124.03 255.00
  Q 124.62 254.85 124.84 254.28
  Q 124.94 254.04 124.93 253.78
  Q 124.91 253.24 125.25 252.81
  Q 126.92 250.73 126.74 248.02
  A 1.28 1.28 0.0 0 1 127.09 247.07
  Q 127.78 246.32 128.15 245.47
  Q 128.38 244.94 128.92 245.11
  Q 130.81 245.70 132.11 244.01
  Q 134.28 241.20 136.98 239.01
  Q 137.89 238.28 138.62 237.31
  Q 139.42 236.25 140.23 235.28
  Q 140.86 234.52 141.17 233.70
  Q 141.54 232.72 142.70 232.35
  A 1.28 1.26 -2.5 0 0 143.56 231.42
  Q 143.94 229.76 144.28 227.94
  Q 144.45 227.02 145.00 226.28
  Q 145.53 225.57 146.09 224.94
  A 1.49 1.47 -75.0 0 1 146.91 224.46
  L 150.95 223.65
  Q 151.50 223.54 151.75 223.04
  Q 152.86 220.81 154.94 218.93
  Q 155.34 218.57 155.90 218.70
  Q 156.14 218.75 156.14 218.51
  L 156.14 217.96
  Q 156.14 217.45 156.49 217.09
  Q 157.74 215.80 159.26 215.09
  Q 159.74 214.86 159.85 214.35
  L 160.37 211.89
  Q 160.49 211.32 160.95 210.98
  Q 161.82 210.32 161.98 209.15
  Q 162.08 208.38 162.86 208.28
  L 168.23 207.59
  A 1.66 1.65 16.1 0 0 169.31 207.00
  Q 170.49 205.57 172.05 204.64
  A 1.88 1.82 -3.0 0 0 172.76 203.88
  Q 173.59 202.28 175.08 201.25
  Q 175.52 200.94 175.58 200.40
  Q 176.02 196.50 179.43 193.31
  Q 180.66 192.16 182.35 192.09
  Q 184.14 192.01 185.50 191.16
  Q 187.37 189.99 187.53 188.03
  Q 187.60 187.26 188.34 187.50
  Q 188.46 187.54 188.60 187.54
  Q 189.04 187.53 189.27 187.15
  Q 190.03 185.87 191.13 185.08
  A 1.25 1.23 74.6 0 0 191.63 184.19
  Q 191.92 180.84 194.58 178.27
  Q 195.14 177.73 195.59 177.12
  Q 196.09 176.45 196.90 176.41
  C 198.02 176.37 198.94 175.95 200.05 175.77
  Q 201.00 175.61 201.79 174.91
  Q 204.50 172.51 205.95 169.55
  Q 206.17 169.11 206.62 168.90
  Q 206.83 168.79 207.02 168.64
  Q 207.41 168.32 207.56 167.77
  Q 207.90 166.52 208.30 165.30
  Q 208.46 164.80 208.91 164.53
  Q 210.91 163.29 211.37 161.12
  A 1.05 1.04 86.9 0 1 212.04 160.37
  L 214.09 159.65
  Q 214.63 159.46 214.74 158.90
  Q 215.32 156.07 218.09 156.10
  Q 218.64 156.11 218.64 155.56
  L 218.64 154.45
  Q 218.64 153.91 219.02 153.54
  Q 220.73 151.84 222.03 149.76
  Q 222.33 149.28 222.91 149.35
  Q 223.46 149.42 223.56 148.88
  L 224.27 144.98
  A 0.93 0.92 -0.1 0 1 225.03 144.23
  L 228.98 143.59
  Q 229.46 143.51 229.62 143.05
  Q 229.93 142.15 229.26 141.56
  A 1.23 1.20 18.5 0 1 228.87 140.80
  Q 228.65 138.97 229.51 138.89
  Q 230.11 138.84 230.10 138.24
  Q 230.01 134.35 234.65 134.02
  Q 237.48 133.81 239.51 131.71
  Q 239.88 131.32 239.43 131.04
  Q 238.77 130.63 238.10 130.69
  Q 238.05 130.70 238.00 130.67
  Q 237.95 130.64 237.97 130.58
  Q 238.00 130.48 238.10 130.47
  Q 239.00 130.37 239.84 130.37
  Q 239.89 130.37 239.93 130.37
  Q 240.01 130.37 239.95 130.32
  Q 239.91 130.29 239.86 130.30
  Q 239.60 130.36 239.29 130.25
  Q 238.87 130.12 239.31 130.06
  Q 240.48 129.91 241.68 130.02
  Q 241.72 130.02 241.73 130.06
  Q 241.77 130.24 241.64 130.27
  Q 241.11 130.43 241.55 130.36
  Q 241.95 130.30 242.30 130.07
  Q 242.41 129.99 242.43 130.12
  Q 242.44 130.19 242.41 130.25
  Q 242.30 130.53 242.58 130.43
  Q 245.51 129.37 248.64 130.32
  Q 249.13 130.47 249.53 130.14
  L 249.96 129.76
  Q 251.54 130.00 251.53 128.75
  Q 251.49 121.50 251.45 114.31
  Q 251.35 114.69 251.92 114.46
  Q 252.29 114.31 252.19 114.70
  Q 251.67 116.71 251.89 118.79
  Q 251.91 119.04 252.08 118.85
  Q 252.18 118.74 252.27 118.61
  Q 252.37 118.49 252.31 118.34
  Q 252.07 117.61 252.12 116.80
  Q 252.14 116.44 252.46 116.27
  Q 253.22 115.86 254.00 115.94
  Q 254.56 116.00 254.83 115.51
  Q 255.16 114.90 255.71 114.41
  Q 256.04 114.11 256.30 114.46
  Q 256.33 114.50 256.37 114.52
  Q 256.46 114.56 256.56 114.53
  Q 259.03 113.78 260.80 112.04
  Q 261.13 111.71 261.59 111.60
  L 263.47 111.18
  Q 263.89 111.09 263.78 110.67
  Q 263.48 109.56 264.57 108.97
  Q 265.02 108.72 265.22 108.25
  Q 265.87 106.71 266.98 105.37
  C 267.61 104.61 268.49 104.70 269.03 103.78
  Q 269.31 103.29 269.85 103.17
  L 271.57 102.79
  A 0.53 0.51 -75.6 0 0 271.84 102.62
  Q 272.09 102.31 272.11 101.94
  Q 272.14 101.48 272.49 101.18
  Q 274.43 99.53 275.78 97.23
  A 1.24 1.23 -82.3 0 1 276.55 96.64
  L 280.78 95.58
  Q 281.45 95.41 281.30 94.74
  Q 281.26 94.56 281.23 94.38
  Q 281.10 93.59 281.89 93.74
  Q 282.24 93.81 282.57 93.72
  Q 282.88 93.64 283.12 93.44
  Q 285.08 91.82 286.47 89.70
  Q 286.72 89.34 287.13 89.18
  Q 287.25 89.14 287.37 89.10
  Q 287.51 89.06 287.53 88.91
  Q 288.09 84.27 292.13 80.70
  A 0.71 0.70 -72.0 0 1 292.40 80.56
  L 297.16 79.54
  Q 297.71 79.42 298.08 79.00
  L 303.15 73.18
  Q 303.54 72.74 303.64 72.15
  Q 304.34 68.26 307.65 65.16
  Q 309.22 63.69 311.88 64.24
  Q 312.39 64.34 312.44 63.83
  L 312.54 62.96
  Q 312.60 62.41 313.15 62.49
  Q 313.29 62.51 313.44 62.52
  Q 313.99 62.56 314.44 62.24
  Q 316.91 60.43 318.21 57.73
  Q 318.38 57.37 318.73 57.16
  Q 318.91 57.06 319.13 57.03
  Q 319.43 56.99 319.48 56.68
  L 320.28 52.18
  Q 320.39 51.58 320.85 51.20
  Q 321.93 50.33 322.41 48.98
  Q 322.61 48.43 323.19 48.33
  Q 324.76 48.06 326.49 47.90
  Q 328.48 47.72 328.97 45.97
  Q 329.12 45.47 329.50 45.10
  C 330.64 44.04 331.82 42.86 332.53 41.44
  Q 333.41 39.71 334.98 38.79
  Q 335.40 38.54 335.47 38.06
  L 336.10 33.46
  Q 336.19 32.84 336.79 32.70
  L 337.79 32.46
  Q 338.10 32.38 338.01 32.08
  Q 337.59 30.62 339.10 29.94
  Q 339.57 29.73 339.85 29.31
  Q 340.33 28.57 340.79 27.85
  Q 341.12 27.33 341.27 26.70
  Q 341.91 24.09 343.85 21.99
  Q 344.29 21.51 344.37 22.16
  Q 344.45 22.74 344.61 23.31
  Q 344.62 23.35 344.66 23.38
  Q 344.70 23.41 344.76 23.41
  Q 344.90 23.40 344.83 23.28
  Q 344.15 22.09 345.41 21.34
  Q 345.84 21.09 345.89 21.58
  Q 345.92 21.86 346.15 22.01
  Q 346.45 22.21 346.51 21.86
  Q 346.55 21.58 346.92 21.39
  Z"
/>
<path fill="#ffd648" d="
  M 486.63 167.03
  Q 485.18 167.49 484.49 166.75
  Q 484.25 166.50 484.09 166.81
  Q 484.02 166.95 484.06 167.07
  Q 484.39 167.99 483.42 167.74
  Q 482.93 167.62 482.84 168.15
  A 0.26 0.26 0.0 0 1 482.45 168.34
  Q 482.33 168.27 482.23 168.18
  Q 481.81 167.80 481.52 168.29
  L 480.50 169.96
  Q 480.16 170.52 479.51 170.55
  Q 477.94 170.61 477.83 172.17
  A 1.06 1.04 84.7 0 1 477.05 173.12
  L 472.81 174.24
  Q 472.19 174.40 472.17 175.04
  Q 472.16 175.25 472.11 175.46
  Q 471.97 175.98 471.43 176.05
  L 468.52 176.40
  Q 467.99 176.47 467.78 176.96
  C 467.52 177.60 467.33 178.14 466.74 178.56
  Q 460.85 182.83 455.04 187.21
  C 453.76 188.17 451.49 190.40 451.34 192.13
  Q 451.27 192.94 450.61 193.43
  Q 449.08 194.54 447.12 195.21
  Q 446.56 195.40 446.27 195.91
  Q 445.86 196.60 445.11 196.85
  Q 444.53 197.04 444.26 197.59
  Q 443.89 198.35 443.11 198.58
  Q 442.60 198.74 442.17 199.06
  L 440.50 200.34
  Q 440.08 200.65 440.14 201.18
  Q 440.34 202.72 438.86 203.13
  Q 438.32 203.29 438.02 203.77
  Q 437.83 204.08 437.69 204.42
  Q 437.48 204.90 437.58 204.38
  Q 437.61 204.24 437.59 204.09
  Q 437.53 203.54 437.23 204.01
  Q 436.88 204.56 436.20 204.91
  C 435.13 205.45 434.79 206.68 435.04 207.76
  Q 435.15 208.23 434.90 208.65
  Q 433.84 210.42 432.20 211.46
  Q 431.01 212.21 429.93 213.34
  Q 428.17 215.19 426.64 216.87
  Q 426.31 217.23 426.23 217.71
  Q 425.79 220.34 424.33 222.62
  Q 423.79 223.47 422.99 223.69
  Q 422.05 223.96 421.06 224.13
  Q 420.56 224.21 420.25 224.63
  L 416.48 229.77
  Q 416.21 230.15 416.12 230.60
  L 415.44 234.17
  Q 415.35 234.60 414.95 234.80
  Q 411.79 236.30 409.90 238.97
  A 1.47 1.46 -78.4 0 1 409.01 239.56
  L 404.73 240.44
  A 1.36 1.34 13.2 0 0 403.96 240.91
  Q 402.65 242.55 400.74 243.69
  A 1.17 1.15 79.1 0 0 400.19 244.52
  L 399.37 250.22
  Q 399.33 250.54 399.03 250.63
  L 396.85 251.27
  Q 396.24 251.45 395.91 252.00
  Q 395.53 252.64 394.77 252.91
  Q 394.13 253.13 393.92 253.78
  L 393.58 254.86
  Q 393.42 255.37 392.89 255.47
  L 388.25 256.30
  A 1.06 1.05 4.2 0 0 387.44 256.99
  Q 386.70 259.14 384.76 260.18
  Q 384.26 260.44 384.18 261.00
  L 383.43 266.06
  Q 383.36 266.54 382.88 266.65
  Q 379.33 267.46 378.04 271.08
  Q 377.90 271.45 377.52 271.50
  C 376.11 271.67 374.63 271.97 373.61 273.03
  Q 371.49 275.23 369.42 277.16
  Q 369.19 277.38 368.89 277.52
  Q 368.27 277.81 368.17 278.51
  Q 367.85 280.74 367.54 282.92
  Q 367.46 283.47 367.02 283.81
  Q 365.60 284.90 364.56 286.42
  Q 364.29 286.83 363.81 286.97
  Q 362.22 287.46 360.47 287.93
  Q 358.61 288.44 357.38 289.47
  Q 354.14 292.19 352.45 295.05
  Q 351.48 296.69 351.38 298.69
  Q 351.36 299.14 351.00 299.41
  Q 349.52 300.52 348.29 301.87
  Q 347.93 302.26 347.41 302.44
  C 346.38 302.81 345.52 303.00 344.61 303.69
  Q 343.86 304.25 342.91 304.45
  Q 342.02 304.64 341.17 305.16
  Q 336.92 307.77 335.65 312.15
  Q 335.00 314.37 334.07 315.81
  A 0.84 0.83 -71.5 0 1 333.30 316.20
  Q 332.02 316.11 331.75 317.39
  Q 331.66 317.83 331.26 318.03
  Q 330.00 318.67 328.64 319.54
  Q 327.35 320.36 326.32 321.41
  Q 324.61 323.16 322.65 324.81
  Q 322.28 325.12 321.80 325.21
  Q 321.17 325.31 320.76 325.84
  Q 319.72 327.21 319.09 328.67
  Q 319.06 328.74 319.10 328.80
  Q 319.16 328.92 319.29 328.98
  Q 319.38 329.03 319.35 329.13
  Q 318.66 331.77 316.71 333.29
  Q 316.19 333.70 316.53 334.27
  Q 316.68 334.52 316.69 334.81
  Q 316.73 335.59 315.94 335.62
  Q 314.66 335.65 313.82 336.61
  Q 313.56 336.90 313.18 336.91
  Q 311.06 336.97 309.76 339.04
  C 309.17 339.98 309.51 340.93 309.05 341.98
  Q 308.82 342.51 309.02 343.05
  Q 309.46 344.25 308.76 345.32
  Q 307.05 347.97 304.71 349.88
  A 1.37 1.34 74.3 0 0 304.21 350.80
  L 304.12 351.53
  Q 304.05 352.18 303.39 352.18
  C 301.45 352.16 301.21 354.00 299.89 354.91
  Q 299.47 355.21 299.24 355.66
  Q 298.94 356.26 298.76 356.92
  Q 298.62 357.41 298.21 357.71
  Q 295.46 359.73 292.42 361.49
  Q 289.38 363.24 286.57 365.83
  A 1.23 1.22 25.1 0 1 285.67 366.15
  Q 285.05 366.11 284.49 366.26
  Q 284.09 366.37 284.20 366.77
  Q 284.50 367.76 283.54 368.39
  Q 283.26 368.57 283.32 368.24
  Q 283.37 367.99 283.12 367.96
  Q 282.96 367.95 282.81 368.02
  Q 281.06 368.80 281.18 369.54
  L 251.00 369.50
  A 0.53 0.53 0.0 0 0 250.47 370.03
  L 250.51 386.25
  Q 250.51 386.77 251.03 386.77
  L 265.45 386.82
  Q 267.59 387.35 269.95 387.10
  Q 270.18 387.08 270.03 387.26
  Q 269.88 387.45 269.62 387.39
  Q 268.72 387.18 267.92 387.53
  A 0.84 0.84 0.0 0 1 267.01 387.39
  Q 266.51 386.95 266.10 387.41
  Q 265.80 387.75 265.36 387.65
  Q 264.88 387.56 264.40 387.67
  Q 263.84 387.80 264.13 388.30
  Q 264.25 388.50 264.47 388.59
  Q 264.91 388.76 265.04 388.31
  Q 265.14 387.98 265.56 388.08
  Q 265.82 388.14 265.60 388.27
  Q 265.36 388.42 265.50 388.45
  Q 266.28 388.60 265.50 388.72
  Q 264.11 388.93 262.77 388.98
  Q 262.09 389.01 262.18 389.68
  Q 262.42 391.65 260.60 392.97
  Q 260.20 393.26 260.05 393.73
  L 259.14 396.72
  A 1.62 1.61 4.3 0 1 257.83 397.84
  Q 256.48 398.04 256.01 399.27
  Q 255.81 399.77 255.30 399.90
  Q 253.70 400.30 252.33 401.47
  A 1.44 1.41 -13.8 0 0 251.89 402.18
  Q 251.67 402.99 250.81 403.31
  Q 250.16 403.55 250.35 402.89
  Q 250.56 402.19 249.99 401.77
  Q 249.46 401.39 249.14 401.96
  Q 248.56 403.02 249.41 403.88
  Q 249.95 404.42 249.23 404.68
  Q 248.86 404.81 248.59 405.13
  Q 248.28 405.50 248.12 405.96
  Q 247.66 407.31 246.56 408.23
  Q 246.14 408.57 245.98 409.08
  L 245.54 410.51
  Q 245.37 411.05 244.83 410.90
  Q 244.48 410.81 244.12 410.95
  C 243.22 411.32 242.80 412.27 242.20 412.99
  Q 241.76 413.52 241.49 414.17
  Q 240.84 415.78 239.01 415.85
  A 1.12 1.12 0.0 0 0 237.94 416.80
  L 237.61 419.05
  Q 237.51 419.68 236.87 419.63
  Q 235.57 419.52 235.46 420.88
  A 0.79 0.79 0.0 0 1 234.70 421.60
  Q 231.72 421.70 231.66 424.66
  A 0.91 0.91 0.0 0 1 231.00 425.51
  L 228.98 426.11
  Q 228.11 426.36 227.95 427.25
  Q 227.80 428.02 227.01 428.12
  Q 226.27 428.21 226.11 428.94
  L 225.62 431.16
  Q 225.53 431.58 225.10 431.69
  L 222.83 432.25
  A 0.83 0.82 -2.3 0 0 222.21 432.91
  L 221.85 435.02
  Q 221.73 435.67 221.07 435.68
  Q 219.80 435.68 219.66 436.96
  Q 219.62 437.33 219.26 437.43
  L 216.64 438.17
  Q 216.19 438.29 216.03 438.73
  Q 215.65 439.77 215.65 440.91
  Q 215.65 441.49 215.08 441.59
  L 212.75 441.98
  Q 211.89 442.13 211.88 443.01
  L 211.88 443.28
  A 0.61 0.61 0.0 0 1 211.14 443.88
  Q 210.73 443.80 210.42 444.07
  Q 209.97 444.46 209.87 445.04
  Q 209.71 445.98 209.63 446.99
  Q 209.59 447.52 209.07 447.60
  L 205.12 448.27
  Q 204.63 448.35 204.35 448.75
  Q 202.72 451.08 201.05 453.49
  C 199.94 455.11 199.88 456.67 199.67 458.51
  Q 199.61 459.09 199.03 459.18
  Q 196.21 459.62 194.69 461.89
  Q 193.36 463.86 191.01 464.13
  A 1.07 1.07 0.0 0 0 190.08 465.39
  Q 190.31 466.66 190.02 467.69
  Q 189.87 468.22 189.33 468.36
  L 187.89 468.76
  Q 187.41 468.89 187.41 469.38
  L 187.41 472.12
  A 2.67 2.67 0.0 0 1 185.63 474.64
  L 184.30 475.11
  Q 183.68 475.33 183.46 475.96
  Q 183.14 476.88 182.49 477.54
  Q 180.09 479.98 177.08 482.13
  Q 175.79 483.05 175.58 484.39
  Q 175.50 484.86 175.04 484.95
  L 173.75 485.21
  Q 173.31 485.29 173.18 485.73
  L 172.77 487.09
  C 150.63 478.72 128.79 460.24 129.84 434.18
  Q 129.96 431.15 129.97 428.23
  Q 130.02 378.72 129.90 327.09
  Q 129.88 316.70 130.90 309.55
  C 135.24 279.17 158.47 262.01 187.64 257.91
  Q 193.96 257.02 203.13 257.05
  Q 260.29 257.21 319.91 257.09
  C 356.10 257.02 380.56 236.26 387.01 200.42
  Q 388.42 192.61 388.35 180.65
  Q 388.17 153.31 388.32 126.53
  A 0.28 0.27 -89.0 0 1 388.60 126.25
  Q 405.79 126.37 427.33 126.21
  Q 435.59 126.15 441.82 127.62
  C 462.36 132.49 477.71 148.29 486.63 167.03
  Z"
/>
<path fill="#3775a9" d="
  M 249.96 129.76
  L 249.53 130.14
  Q 249.13 130.47 248.64 130.32
  Q 245.51 129.37 242.58 130.43
  Q 242.30 130.53 242.41 130.25
  Q 242.44 130.19 242.43 130.12
  Q 242.41 129.99 242.30 130.07
  Q 241.95 130.30 241.55 130.36
  Q 241.11 130.43 241.64 130.27
  Q 241.77 130.24 241.73 130.06
  Q 241.72 130.02 241.68 130.02
  Q 240.48 129.91 239.31 130.06
  Q 238.87 130.12 239.29 130.25
  Q 239.60 130.36 239.86 130.30
  Q 239.91 130.29 239.95 130.32
  Q 240.01 130.37 239.93 130.37
  Q 239.89 130.37 239.84 130.37
  Q 239.00 130.37 238.10 130.47
  Q 238.00 130.48 237.97 130.58
  Q 237.95 130.64 238.00 130.67
  Q 238.05 130.70 238.10 130.69
  Q 238.77 130.63 239.43 131.04
  Q 239.88 131.32 239.51 131.71
  Q 237.48 133.81 234.65 134.02
  Q 230.01 134.35 230.10 138.24
  Q 230.11 138.84 229.51 138.89
  Q 228.65 138.97 228.87 140.80
  A 1.23 1.20 18.5 0 0 229.26 141.56
  Q 229.93 142.15 229.62 143.05
  Q 229.46 143.51 228.98 143.59
  L 225.03 144.23
  A 0.93 0.92 -0.1 0 0 224.27 144.98
  L 223.56 148.88
  Q 223.46 149.42 222.91 149.35
  Q 222.33 149.28 222.03 149.76
  Q 220.73 151.84 219.02 153.54
  Q 218.64 153.91 218.64 154.45
  L 218.64 155.56
  Q 218.64 156.11 218.09 156.10
  Q 215.32 156.07 214.74 158.90
  Q 214.63 159.46 214.09 159.65
  L 212.04 160.37
  A 1.05 1.04 86.9 0 0 211.37 161.12
  Q 210.91 163.29 208.91 164.53
  Q 208.46 164.80 208.30 165.30
  Q 207.90 166.52 207.56 167.77
  Q 207.41 168.32 207.02 168.64
  Q 206.83 168.79 206.62 168.90
  Q 206.17 169.11 205.95 169.55
  Q 204.50 172.51 201.79 174.91
  Q 201.00 175.61 200.05 175.77
  C 198.94 175.95 198.02 176.37 196.90 176.41
  Q 196.09 176.45 195.59 177.12
  Q 195.14 177.73 194.58 178.27
  Q 191.92 180.84 191.63 184.19
  A 1.25 1.23 74.6 0 1 191.13 185.08
  Q 190.03 185.87 189.27 187.15
  Q 189.04 187.53 188.60 187.54
  Q 188.46 187.54 188.34 187.50
  Q 187.60 187.26 187.53 188.03
  Q 187.37 189.99 185.50 191.16
  Q 184.14 192.01 182.35 192.09
  Q 180.66 192.16 179.43 193.31
  Q 176.02 196.50 175.58 200.40
  Q 175.52 200.94 175.08 201.25
  Q 173.59 202.28 172.76 203.88
  A 1.88 1.82 -3.0 0 1 172.05 204.64
  Q 170.49 205.57 169.31 207.00
  A 1.66 1.65 16.1 0 1 168.23 207.59
  L 162.86 208.28
  Q 162.08 208.38 161.98 209.15
  Q 161.82 210.32 160.95 210.98
  Q 160.49 211.32 160.37 211.89
  L 159.85 214.35
  Q 159.74 214.86 159.26 215.09
  Q 157.74 215.80 156.49 217.09
  Q 156.14 217.45 156.14 217.96
  L 156.14 218.51
  Q 156.14 218.75 155.90 218.70
  Q 155.34 218.57 154.94 218.93
  Q 152.86 220.81 151.75 223.04
  Q 151.50 223.54 150.95 223.65
  L 146.91 224.46
  A 1.49 1.47 -75.0 0 0 146.09 224.94
  Q 145.53 225.57 145.00 226.28
  Q 144.45 227.02 144.28 227.94
  Q 143.94 229.76 143.56 231.42
  A 1.28 1.26 -2.5 0 1 142.70 232.35
  Q 141.54 232.72 141.17 233.70
  Q 140.86 234.52 140.23 235.28
  Q 139.42 236.25 138.62 237.31
  Q 137.89 238.28 136.98 239.01
  Q 134.28 241.20 132.11 244.01
  Q 130.81 245.70 128.92 245.11
  Q 128.38 244.94 128.15 245.47
  Q 127.78 246.32 127.09 247.07
  A 1.28 1.28 0.0 0 0 126.74 248.02
  Q 126.92 250.73 125.25 252.81
  Q 124.91 253.24 124.93 253.78
  Q 124.94 254.04 124.84 254.28
  Q 124.62 254.85 124.03 255.00
  Q 121.51 255.62 119.38 257.12
  Q 118.16 257.98 116.82 258.67
  Q 116.54 258.81 116.36 259.06
  L 114.53 261.54
  Q 114.26 261.90 113.84 261.74
  Q 113.43 261.58 112.96 261.60
  Q 112.52 261.63 112.17 261.87
  Q 109.27 263.82 108.81 266.37
  Q 108.71 266.92 108.28 267.28
  Q 106.51 268.77 106.09 270.80
  Q 105.97 271.37 105.41 271.52
  C 104.13 271.86 102.80 272.01 101.71 272.81
  Q 99.60 274.37 97.84 276.36
  Q 97.53 276.71 97.07 276.63
  Q 96.92 276.60 96.79 276.66
  Q 96.41 276.83 96.32 277.23
  L 95.62 280.27
  Q 95.50 280.79 94.97 280.87
  L 94.48 280.94
  Q 93.95 281.02 93.64 281.46
  Q 91.65 284.34 89.41 287.23
  A 1.12 1.10 -75.4 0 1 88.71 287.65
  L 84.14 288.45
  Q 83.68 288.54 83.34 288.86
  L 80.93 291.15
  A 0.52 0.51 -30.4 0 0 80.79 291.67
  Q 80.97 292.27 80.44 292.59
  A 0.68 0.65 -11.8 0 0 80.13 293.04
  L 79.62 295.83
  A 1.14 1.10 -11.8 0 1 79.14 296.54
  L 78.15 297.17
  A 1.03 1.00 89.0 0 0 77.87 297.47
  Q 76.59 299.52 74.74 301.14
  Q 74.06 301.73 73.75 302.60
  Q 73.57 303.10 73.10 303.33
  Q 71.19 304.26 69.34 304.42
  Q 68.80 304.46 68.43 304.84
  L 64.79 308.44
  Q 64.41 308.82 64.29 309.34
  L 63.59 312.34
  Q 63.54 312.58 63.30 312.52
  Q 63.09 312.46 62.88 312.46
  A 0.44 0.43 84.5 0 0 62.46 312.98
  Q 62.49 313.16 62.42 313.31
  Q 62.37 313.41 62.29 313.50
  Q 60.53 315.47 58.51 317.17
  Q 58.07 317.54 57.85 318.07
  C 57.08 319.98 54.64 320.05 52.90 320.29
  A 1.75 1.74 -74.8 0 0 51.79 320.93
  Q 50.62 322.42 48.94 323.28
  Q 48.51 323.51 48.40 323.98
  L 47.69 327.03
  Q 47.57 327.54 47.05 327.54
  Q 44.81 327.53 43.24 329.38
  Q 41.23 331.75 39.63 334.99
  Q 39.36 335.53 38.76 335.57
  L 33.95 335.93
  Q 33.44 335.97 33.18 336.42
  Q 32.53 337.56 32.69 338.71
  Q 32.74 339.07 32.37 339.13
  Q 32.00 339.19 31.81 339.56
  Q 31.58 340.01 31.79 340.46
  Q 32.05 341.05 31.73 341.61
  Q 31.33 342.29 31.40 341.51
  Q 31.43 341.10 31.30 340.76
  Q 31.10 340.22 30.57 340.44
  L 22.02 343.97
  C 8.74 323.67 3.01 299.20 1.14 275.37
  Q 0.45 266.52 0.00 257.62
  L 0.00 241.00
  Q 0.45 232.66 1.14 224.38
  C 4.25 186.72 19.33 144.42 59.45 132.36
  Q 69.13 129.45 78.97 129.64
  Q 83.94 129.73 84.03 129.73
  Q 167.00 129.70 249.96 129.76
  Z"
/>
<path fill="#ffcf3e" d="
  M 486.63 167.03
  Q 495.07 185.08 498.30 205.00
  Q 499.15 210.18 500.00 215.38
  L 500.00 282.99
  Q 498.63 291.70 496.73 300.24
  C 489.01 334.88 466.60 366.71 428.25 369.50
  Q 427.85 369.53 408.25 369.54
  Q 344.75 369.58 281.18 369.54
  Q 281.06 368.80 282.81 368.02
  Q 282.96 367.95 283.12 367.96
  Q 283.37 367.99 283.32 368.24
  Q 283.26 368.57 283.54 368.39
  Q 284.50 367.76 284.20 366.77
  Q 284.09 366.37 284.49 366.26
  Q 285.05 366.11 285.67 366.15
  A 1.23 1.22 25.1 0 0 286.57 365.83
  Q 289.38 363.24 292.42 361.49
  Q 295.46 359.73 298.21 357.71
  Q 298.62 357.41 298.76 356.92
  Q 298.94 356.26 299.24 355.66
  Q 299.47 355.21 299.89 354.91
  C 301.21 354.00 301.45 352.16 303.39 352.18
  Q 304.05 352.18 304.12 351.53
  L 304.21 350.80
  A 1.37 1.34 74.3 0 1 304.71 349.88
  Q 307.05 347.97 308.76 345.32
  Q 309.46 344.25 309.02 343.05
  Q 308.82 342.51 309.05 341.98
  C 309.51 340.93 309.17 339.98 309.76 339.04
  Q 311.06 336.97 313.18 336.91
  Q 313.56 336.90 313.82 336.61
  Q 314.66 335.65 315.94 335.62
  Q 316.73 335.59 316.69 334.81
  Q 316.68 334.52 316.53 334.27
  Q 316.19 333.70 316.71 333.29
  Q 318.66 331.77 319.35 329.13
  Q 319.38 329.03 319.29 328.98
  Q 319.16 328.92 319.10 328.80
  Q 319.06 328.74 319.09 328.67
  Q 319.72 327.21 320.76 325.84
  Q 321.17 325.31 321.80 325.21
  Q 322.28 325.12 322.65 324.81
  Q 324.61 323.16 326.32 321.41
  Q 327.35 320.36 328.64 319.54
  Q 330.00 318.67 331.26 318.03
  Q 331.66 317.83 331.75 317.39
  Q 332.02 316.11 333.30 316.20
  A 0.84 0.83 -71.5 0 0 334.07 315.81
  Q 335.00 314.37 335.65 312.15
  Q 336.92 307.77 341.17 305.16
  Q 342.02 304.64 342.91 304.45
  Q 343.86 304.25 344.61 303.69
  C 345.52 303.00 346.38 302.81 347.41 302.44
  Q 347.93 302.26 348.29 301.87
  Q 349.52 300.52 351.00 299.41
  Q 351.36 299.14 351.38 298.69
  Q 351.48 296.69 352.45 295.05
  Q 354.14 292.19 357.38 289.47
  Q 358.61 288.44 360.47 287.93
  Q 362.22 287.46 363.81 286.97
  Q 364.29 286.83 364.56 286.42
  Q 365.60 284.90 367.02 283.81
  Q 367.46 283.47 367.54 282.92
  Q 367.85 280.74 368.17 278.51
  Q 368.27 277.81 368.89 277.52
  Q 369.19 277.38 369.42 277.16
  Q 371.49 275.23 373.61 273.03
  C 374.63 271.97 376.11 271.67 377.52 271.50
  Q 377.90 271.45 378.04 271.08
  Q 379.33 267.46 382.88 266.65
  Q 383.36 266.54 383.43 266.06
  L 384.18 261.00
  Q 384.26 260.44 384.76 260.18
  Q 386.70 259.14 387.44 256.99
  A 1.06 1.05 4.2 0 1 388.25 256.30
  L 392.89 255.47
  Q 393.42 255.37 393.58 254.86
  L 393.92 253.78
  Q 394.13 253.13 394.77 252.91
  Q 395.53 252.64 395.91 252.00
  Q 396.24 251.45 396.85 251.27
  L 399.03 250.63
  Q 399.33 250.54 399.37 250.22
  L 400.19 244.52
  A 1.17 1.15 79.1 0 1 400.74 243.69
  Q 402.65 242.55 403.96 240.91
  A 1.36 1.34 13.2 0 1 404.73 240.44
  L 409.01 239.56
  A 1.47 1.46 -78.4 0 0 409.90 238.97
  Q 411.79 236.30 414.95 234.80
  Q 415.35 234.60 415.44 234.17
  L 416.12 230.60
  Q 416.21 230.15 416.48 229.77
  L 420.25 224.63
  Q 420.56 224.21 421.06 224.13
  Q 422.05 223.96 422.99 223.69
  Q 423.79 223.47 424.33 222.62
  Q 425.79 220.34 426.23 217.71
  Q 426.31 217.23 426.64 216.87
  Q 428.17 215.19 429.93 213.34
  Q 431.01 212.21 432.20 211.46
  Q 433.84 210.42 434.90 208.65
  Q 435.15 208.23 435.04 207.76
  C 434.79 206.68 435.13 205.45 436.20 204.91
  Q 436.88 204.56 437.23 204.01
  Q 437.53 203.54 437.59 204.09
  Q 437.61 204.24 437.58 204.38
  Q 437.48 204.90 437.69 204.42
  Q 437.83 204.08 438.02 203.77
  Q 438.32 203.29 438.86 203.13
  Q 440.34 202.72 440.14 201.18
  Q 440.08 200.65 440.50 200.34
  L 442.17 199.06
  Q 442.60 198.74 443.11 198.58
  Q 443.89 198.35 444.26 197.59
  Q 444.53 197.04 445.11 196.85
  Q 445.86 196.60 446.27 195.91
  Q 446.56 195.40 447.12 195.21
  Q 449.08 194.54 450.61 193.43
  Q 451.27 192.94 451.34 192.13
  C 451.49 190.40 453.76 188.17 455.04 187.21
  Q 460.85 182.83 466.74 178.56
  C 467.33 178.14 467.52 177.60 467.78 176.96
  Q 467.99 176.47 468.52 176.40
  L 471.43 176.05
  Q 471.97 175.98 472.11 175.46
  Q 472.16 175.25 472.17 175.04
  Q 472.19 174.40 472.81 174.24
  L 477.05 173.12
  A 1.06 1.04 84.7 0 0 477.83 172.17
  Q 477.94 170.61 479.51 170.55
  Q 480.16 170.52 480.50 169.96
  L 481.52 168.29
  Q 481.81 167.80 482.23 168.18
  Q 482.33 168.27 482.45 168.34
  A 0.26 0.26 0.0 0 0 482.84 168.15
  Q 482.93 167.62 483.42 167.74
  Q 484.39 167.99 484.06 167.07
  Q 484.02 166.95 484.09 166.81
  Q 484.25 166.50 484.49 166.75
  Q 485.18 167.49 486.63 167.03
  Z"
/>
<path fill="#ffcf3e" d="
  M 265.45 386.82
  L 371.43 386.84
  Q 372.03 386.84 372.03 387.44
  Q 372.04 414.33 372.30 443.00
  Q 372.36 449.07 371.19 453.54
  C 365.87 473.94 343.12 485.55 323.98 490.98
  C 298.70 498.16 272.34 499.64 244.61 499.19
  C 220.35 498.79 195.23 495.92 172.77 487.09
  L 173.18 485.73
  Q 173.31 485.29 173.75 485.21
  L 175.04 484.95
  Q 175.50 484.86 175.58 484.39
  Q 175.79 483.05 177.08 482.13
  Q 180.09 479.98 182.49 477.54
  Q 183.14 476.88 183.46 475.96
  Q 183.68 475.33 184.30 475.11
  L 185.63 474.64
  A 2.67 2.67 0.0 0 0 187.41 472.12
  L 187.41 469.38
  Q 187.41 468.89 187.89 468.76
  L 189.33 468.36
  Q 189.87 468.22 190.02 467.69
  Q 190.31 466.66 190.08 465.39
  A 1.07 1.07 0.0 0 1 191.01 464.13
  Q 193.36 463.86 194.69 461.89
  Q 196.21 459.62 199.03 459.18
  Q 199.61 459.09 199.67 458.51
  C 199.88 456.67 199.94 455.11 201.05 453.49
  Q 202.72 451.08 204.35 448.75
  Q 204.63 448.35 205.12 448.27
  L 209.07 447.60
  Q 209.59 447.52 209.63 446.99
  Q 209.71 445.98 209.87 445.04
  Q 209.97 444.46 210.42 444.07
  Q 210.73 443.80 211.14 443.88
  A 0.61 0.61 0.0 0 0 211.88 443.28
  L 211.88 443.01
  Q 211.89 442.13 212.75 441.98
  L 215.08 441.59
  Q 215.65 441.49 215.65 440.91
  Q 215.65 439.77 216.03 438.73
  Q 216.19 438.29 216.64 438.17
  L 219.26 437.43
  Q 219.62 437.33 219.66 436.96
  Q 219.80 435.68 221.07 435.68
  Q 221.73 435.67 221.85 435.02
  L 222.21 432.91
  A 0.83 0.82 -2.3 0 1 222.83 432.25
  L 225.10 431.69
  Q 225.53 431.58 225.62 431.16
  L 226.11 428.94
  Q 226.27 428.21 227.01 428.12
  Q 227.80 428.02 227.95 427.25
  Q 228.11 426.36 228.98 426.11
  L 231.00 425.51
  A 0.91 0.91 0.0 0 0 231.66 424.66
  Q 231.72 421.70 234.70 421.60
  A 0.79 0.79 0.0 0 0 235.46 420.88
  Q 235.57 419.52 236.87 419.63
  Q 237.51 419.68 237.61 419.05
  L 237.94 416.80
  A 1.12 1.12 0.0 0 1 239.01 415.85
  Q 240.84 415.78 241.49 414.17
  Q 241.76 413.52 242.20 412.99
  C 242.80 412.27 243.22 411.32 244.12 410.95
  Q 244.48 410.81 244.83 410.90
  Q 245.37 411.05 245.54 410.51
  L 245.98 409.08
  Q 246.14 408.57 246.56 408.23
  Q 247.66 407.31 248.12 405.96
  Q 248.28 405.50 248.59 405.13
  Q 248.86 404.81 249.23 404.68
  Q 249.95 404.42 249.41 403.88
  Q 248.56 403.02 249.14 401.96
  Q 249.46 401.39 249.99 401.77
  Q 250.56 402.19 250.35 402.89
  Q 250.16 403.55 250.81 403.31
  Q 251.67 402.99 251.89 402.18
  A 1.44 1.41 -13.8 0 1 252.33 401.47
  Q 253.70 400.30 255.30 399.90
  Q 255.81 399.77 256.01 399.27
  Q 256.48 398.04 257.83 397.84
  A 1.62 1.61 4.3 0 0 259.14 396.72
  L 260.05 393.73
  Q 260.20 393.26 260.60 392.97
  Q 262.42 391.65 262.18 389.68
  Q 262.09 389.01 262.77 388.98
  Q 264.11 388.93 265.50 388.72
  Q 266.28 388.60 265.50 388.45
  Q 265.36 388.42 265.60 388.27
  Q 265.82 388.14 265.56 388.08
  Q 265.14 387.98 265.04 388.31
  Q 264.91 388.76 264.47 388.59
  Q 264.25 388.50 264.13 388.30
  Q 263.84 387.80 264.40 387.67
  Q 264.88 387.56 265.36 387.65
  Q 265.80 387.75 266.10 387.41
  Q 266.51 386.95 267.01 387.39
  A 0.84 0.84 0.0 0 0 267.92 387.53
  Q 268.72 387.18 269.62 387.39
  Q 269.88 387.45 270.03 387.26
  Q 270.18 387.08 269.95 387.10
  Q 267.59 387.35 265.45 386.82
  Z
  M 341.71 438.92
  A 21.90 21.90 0.0 0 0 319.81 417.02
  A 21.90 21.90 0.0 0 0 297.91 438.92
  A 21.90 21.90 0.0 0 0 319.81 460.82
  A 21.90 21.90 0.0 0 0 341.71 438.92
  Z"
/>
</svg>
