<?xml version="1.0" encoding="UTF-8" standalone="no"?>
<!DOCTYPE svg PUBLIC "-//W3C//DTD SVG 1.1//EN" "http://www.w3.org/Graphics/SVG/1.1/DTD/svg11.dtd">
<svg xmlns="http://www.w3.org/2000/svg" version="1.1" viewBox="0.00 0.00 256.00 228.00">
<path fill="#05d7fb" d="
  M 69.64 0.00
  L 82.83 0.00
  Q 104.24 7.62 120.74 21.78
  Q 123.92 24.51 127.39 27.16
  A 2.17 2.17 0.0 0 0 130.19 27.04
  Q 137.65 20.20 145.13 14.63
  Q 155.87 6.61 173.03 0.00
  L 186.91 0.00
  Q 197.85 5.12 202.30 15.16
  C 206.96 25.65 207.62 37.19 206.61 49.11
  Q 205.63 60.75 202.74 70.91
  A 0.62 0.62 0.0 0 0 203.17 71.68
  C 218.91 76.13 234.31 83.05 246.32 94.13
  C 250.08 97.59 252.91 101.94 256.00 106.11
  L 256.00 121.48
  C 244.50 141.12 224.64 150.14 204.05 157.35
  A 0.90 0.90 0.0 0 0 203.47 158.44
  Q 207.04 171.56 207.30 186.56
  C 207.46 195.64 206.21 207.33 201.64 215.39
  Q 197.57 222.56 188.78 228.00
  L 170.47 228.00
  Q 165.78 225.20 160.73 223.00
  Q 155.22 220.60 151.99 218.46
  Q 140.87 211.11 129.57 201.20
  A 0.99 0.99 0.0 0 0 128.28 201.19
  Q 123.81 204.98 119.02 209.03
  Q 111.81 215.14 102.02 220.55
  Q 97.00 223.32 93.03 224.54
  Q 91.68 224.95 87.43 228.00
  L 68.27 228.00
  Q 55.85 220.45 52.48 207.98
  Q 50.99 202.45 50.47 198.29
  C 48.84 185.08 50.96 171.48 53.73 158.50
  Q 53.91 157.70 53.12 157.45
  C 40.35 153.37 27.64 148.09 16.84 139.88
  Q 5.88 131.56 0.00 118.83
  L 0.00 109.04
  C 4.94 100.19 8.89 93.98 16.30 88.81
  Q 32.99 77.15 53.31 71.79
  Q 54.36 71.51 54.10 70.45
  Q 51.60 60.42 50.52 51.19
  Q 48.89 37.21 51.57 23.51
  Q 52.86 16.89 56.43 11.17
  C 60.09 5.32 64.67 3.62 69.64 0.00
  Z
  M 73.33 66.86
  C 78.43 65.72 83.69 65.48 88.78 64.56
  C 92.96 63.80 98.12 65.15 101.00 61.01
  Q 109.20 49.20 119.82 37.79
  A 1.56 1.55 43.8 0 0 119.77 35.63
  Q 108.61 24.62 94.50 16.87
  C 87.54 13.04 72.61 7.66 66.70 15.81
  C 61.49 23.00 60.49 34.36 61.14 42.92
  Q 62.05 54.96 64.36 66.94
  A 1.47 1.46 81.0 0 0 65.98 68.12
  Q 69.78 67.65 73.33 66.86
  Z
  M 160.64 63.90
  C 170.99 64.44 180.95 66.22 191.16 68.43
  A 0.94 0.93 -76.7 0 0 192.27 67.74
  Q 195.14 55.66 195.82 42.85
  C 196.07 38.24 195.62 33.84 195.02 29.41
  Q 194.35 24.45 192.28 19.34
  C 190.25 14.33 187.03 12.08 181.92 11.55
  Q 178.50 11.20 175.60 11.86
  C 161.75 15.01 148.09 25.04 137.52 35.72
  A 1.45 1.45 0.0 0 0 137.47 37.71
  Q 147.34 48.71 156.01 61.05
  Q 157.91 63.75 160.64 63.90
  Z
  M 114.77 60.68
  A 0.82 0.82 0.0 0 0 115.39 62.03
  L 141.80 62.17
  A 0.82 0.82 0.0 0 0 142.44 60.82
  L 129.31 45.09
  A 0.82 0.82 0.0 0 0 128.06 45.09
  L 114.77 60.68
  Z
  M 147.44 154.80
  C 149.77 154.42 151.62 155.04 153.12 152.75
  Q 164.62 135.23 172.83 119.04
  Q 173.84 117.03 174.68 114.77
  A 1.68 1.61 -43.9 0 0 174.72 113.77
  Q 174.26 112.06 173.45 110.49
  Q 163.73 91.68 152.66 74.86
  Q 152.01 73.87 150.83 73.81
  Q 128.80 72.66 106.65 73.84
  Q 106.23 73.86 105.89 74.12
  Q 103.74 75.71 102.13 78.26
  Q 90.98 95.90 83.29 111.51
  C 82.49 113.12 82.26 114.90 83.08 116.58
  Q 92.11 135.05 104.18 152.85
  Q 105.72 155.13 108.22 155.12
  Q 126.17 155.06 145.12 154.99
  Q 146.28 154.99 147.44 154.80
  Z
  M 74.99 99.31
  A 0.97 0.97 0.0 0 0 76.74 99.47
  L 89.81 76.93
  A 0.97 0.97 0.0 0 0 88.79 75.49
  L 69.02 79.08
  A 0.97 0.97 0.0 0 0 68.28 80.36
  L 74.99 99.31
  Z
  M 168.50 75.66
  A 1.17 1.17 0.0 0 0 167.28 77.40
  L 179.91 98.79
  A 1.17 1.17 0.0 0 0 182.01 98.63
  L 188.97 80.86
  A 1.17 1.17 0.0 0 0 188.10 79.28
  L 168.50 75.66
  Z
  M 15.79 124.01
  C 25.32 135.40 41.45 142.28 55.69 146.81
  A 1.25 1.25 0.0 0 0 57.26 146.02
  Q 61.94 131.92 67.80 119.51
  C 68.85 117.29 70.03 114.06 68.90 111.69
  Q 62.23 97.66 58.21 83.76
  Q 57.68 81.92 55.83 82.40
  Q 43.04 85.74 31.68 91.97
  Q 21.54 97.53 15.62 104.57
  Q 7.56 114.17 15.79 124.01
  Z
  M 199.45 83.31
  C 196.04 93.24 192.30 102.98 188.30 112.48
  A 4.63 4.60 44.8 0 0 188.32 116.14
  Q 193.36 127.73 197.12 137.02
  Q 198.83 141.22 200.19 145.81
  A 0.64 0.63 73.7 0 0 200.97 146.24
  Q 217.29 141.63 230.74 132.80
  C 236.88 128.76 247.87 119.66 245.03 111.37
  Q 243.38 106.58 240.10 103.31
  C 229.29 92.56 215.60 86.54 201.00 82.50
  A 1.28 1.27 17.2 0 0 199.45 83.31
  Z
  M 182.17 129.10
  A 1.18 1.18 0.0 0 0 180.03 128.95
  L 167.84 151.18
  A 1.18 1.18 0.0 0 0 169.07 152.91
  L 188.42 149.69
  A 1.18 1.18 0.0 0 0 189.33 148.11
  L 182.17 129.10
  Z
  M 88.68 153.33
  A 1.14 1.14 0.0 0 0 89.84 151.62
  L 77.02 129.69
  A 1.14 1.14 0.0 0 0 74.97 129.87
  L 68.04 148.63
  A 1.14 1.14 0.0 0 0 68.92 150.16
  L 88.68 153.33
  Z
  M 195.48 174.41
  C 194.85 169.66 193.62 165.00 193.22 160.18
  A 0.42 0.42 0.0 0 0 192.71 159.81
  Q 176.82 163.41 160.70 164.87
  Q 158.12 165.10 156.52 167.31
  Q 151.44 174.35 145.41 182.25
  C 142.88 185.56 139.91 188.30 137.42 191.78
  A 1.27 1.26 40.0 0 0 137.57 193.42
  Q 148.79 204.28 162.26 211.71
  C 170.18 216.08 184.31 221.62 190.88 211.50
  C 196.26 203.21 196.24 192.29 196.05 182.17
  Q 195.97 178.11 195.48 174.41
  Z
  M 96.71 164.76
  C 86.39 164.10 76.16 162.76 65.96 160.72
  A 1.50 1.49 -78.0 0 0 64.21 161.86
  Q 61.05 175.91 60.95 190.52
  C 60.91 196.05 61.78 201.83 63.54 206.95
  Q 64.63 210.14 67.85 213.70
  C 74.32 220.84 87.28 215.31 94.39 211.97
  Q 99.26 209.68 103.33 206.88
  C 109.11 202.89 115.05 198.72 119.77 193.65
  Q 120.80 192.54 119.84 191.37
  Q 111.78 181.64 105.43 173.24
  C 103.19 170.29 100.96 165.03 96.71 164.76
  Z
  M 142.25 168.80
  A 1.22 1.22 0.0 0 0 141.33 166.80
  L 116.17 166.59
  A 1.22 1.22 0.0 0 0 115.23 168.60
  L 128.01 183.60
  A 1.22 1.22 0.0 0 0 129.88 183.59
  L 142.25 168.80
  Z"
/>
<circle fill="#05d7fb" cx="128.42" cy="114.13" r="22.77"/>
</svg>
