<?xml version="1.0" encoding="UTF-8" standalone="no"?>
<!DOCTYPE svg PUBLIC "-//W3C//DTD SVG 1.1//EN" "http://www.w3.org/Graphics/SVG/1.1/DTD/svg11.dtd">
<svg xmlns="http://www.w3.org/2000/svg" version="1.1" viewBox="0.00 0.00 455.00 548.00">
<path fill="#ff3f00" d="
  M 272.62 0.00
  L 299.03 0.00
  Q 311.80 2.09 324.50 4.93
  Q 361.12 13.10 390.47 35.76
  C 405.02 46.99 417.23 60.81 428.01 76.37
  C 440.70 94.69 448.20 115.52 452.50 137.50
  Q 453.51 142.60 455.00 147.60
  L 455.00 178.50
  Q 453.02 183.21 452.69 185.24
  C 449.40 205.88 442.82 225.81 431.59 243.23
  C 430.63 244.72 430.47 246.37 431.26 247.99
  C 435.03 255.74 438.63 263.63 441.14 272.02
  C 447.69 293.87 449.54 316.97 446.14 339.58
  Q 445.19 345.92 444.71 348.30
  Q 440.76 367.72 432.31 383.87
  Q 416.77 413.60 390.85 433.91
  Q 384.88 438.58 374.30 445.38
  C 352.52 459.39 330.90 472.60 309.60 486.45
  Q 271.40 511.27 248.30 525.28
  Q 223.40 540.39 190.96 545.87
  C 188.00 546.38 185.32 547.45 182.38 548.00
  L 152.75 548.00
  Q 150.89 547.33 149.01 546.68
  Q 147.31 546.09 145.43 545.81
  C 113.91 541.09 86.87 529.37 62.25 510.13
  C 44.99 496.65 30.65 478.64 19.65 459.90
  Q 10.76 444.76 5.91 424.96
  Q 3.64 415.69 0.96 404.25
  Q 0.26 401.27 0.00 398.12
  L 0.00 369.74
  Q 2.45 357.44 5.44 345.26
  Q 10.93 322.85 24.06 303.81
  A 2.02 2.00 -42.2 0 0 24.17 301.71
  Q 7.48 270.91 6.83 235.69
  Q 6.52 218.54 9.31 202.83
  C 15.49 168.03 34.56 137.09 62.04 115.25
  Q 67.37 111.02 78.49 103.90
  Q 136.21 66.93 197.21 28.01
  Q 208.50 20.81 214.88 17.57
  Q 238.67 5.49 264.83 2.08
  C 267.60 1.72 269.94 0.73 272.62 0.00
  Z
  M 70.81 249.14
  Q 73.60 265.23 80.30 277.68
  C 93.90 302.94 119.39 323.94 148.12 330.04
  Q 168.74 334.42 188.93 330.71
  C 202.59 328.21 212.96 323.42 225.05 315.80
  Q 243.08 304.43 260.90 292.75
  C 264.67 290.28 268.75 287.79 272.81 285.84
  Q 284.84 280.04 297.36 284.76
  C 304.74 287.55 310.94 293.67 313.78 301.01
  Q 320.01 317.13 309.33 329.00
  Q 306.40 332.26 299.52 336.57
  Q 294.21 339.90 289.09 343.17
  Q 232.94 379.12 183.38 410.65
  Q 177.53 414.37 171.91 416.78
  C 160.49 421.68 148.66 418.12 139.56 409.69
  C 132.55 403.19 130.56 393.02 131.31 383.67
  Q 131.45 381.92 129.67 381.46
  Q 118.96 378.67 109.57 374.60
  Q 89.49 365.90 71.63 352.11
  A 1.70 1.70 0.0 0 0 68.98 352.93
  Q 66.55 360.41 65.01 368.43
  Q 58.72 401.28 73.75 430.52
  C 79.16 441.05 88.23 453.00 98.28 461.27
  Q 104.31 466.23 108.47 469.03
  Q 140.59 490.64 179.90 484.68
  Q 197.68 481.99 213.56 472.42
  Q 217.58 470.00 221.96 467.17
  Q 276.31 432.09 332.61 396.60
  Q 346.48 387.86 352.99 382.55
  Q 375.78 363.95 382.53 334.41
  C 384.79 324.50 384.99 311.60 383.83 301.53
  C 380.09 269.02 357.25 240.53 328.15 225.94
  C 309.14 216.41 286.94 213.36 266.42 216.99
  Q 247.50 220.33 233.77 229.30
  Q 213.60 242.47 192.28 256.19
  Q 181.69 262.99 176.59 264.49
  Q 163.44 268.35 151.34 260.55
  C 145.83 257.00 140.84 251.04 139.20 244.80
  Q 135.73 231.59 143.29 220.91
  Q 146.02 217.05 155.98 210.70
  C 191.56 188.00 225.75 166.34 261.72 143.22
  Q 269.37 138.31 277.19 133.70
  C 284.04 129.67 293.33 127.58 301.01 130.10
  C 312.84 133.98 322.02 143.39 322.81 156.23
  Q 323.03 159.97 322.58 164.14
  A 1.51 1.50 29.0 0 0 322.91 165.28
  Q 323.77 166.34 325.23 166.70
  Q 335.66 169.29 343.44 172.77
  C 356.91 178.80 370.86 186.71 382.69 196.27
  Q 383.83 197.19 384.38 195.83
  Q 396.01 167.21 388.20 136.35
  Q 384.82 123.01 376.61 110.10
  Q 364.39 90.89 345.47 78.54
  Q 326.60 66.21 306.00 63.39
  Q 291.89 61.45 277.01 62.98
  Q 260.92 64.64 246.46 72.48
  Q 241.69 75.07 225.14 85.64
  Q 167.04 122.71 109.90 159.15
  Q 87.09 173.69 75.91 200.21
  C 69.60 215.17 68.16 233.86 70.81 249.14
  Z"
/>
</svg>
