<?xml version="1.0" encoding="UTF-8" standalone="no"?>
<!DOCTYPE svg PUBLIC "-//W3C//DTD SVG 1.1//EN" "http://www.w3.org/Graphics/SVG/1.1/DTD/svg11.dtd">
<svg xmlns="http://www.w3.org/2000/svg" version="1.1" viewBox="0.00 0.00 536.00 465.00">
<path fill="#18bab9" d="
  M 481.04 153.73
  Q 470.41 175.57 451.94 191.53
  C 426.49 213.53 389.46 219.19 355.90 215.51
  Q 327.39 212.39 304.75 198.50
  Q 289.96 189.43 277.04 176.55
  Q 265.60 165.16 254.74 154.58
  Q 245.88 145.96 235.65 139.83
  C 224.58 133.21 211.65 130.93 198.64 131.51
  C 177.75 132.46 159.64 144.21 146.22 159.63
  Q 143.23 163.06 139.93 166.91
  Q 138.94 168.06 139.31 166.59
  C 148.75 129.07 171.02 96.93 207.81 83.33
  Q 216.77 80.02 227.41 78.12
  Q 254.28 73.33 281.66 77.51
  Q 310.68 81.95 334.41 99.07
  Q 342.45 104.87 351.11 113.12
  Q 362.47 123.95 375.42 136.96
  Q 378.55 140.10 383.60 144.24
  Q 404.53 161.39 431.27 160.02
  C 457.22 158.69 475.63 143.40 491.03 124.05
  Q 491.70 123.21 491.62 124.28
  Q 491.53 125.41 491.23 126.49
  Q 487.15 141.19 481.04 153.73
  Z"
/>
<path fill="#18bab9" d="
  M 364.82 291.57
  Q 352.49 318.69 330.72 335.73
  C 313.67 349.08 291.41 355.97 269.59 357.58
  C 238.25 359.90 205.99 354.55 180.07 335.77
  C 163.99 324.13 150.57 309.75 136.11 295.50
  Q 129.93 289.41 120.18 282.89
  C 110.44 276.36 99.22 273.50 87.54 272.99
  Q 69.41 272.20 54.89 279.80
  Q 41.59 286.77 31.78 297.21
  Q 26.91 302.40 22.10 308.38
  Q 20.80 310.00 21.29 307.98
  C 23.47 298.99 27.16 289.76 30.90 281.41
  C 43.90 252.34 67.37 230.71 98.04 222.30
  C 120.74 216.08 144.62 215.56 167.90 219.84
  Q 197.47 225.27 221.04 244.21
  C 232.54 253.44 243.03 264.31 253.22 274.46
  Q 262.29 283.50 271.44 289.96
  C 290.45 303.40 318.03 305.42 338.88 295.04
  C 351.89 288.57 362.88 278.52 371.86 266.93
  Q 374.37 263.70 373.30 267.65
  Q 369.72 280.81 364.82 291.57
  Z"
/>
</svg>
